# ProBuilder 4.0.5
# https://unity3d.com/unity/features/worldbuilding/probuilder
# 9/25/2019 11:26:19 AM

mtllib ./Trash_Colored_Floor_1.mtl
o Trash Colored Floor 1

g Trash Colored Floor 1
v -1.109149 2.583976 -2.98
v -1.109149 2.583976 -2.2925
v -1.609149 2.583976 -2.98
v -1.609149 2.583976 -2.2925
v -2.421649 2.583976 -2.98
v -2.421649 2.583976 -2.2925
v -3.296649 2.583976 -2.98
v -3.296649 2.583976 -2.2925
v -2.421649 2.583976 -3.73
v -2.421649 2.583976 -3.0425
v -3.296649 2.583976 -3.73
v -3.296649 2.583976 -3.0425
v -1.671649 2.583976 -2.98
v -1.671649 2.583976 -2.2925
v -2.359149 2.583976 -2.98
v -2.359149 2.583976 -2.2925
v -1.109149 2.583976 -4.48
v -1.109149 2.583976 -3.7925
v -1.796649 2.583976 -4.48
v -1.796649 2.583976 -3.7925
v -2.109149 2.583976 -5.1675
v -2.109149 2.583976 -4.5425
v -3.296649 2.583976 -5.1675
v -3.296649 2.583976 -4.5425
v -1.609149 2.583976 -3.73
v -1.109149 2.583976 -3.73
v -1.109149 2.583976 -3.0425
v -1.609149 2.583976 -3.0425
v -3.984149 2.583976 -4.48
v -3.359149 2.583976 -4.48
v -3.359149 2.583976 -3.98
v -3.984149 2.583976 -3.98
v -2.359149 2.583976 -4.48
v -1.859149 2.583976 -4.48
v -1.859149 2.583976 -3.7925
v -2.359149 2.583976 -3.7925
v -3.296649 2.583976 -4.48
v -2.421649 2.583976 -4.48
v -2.421649 2.583976 -3.7925
v -3.296649 2.583976 -3.7925
v -3.984149 2.583976 -5.1675
v -3.359149 2.583976 -5.1675
v -3.359149 2.583976 -4.73
v -3.984149 2.583976 -4.73
v -3.984149 2.583976 -2.98
v -3.359149 2.583976 -2.98
v -3.359149 2.583976 -2.2925
v -3.984149 2.583976 -2.2925
v -1.109149 2.521476 -5.1675
v -1.109149 2.521476 -4.5425
v -2.046649 2.521476 -5.1675
v -2.046649 2.521476 -4.5425
v -2.359149 2.521476 -3.73
v -1.671649 2.521476 -3.73
v -1.671649 2.521476 -3.0425
v -2.359149 2.521476 -3.0425
v -1.671649 2.583976 -3.73
v -1.671649 2.583976 -3.0425
v -3.984149 2.521476 -3.9175
v -3.359149 2.521476 -3.9175
v -3.359149 2.521476 -3.0425
v -3.984149 2.521476 -3.0425
v -3.984149 2.583976 -3.0425
v -3.359149 2.583976 -3.0425
v -2.046649 2.583976 -5.1675
v -2.046649 2.583976 -4.5425
v -2.359149 2.583976 -3.73
v -2.359149 2.583976 -3.0425
v -3.359149 2.583976 -3.9175
v -3.984149 2.583976 -3.9175
v -4.046649 2.583976 -4.605
v -4.046649 2.583976 -5.23
v -3.359149 2.583976 -5.23
v -4.046649 2.583976 -2.23
v -4.046649 2.583976 -2.98
v -3.359149 2.583976 -2.23
v -1.046649 2.583976 -2.23
v -1.796649 2.583976 -2.23
v -1.046649 2.583976 -2.98
v -1.046649 2.583976 -5.23
v -1.109149 2.583976 -4.5425
v -1.109149 2.583976 -5.1675
v -1.046649 2.583976 -4.605
v -1.796649 2.583976 -5.23
v -4.046649 2.458976 -2.23
v -4.046649 2.458976 -2.98
v -1.046649 2.458976 -2.23
v -1.046649 2.458976 -2.98
v -4.046649 2.458976 -4.605
v -4.046649 2.458976 -5.23
v -1.046649 2.458976 -4.605
v -1.046649 2.458976 -5.23
v -3.359149 2.458976 -2.23
v -3.359149 2.458976 -5.23
v -3.359149 2.458976 -2.98
v -3.359149 2.458976 -4.605
v -1.796649 2.458976 -2.23
v -1.796649 2.458976 -5.23
v -1.796649 2.458976 -2.98
v -1.796649 2.458976 -4.605

vt 0.02083333 0.75
vt 0.02083333 0.9791667
vt 0.1875 0.75
vt 0.1875 0.9791667
vt 0.4583333 0.75
vt 0.4583333 0.9791667
vt 0.75 0.75
vt 0.75 0.9791667
vt 0.4583333 0.5
vt 0.4583333 0.7291667
vt 0.75 0.5
vt 0.75 0.7291667
vt 0.2083333 0.75
vt 0.2083333 0.9791667
vt 0.4375 0.75
vt 0.4375 0.9791667
vt 0.02083333 0.25
vt 0.02083333 0.4791667
vt 0.25 0.25
vt 0.25 0.4791667
vt 0.3541667 0.02083333
vt 0.3541667 0.2291667
vt 0.75 0.02083333
vt 0.75 0.2291667
vt 0.1875 0.5
vt 0.02083333 0.5
vt 0.02083333 0.7291667
vt 0.1875 0.7291667
vt 0.9791667 0.25
vt 0.7708333 0.25
vt 0.7708333 0.4166667
vt 0.9791667 0.4166667
vt 0.4375 0.25
vt 0.2708333 0.25
vt 0.2708333 0.4791667
vt 0.4375 0.4791667
vt 0.75 0.25
vt 0.4583333 0.25
vt 0.4583333 0.4791667
vt 0.75 0.4791667
vt 0.9791667 0.02083333
vt 0.7708333 0.02083333
vt 0.7708333 0.1666667
vt 0.9791667 0.1666667
vt 0.9791667 0.75
vt 0.7708333 0.75
vt 0.7708333 0.9791667
vt 0.9791667 0.9791667
vt 0.02083333 0.02083333
vt 0.02083333 0.2291667
vt 0.3333333 0.02083333
vt 0.3333333 0.2291667
vt 0.4375 0.5
vt 0.2083333 0.5
vt 0.2083333 0.7291667
vt 0.4375 0.7291667
vt 0.9791667 0.4375
vt 0.7708333 0.4375
vt 0.7708333 0.7291667
vt 0.9791667 0.7291667
vt 1 0.2083333
vt 1 0
vt 0.7708333 0
vt 1 1
vt 1 0.75
vt 0.7708333 1
vt 0 1
vt 0.25 1
vt 0 0.75
vt 0 0
vt 0 0.2083333
vt 0.25 0
vt -0.1693879 -0.2907472
vt -0.2368879 -0.2907472
vt -0.2368879 -0.2794972
vt -0.1693879 -0.2794972
vt -0.3352331 -0.3621535
vt -0.4027331 -0.3734035
vt -0.4027331 -0.3621535
vt -0.3352331 -0.3734035
vt -0.3831379 -0.2907472
vt -0.3831379 -0.2794972
vt -0.2558472 -0.2312347
vt -0.3120972 -0.2312347
vt -0.3120972 -0.2199847
vt -0.2558472 -0.2199847
vt -0.1889831 -0.3621535
vt -0.1889831 -0.3734035
vt -0.1327331 -0.3621535
vt -0.1327331 -0.3734035
vt -0.3408581 -0.3734035
vt -0.3408581 -0.3621535
vt -0.231263 -0.2907472
vt -0.231263 -0.2794972
vt -0.3408581 -0.09215347
vt -0.4027331 -0.1596535
vt -0.4027331 -0.09215347
vt -0.3408581 -0.1596535
vt -0.3408581 -0.3059035
vt -0.4027331 -0.3059035
vt -0.2002331 -0.3734035
vt -0.2002331 -0.3621535
vt -0.2445972 -0.2199847
vt -0.2445972 -0.2312347
vt -0.3718879 -0.2907472
vt -0.3718879 -0.2794972
vt -0.2002331 -0.09215347
vt -0.2002331 -0.1596535
vt -0.1327331 -0.09215347
vt -0.1327331 -0.1596535
vt -0.2002331 -0.3059035
vt -0.1327331 -0.3059035

vn 0 1 0
vn -1 0 0
vn 1 0 0
vn 0 0 1
vn 0 0 -1
vn 0 -1 0

g Trash Colored Floor 1_0
usemtl Trash_Dark_Green
f 25/25/1 26/26/1 20/20/1
f 26/26/1 18/18/1 20/20/1
f 2/2/1 4/4/1 77/67/1
f 4/4/1 78/68/1 77/67/1
f 23/23/1 73/63/1 42/42/1
f 23/23/1 21/21/1 73/63/1
f 73/63/1 21/21/1 84/72/1
f 21/21/1 65/51/1 84/72/1
f 75/65/1 63/60/1 70/57/1
f 75/65/1 45/45/1 63/60/1
f 27/27/1 79/69/1 26/26/1
f 79/69/1 27/27/1 1/1/1
f 76/66/1 78/68/1 6/6/1
f 78/68/1 16/16/1 6/6/1
f 52/52/1 50/50/1 49/49/1
f 49/49/1 51/51/1 52/52/1
f 55/55/1 54/54/1 53/53/1
f 53/53/1 56/56/1 55/55/1
f 28/28/1 25/25/1 57/54/1
f 57/54/1 58/55/1 28/28/1
f 36/36/1 33/33/1 38/38/1
f 38/38/1 39/39/1 36/36/1
f 61/59/1 60/58/1 59/57/1
f 59/57/1 62/60/1 61/59/1
f 46/46/1 64/59/1 63/60/1
f 63/60/1 45/45/1 46/46/1
f 22/22/1 66/52/1 65/51/1
f 65/51/1 21/21/1 22/22/1
f 19/19/1 34/34/1 35/35/1
f 35/35/1 20/20/1 19/19/1
f 10/10/1 68/56/1 67/53/1
f 67/53/1 9/9/1 10/10/1
f 15/15/1 5/5/1 6/6/1
f 6/6/1 16/16/1 15/15/1
f 3/3/1 13/13/1 14/14/1
f 14/14/1 4/4/1 3/3/1
f 12/12/1 7/7/1 5/5/1
f 5/5/1 10/10/1 12/12/1
f 10/10/1 5/5/1 15/15/1
f 15/15/1 68/56/1 10/10/1
f 58/55/1 13/13/1 3/3/1
f 3/3/1 28/28/1 58/55/1
f 28/28/1 3/3/1 1/1/1
f 1/1/1 27/27/1 28/28/1
f 68/56/1 15/15/1 13/13/1
f 13/13/1 58/55/1 68/56/1
f 69/58/1 31/31/1 32/32/1
f 32/32/1 70/57/1 69/58/1
f 25/25/1 20/20/1 35/35/1
f 35/35/1 57/54/1 25/25/1
f 36/36/1 67/53/1 57/54/1
f 57/54/1 35/35/1 36/36/1
f 67/53/1 36/36/1 39/39/1
f 39/39/1 9/9/1 67/53/1
f 40/40/1 11/11/1 9/9/1
f 9/9/1 39/39/1 40/40/1
f 66/52/1 22/22/1 34/34/1
f 34/34/1 19/19/1 66/52/1
f 38/38/1 33/33/1 34/34/1
f 34/34/1 22/22/1 38/38/1
f 37/37/1 30/30/1 31/31/1
f 31/31/1 40/40/1 37/37/1
f 40/40/1 31/31/1 69/58/1
f 69/58/1 11/11/1 40/40/1
f 47/47/1 8/8/1 7/7/1
f 7/7/1 46/46/1 47/47/1
f 12/12/1 11/11/1 69/58/1
f 69/58/1 64/59/1 12/12/1
f 7/7/1 12/12/1 64/59/1
f 64/59/1 46/46/1 7/7/1
f 43/43/1 24/24/1 23/23/1
f 23/23/1 42/42/1 43/43/1
f 37/37/1 24/24/1 43/43/1
f 43/43/1 30/30/1 37/37/1
f 22/22/1 24/24/1 37/37/1
f 37/37/1 38/38/1 22/22/1
f 71/61/1 44/44/1 41/41/1
f 41/41/1 72/62/1 71/61/1
f 72/62/1 41/41/1 42/42/1
f 42/42/1 73/63/1 72/62/1
f 74/64/1 48/48/1 45/45/1
f 45/45/1 75/65/1 74/64/1
f 76/66/1 47/47/1 48/48/1
f 48/48/1 74/64/1 76/66/1
f 79/69/1 1/1/1 2/2/1
f 2/2/1 77/67/1 79/69/1
f 80/70/1 82/49/1 81/50/1
f 81/50/1 83/71/1 80/70/1
f 84/72/1 65/51/1 82/49/1
f 82/49/1 80/70/1 84/72/1
f 29/29/1 44/44/1 71/61/1
f 71/61/1 32/32/1 29/29/1
f 70/57/1 32/32/1 71/61/1
f 71/61/1 75/65/1 70/57/1
f 83/71/1 81/50/1 17/17/1
f 17/17/1 18/18/1 83/71/1
f 79/69/1 83/71/1 18/18/1
f 18/18/1 26/26/1 79/69/1
f 8/8/1 47/47/1 76/66/1
f 76/66/1 6/6/1 8/8/1
f 4/4/1 14/14/1 16/16/1
f 16/16/1 78/68/1 4/4/1
f 81/50/1 66/52/1 19/19/1
f 19/19/1 17/17/1 81/50/1
f 75/75/2 86/74/2 85/73/2
f 85/73/2 74/76/2 75/75/2
f 79/77/3 77/79/3 87/78/3
f 87/78/3 88/80/3 79/77/3
f 71/82/2 89/81/2 86/74/2
f 86/74/2 75/75/2 71/82/2
f 72/85/2 90/84/2 89/83/2
f 89/83/2 71/86/2 72/85/2
f 83/87/3 79/77/3 88/80/3
f 88/80/3 91/88/3 83/87/3
f 80/89/3 83/87/3 91/88/3
f 91/88/3 92/90/3 80/89/3
f 74/79/4 85/78/4 93/91/4
f 93/91/4 76/92/4 74/79/4
f 72/76/5 73/94/5 94/93/5
f 94/93/5 90/73/5 72/76/5
f 93/95/6 85/97/6 86/96/6
f 86/96/6 95/98/6 93/95/6
f 96/99/6 89/100/6 90/79/6
f 90/79/6 94/92/6 96/99/6
f 95/98/6 86/96/6 89/100/6
f 89/100/6 96/99/6 95/98/6
f 78/102/4 97/101/4 87/90/4
f 87/90/4 77/89/4 78/102/4
f 76/92/4 93/91/4 97/101/4
f 97/101/4 78/102/4 76/92/4
f 84/103/5 80/85/5 92/84/5
f 92/84/5 98/104/5 84/103/5
f 73/94/5 84/106/5 98/105/5
f 98/105/5 94/93/5 73/94/5
f 97/107/6 93/95/6 95/98/6
f 95/98/6 99/108/6 97/107/6
f 87/109/6 97/107/6 99/108/6
f 99/108/6 88/110/6 87/109/6
f 100/111/6 96/99/6 94/92/6
f 94/92/6 98/102/6 100/111/6
f 91/112/6 100/111/6 98/102/6
f 98/102/6 92/89/6 91/112/6
f 99/108/6 95/98/6 96/99/6
f 96/99/6 100/111/6 99/108/6
f 88/110/6 99/108/6 100/111/6
f 100/111/6 91/112/6 88/110/6
f 54/54/4 57/54/4 67/53/4
f 67/53/4 53/53/4 54/54/4
f 55/55/2 58/55/2 57/54/2
f 57/54/2 54/54/2 55/55/2
f 53/53/3 67/53/3 68/56/3
f 68/56/3 56/56/3 53/53/3
f 56/56/5 68/56/5 58/55/5
f 58/55/5 55/55/5 56/56/5
f 60/58/4 69/58/4 70/57/4
f 70/57/4 59/57/4 60/58/4
f 61/59/2 64/59/2 69/58/2
f 69/58/2 60/58/2 61/59/2
f 59/57/3 70/57/3 63/60/3
f 63/60/3 62/60/3 59/57/3
f 62/60/5 63/60/5 64/59/5
f 64/59/5 61/59/5 62/60/5
f 50/50/2 81/50/2 82/49/2
f 82/49/2 49/49/2 50/50/2
f 49/49/4 82/49/4 65/51/4
f 65/51/4 51/51/4 49/49/4
f 52/52/5 66/52/5 81/50/5
f 81/50/5 50/50/5 52/52/5
f 51/51/3 65/51/3 66/52/3
f 66/52/3 52/52/3 51/51/3

g Trash Colored Floor 1_1
usemtl Trash_Green
f 3/3/1 4/4/1 2/2/1 1/1/1
f 7/7/1 8/8/1 6/6/1 5/5/1
f 11/11/1 12/12/1 10/10/1 9/9/1
f 15/15/1 16/16/1 14/14/1 13/13/1
f 19/19/1 20/20/1 18/18/1 17/17/1
f 23/23/1 24/24/1 22/22/1 21/21/1
f 28/28/1 27/27/1 26/26/1 25/25/1
f 32/32/1 31/31/1 30/30/1 29/29/1
f 36/36/1 35/35/1 34/34/1 33/33/1
f 40/40/1 39/39/1 38/38/1 37/37/1
f 44/44/1 43/43/1 42/42/1 41/41/1
f 29/29/1 30/30/1 43/43/1 44/44/1
f 48/48/1 47/47/1 46/46/1 45/45/1

