# ProBuilder 4.0.5
# https://unity3d.com/unity/features/worldbuilding/probuilder
# 9/25/2019 11:51:20 AM

mtllib ./Gen_Ceiling_01_snaps002.mtl
o Gen_Ceiling_01_snaps002

g Gen_Ceiling_01_snaps002
v 0 0.125 0
v -0.09375 0.125 0
v -0.09375 9.536743E-07 0
v 0 9.536743E-07 0
v -0.09375 0 3
v 0 0.125 3
v 0 0 3
v -0.09375 0.125 3
v -2.90625 0.125 0
v -3 0.125 0
v -3 9.536743E-07 0
v -2.90625 9.536743E-07 0
v -3 0 3
v -2.90625 0.125 3
v -2.90625 0 3
v -3 0.125 3
v -3 0.125 2.96875
v -3 0 2.96875
v 0 0.125 2.96875
v 0 0 2.96875
v -0.09375 0.125 2.96875
v -2.90625 0.125 2.96875
v -3 0.125 0.03125
v -3 9.536743E-07 0.03125
v 0 9.536743E-07 0.03125
v 0 0.125 0.03125
v -0.09375 0.125 0.03125
v -2.90625 0.125 0.03125
v -1.46875 0.125 0
v -1.5 0.125 0
v -1.5 9.536743E-07 0
v -1.46875 9.536743E-07 0
v -1.5 0 3
v -1.46875 0.125 3
v -1.46875 0 3
v -1.5 0.125 3
v -1.46875 0.125 2.96875
v -1.5 0.125 2.96875
v -1.5 0.125 0.03125
v -1.46875 0.125 0.03125
v -3 0.125 0.4375
v -3 9.536743E-07 0.4375
v 0 9.536743E-07 0.4375
v 0 0.125 0.4375
v -0.09375 0.125 0.4375
v -2.90625 0.125 0.4375
v -1.5 0.125 0.25
v -1.46875 0.125 0.25
v -3 0.125 0.46875
v -3 9.536743E-07 0.46875
v 0 9.536743E-07 0.46875
v 0 0.125 0.46875
v -0.09375 0.125 0.46875
v -2.90625 0.125 0.46875
v -1.5 0.125 0.28125
v -1.46875 0.125 0.28125
v -3 0.125 2.59375
v -3 0 2.59375
v 0 0.125 2.59375
v 0 0 2.59375
v -0.09375 0.125 2.59375
v -2.90625 0.125 2.59375
v -1.46875 0.125 2.78125
v -1.5 0.125 2.78125
v -3 0.125 2.5625
v -3 0 2.5625
v 0 0 2.5625
v 0 0.125 2.5625
v -0.09375 0.125 2.5625
v -2.90625 0.125 2.5625
v -1.46875 0.125 2.75
v -1.5 0.125 2.75
v -2.1875 0.125 0
v -2.1875 9.536743E-07 0
v -2.1875 0 3
v -2.1875 0.125 3
v -2.1875 0.125 2.96875
v -2.1875 0.125 0.03125
v -2.375 0.125 0.4375
v -2.375 0.125 0.46875
v -2.375 0.125 2.59375
v -2.375 0.125 2.5625
v -2.21875 0.125 0
v -2.21875 9.536743E-07 0
v -2.21875 0 3
v -2.21875 0.125 3
v -2.21875 0.125 2.96875
v -2.21875 0.125 0.03125
v -2.40625 0.125 0.4375
v -2.40625 0.125 0.46875
v -2.40625 0.125 2.59375
v -2.40625 0.125 2.5625
v -0.75 0.125 0
v -0.75 9.536743E-07 0
v -0.75 0 3
v -0.75 0.125 3
v -0.75 0.125 2.96875
v -0.53125 0.125 0.03125
v -0.53125 0.125 0.4375
v -0.53125 0.125 0.46875
v -0.53125 0.125 2.59375
v -0.53125 0.125 2.5625
v -0.78125 0.125 0
v -0.78125 9.536743E-07 0
v -0.78125 0 3
v -0.78125 0.125 3
v -0.78125 0.125 2.96875
v -0.5625 0.125 0.03125
v -0.5625 0.125 0.4375
v -0.5625 0.125 0.46875
v -0.5625 0.125 2.59375
v -0.5625 0.125 2.5625
v -0.09375 0 2.96875
v -2.90625 0 2.96875
v -0.09375 9.536743E-07 0.03125
v -2.90625 9.536743E-07 0.03125
v -1.46875 0 2.96875
v -1.5 0 2.96875
v -1.5 9.536743E-07 0.03125
v -1.46875 9.536743E-07 0.03125
v -0.09375 9.536743E-07 0.4375
v -2.90625 9.536743E-07 0.4375
v -1.5 9.536743E-07 0.25
v -1.46875 9.536743E-07 0.25
v -0.09375 9.536743E-07 0.46875
v -2.90625 9.536743E-07 0.46875
v -1.5 9.536743E-07 0.28125
v -1.46875 9.536743E-07 0.28125
v -0.09375 0 2.59375
v -2.90625 0 2.59375
v -1.46875 0 2.78125
v -1.5 0 2.78125
v -0.09375 0 2.5625
v -2.90625 0 2.5625
v -1.46875 0 2.75
v -1.5 0 2.75
v -2.1875 0 2.96875
v -2.1875 9.536743E-07 0.03125
v -2.305266 0.06250095 0.3811295
v -1.548781 0.06250095 0.2109725
v -1.549661 0.06250095 0.08124876
v -2.159118 0.06250095 0.07633495
v -2.375 9.536743E-07 0.46875
v -2.375 9.536743E-07 0.4375
v -2.159862 0.0625 2.923657
v -1.549999 0.0625 2.919122
v -1.549264 0.0625 2.820772
v -2.303026 0.0625 2.648579
v -2.375 0 2.59375
v -2.375 0 2.5625
v -2.21875 0 2.96875
v -2.21875 9.536743E-07 0.03125
v -2.40625 9.536743E-07 0.4375
v -2.40625 9.536743E-07 0.46875
v -2.40625 0 2.59375
v -2.40625 0 2.5625
v -0.75 0 2.96875
v -0.75 9.536743E-07 0.03125
v -0.53125 9.536743E-07 0.46875
v -0.53125 9.536743E-07 0.4375
v -0.53125 0 2.59375
v -0.53125 0 2.5625
v -0.78125 0 2.96875
v -0.78125 9.536743E-07 0.03125
v -1.41991 0.06250095 0.2107069
v -0.6350452 0.06250095 0.3827696
v -0.806881 0.06250095 0.07490945
v -1.419073 0.06250095 0.081249
v -0.5625 9.536743E-07 0.4375
v -0.5625 9.536743E-07 0.46875
v -1.418752 0.0625 2.919228
v -0.8060541 0.0625 2.925083
v -0.6373706 0.0625 2.646645
v -1.419438 0.0625 2.821119
v -0.5625 0 2.59375
v -0.5625 0 2.5625
v -0.611463 0.0625 2.52263
v -1.419787 0.0625 2.68987
v -0.611463 0.06250095 0.5086198
v -1.419787 0.06250095 0.3413804
v -2.32611 0.06250095 0.5082736
v -1.54889 0.06250095 0.3417263
v -2.32611 0.0625 2.522976
v -1.54889 0.0625 2.689523

vt -0.510275 -0.4419463
vt -0.5029508 -0.4419463
vt -0.5029508 -0.4517118
vt -0.510275 -0.4517118
vt -0.3700477 -0.4093909
vt -0.3627234 -0.3996253
vt -0.3627234 -0.4093909
vt -0.3700477 -0.3996253
vt -0.2832243 -0.4419463
vt -0.2759 -0.4419463
vt -0.2759 -0.4517118
vt -0.2832243 -0.4517118
vt -0.4918678 -0.4082471
vt -0.4845436 -0.3984814
vt -0.4845436 -0.4082471
vt -0.4918678 -0.3984814
vt -0.2783414 -0.4419463
vt -0.2783414 -0.4517119
vt -0.4894264 -0.3984814
vt -0.4894264 -0.4082471
vt -0.510275 -0.2197783
vt -0.5029508 -0.2173369
vt -0.5029508 -0.2197783
vt -0.510275 -0.2173369
vt -0.2832243 -0.2197783
vt -0.2759 -0.2173369
vt -0.2759 -0.2197783
vt -0.2832243 -0.2173369
vt -0.5078336 -0.4419463
vt -0.5078336 -0.4517118
vt -0.3651648 -0.4093908
vt -0.3651648 -0.3996253
vt -0.5029508 -0.4492705
vt -0.510275 -0.4492705
vt -0.2759 -0.4492705
vt -0.2832243 -0.4492705
vt -0.3955289 -0.4419463
vt -0.3930875 -0.4419463
vt -0.3930875 -0.4517118
vt -0.3955289 -0.4517118
vt -0.3746804 -0.4082471
vt -0.372239 -0.3984814
vt -0.372239 -0.4082471
vt -0.3746804 -0.3984814
vt -0.3955289 -0.2197783
vt -0.3930875 -0.2173369
vt -0.3930875 -0.2197783
vt -0.3955289 -0.2173369
vt -0.3930875 -0.4492705
vt -0.3955289 -0.4492705
vt -0.4760953 -0.4419463
vt -0.4760953 -0.4517118
vt -0.3969032 -0.4093908
vt -0.3969032 -0.3996253
vt -0.5029508 -0.4175322
vt -0.510275 -0.4175322
vt -0.2759 -0.4175322
vt -0.2832243 -0.4175322
vt -0.3930875 -0.4321806
vt -0.3955289 -0.4321806
vt -0.4736539 -0.4419463
vt -0.4736539 -0.4517118
vt -0.294114 -0.408247
vt -0.2916726 -0.3984814
vt -0.2916726 -0.408247
vt -0.294114 -0.3984814
vt -0.5029508 -0.4150908
vt -0.510275 -0.4150908
vt -0.2759 -0.4150908
vt -0.2832243 -0.4150908
vt -0.3930875 -0.4297392
vt -0.3955289 -0.4297392
vt -0.3076383 -0.4419463
vt -0.3076383 -0.4517119
vt -0.4601296 -0.3984814
vt -0.4601296 -0.4082471
vt -0.510275 -0.2490752
vt -0.5029508 -0.2490752
vt -0.2832243 -0.2490752
vt -0.2759 -0.2490752
vt -0.3955289 -0.2344267
vt -0.3930875 -0.2344267
vt -0.3100797 -0.4419463
vt -0.3100797 -0.4517119
vt -0.4576882 -0.4082471
vt -0.4576882 -0.3984814
vt -0.510275 -0.2515166
vt -0.5029508 -0.2515166
vt -0.2832243 -0.2515166
vt -0.2759 -0.2515166
vt -0.3955289 -0.2368681
vt -0.3930875 -0.2368681
vt -0.3393766 -0.4419463
vt -0.3393766 -0.4517118
vt -0.4283913 -0.4082471
vt -0.4283913 -0.3984814
vt -0.3393766 -0.2173369
vt -0.3393766 -0.2197783
vt -0.3393766 -0.4492705
vt -0.3247281 -0.4175322
vt -0.3247281 -0.4150908
vt -0.3247281 -0.2490752
vt -0.3247281 -0.2515166
vt -0.3369352 -0.4419463
vt -0.3369352 -0.4517118
vt -0.4308327 -0.4082471
vt -0.4308327 -0.3984814
vt -0.3369352 -0.2197783
vt -0.3369352 -0.2173369
vt -0.3369352 -0.4492705
vt -0.3222868 -0.4175322
vt -0.3222868 -0.4150908
vt -0.3222868 -0.2490752
vt -0.3222868 -0.2515166
vt -0.4516813 -0.4419463
vt -0.4516813 -0.4517118
vt -0.4213172 -0.4093909
vt -0.4213172 -0.3996253
vt -0.4516813 -0.2173369
vt -0.4516813 -0.2197783
vt -0.4687711 -0.4492705
vt -0.4687711 -0.4175322
vt -0.4687711 -0.4150908
vt -0.4687711 -0.2490752
vt -0.4687711 -0.2515166
vt -0.4492399 -0.4419463
vt -0.4492399 -0.4517118
vt -0.318528 -0.4082471
vt -0.3160866 -0.3984814
vt -0.3160866 -0.4082471
vt -0.318528 -0.3984814
vt -0.4492399 -0.2197783
vt -0.4492399 -0.2173369
vt -0.4663297 -0.4492705
vt -0.4663297 -0.4175322
vt -0.4663297 -0.4150908
vt -0.4663297 -0.2490752
vt -0.4663297 -0.2515166
vt 0.96875 0.9999966
vt 1 0.9999965
vt 1 0.9895799
vt 0.96875 0.9895799
vt 0 0.9999967
vt 0.03125 0.9999967
vt 0.03125 0.9895801
vt 0 0.9895802
vt 0.96875 0.01041664
vt 1 0.01041663
vt 1 0
vt 0.96875 9.934108E-09
vt 0 0.01041684
vt 0.03125 0.01041683
vt 0.03125 1.986821E-07
vt 0 2.086163E-07
vt 0.5 0.9999967
vt 0.5104167 0.9999967
vt 0.5104167 0.98958
vt 0.5 0.98958
vt 0.5 0.01041674
vt 0.5104167 0.01041673
vt 0.5104167 9.934107E-08
vt 0.5 9.934107E-08
vt 0.96875 0.1458328
vt 1 0.1458328
vt 0 0.145833
vt 0.03125 0.145833
vt 0.5 0.08333316
vt 0.5104167 0.08333313
vt 0.96875 0.1562495
vt 1 0.1562495
vt 0 0.1562497
vt 0.03125 0.1562497
vt 0.5 0.09374978
vt 0.5104167 0.09374978
vt 1 0.8645803
vt 0.96875 0.8645803
vt 0.03125 0.8645806
vt 0 0.8645806
vt 0.5104167 0.9270802
vt 0.5 0.9270802
vt 1 0.8541637
vt 0.96875 0.8541637
vt 0.03125 0.8541639
vt 0 0.8541639
vt 0.5104167 0.9166636
vt 0.5 0.9166636
vt 0.2708333 0.9999967
vt 0.2708333 0.9895801
vt 0.2708333 0.01041679
vt 0.2708333 1.490116E-07
vt 0.2315764 0.1269881
vt 0.483738 0.0702692
vt 0.4834447 0.0270281
vt 0.2802923 0.02539021
vt 0.2083333 0.1562496
vt 0.2083333 0.145833
vt 0.2800443 0.9744943
vt 0.4833322 0.9729825
vt 0.4835771 0.9401994
vt 0.2323229 0.882802
vt 0.2083333 0.8645805
vt 0.2083333 0.8541639
vt 0.2604167 0.9999967
vt 0.2604167 0.9895801
vt 0.2604167 0.01041679
vt 0.2604167 1.490116E-07
vt 0.1979167 0.145833
vt 0.1979167 0.1562496
vt 0.1979167 0.8645805
vt 0.1979167 0.8541639
vt 0.75 0.9999966
vt 0.75 0.98958
vt 0.75 0.01041669
vt 0.75 4.967054E-08
vt 0.8229167 0.1562495
vt 0.8229167 0.1458329
vt 0.8229167 0.8645804
vt 0.8229167 0.8541637
vt 0.7395833 0.9999966
vt 0.7395833 0.98958
vt 0.7395833 0.01041669
vt 0.7395833 4.967054E-08
vt 0.5266951 0.07018068
vt 0.7883167 0.1275346
vt 0.731038 0.02491495
vt 0.526974 0.02702817
vt 0.8125 0.1458329
vt 0.8125 0.1562495
vt 0.527081 0.9730179
vt 0.7313136 0.9749696
vt 0.7875414 0.8821571
vt 0.5268525 0.9403148
vt 0.8125 0.8645804
vt 0.8125 0.8541637
vt 0.7961774 0.8408191
vt 0.5267361 0.8965654
vt 0.7961774 0.1694846
vt 0.5267361 0.1137383
vt 0.2246284 0.1693693
vt 0.4837017 0.1138537
vt 0.2246284 0.8409345
vt 0.4837017 0.89645

vn 0 0 -1
vn 0 0 1
vn -1 0 0
vn 1 0 0
vn 0 1 0
vn 0 -1 0
vn 0.003731129 -0.5987037 -0.8002957
vn 0 -0.5727301 -0.8197441
vn 0.007462258 -0.6246774 -0.7808473
vn 0.7838187 -0.6209595 -0.002747905
vn 0.7808829 -0.6246774 0
vn 0.7867544 -0.6172416 -0.005495809
vn 0.1744825 -0.5546352 0.8100736
vn 0.1594047 -0.617242 0.7704561
vn 0.1895602 -0.4920285 0.849691
vn -0.7190834 -0.5469835 -0.427338
vn -0.7379646 -0.5197074 -0.4304793
vn -0.7002023 -0.5742596 -0.4241966
vn -0.1594909 -0.6166991 -0.7708728
vn -0.7871994 -0.6166985 -2.864584E-07
vn -0.1594909 -0.6166991 0.7708728
vn 0.7871991 -0.616699 -2.443294E-07
vn 0.1703727 -0.5720614 -0.8005348
vn 0.1720133 -0.528384 -0.8313975
vn 0.1687321 -0.6157388 -0.7696722
vn -0.7385284 -0.5376219 0.4050875
vn -0.7239326 -0.5691835 0.3898099
vn -0.7531242 -0.5060602 0.4203652
vn 0.7844051 -0.6202123 0.002523119
vn 0.7808595 -0.6246862 0.005046237
vn 0.7879508 -0.6157383 0
vn 0.004252969 -0.5974925 0.8011345
vn 0 -0.6246874 0.7808749
vn 0.008505938 -0.5702976 0.8213941
vn -0.7864283 -0.617644 0.002678552
vn -0.7899202 -0.6131863 0.005357103
vn -0.7829366 -0.6221016 0
vn -0.1754662 -0.5741236 -0.7983853
vn -0.1852465 -0.5361126 -0.8235697
vn -0.1656859 -0.6121345 -0.7732009
vn -0.003138053 -0.60637 0.7947169
vn -0.006276105 -0.6277094 0.7784225
vn 0 -0.5850306 0.8110113
vn 0.7488706 -0.5605705 0.3521986
vn 0.7664517 -0.5361108 0.353747
vn 0.7312894 -0.5850301 0.3506503
vn 0.1650347 -0.6161287 0.7701616
vn 0.7876452 -0.616129 -2.861437E-07
vn -0.7876452 -0.616129 -2.441406E-07
vn 0.1650345 -0.6161296 -0.770161
vn -0.003019974 -0.6025909 -0.7976739
vn 0 -0.6218507 -0.7831358
vn -0.006039947 -0.5833311 -0.812212
vn -0.7819834 -0.6232622 -0.002909096
vn -0.7853616 -0.6190373 0
vn -0.7786052 -0.6274872 -0.005818191
vn -0.1764706 -0.5728297 0.7982812
vn -0.1745831 -0.6208711 0.764225
vn -0.178358 -0.5247883 0.8323374
vn 0.7407863 -0.5540604 -0.3781141
vn 0.7264842 -0.5833318 -0.3632421
vn 0.7550883 -0.524789 -0.3929861

g Gen_Ceiling_01_snaps002_0
usemtl Gray_snaps002
f 142/194/6 141/193/6 140/192/6 139/191/6
f 148/200/6 147/199/6 146/198/6 145/197/6
f 168/226/6 167/225/6 166/224/6 165/223/6
f 174/232/6 173/231/6 172/230/6 171/229/6
f 181/239/6 182/240/6 184/242/6 183/241/6
f 180/238/6 179/237/6 177/235/6 178/236/6
f 116/152/6 152/205/6 153/207/6 122/166/6
f 130/177/6 155/209/6 151/204/6 114/145/6
f 126/172/6 154/208/6 156/210/6 134/183/6
f 158/213/6 115/147/6 121/163/6 160/216/6
f 161/217/6 129/176/6 113/142/6 157/212/6
f 159/215/6 125/169/6 133/182/6 162/218/6

g Gen_Ceiling_01_snaps002_1
usemtl DarkGray_snaps002
f 78/99/5 79/100/5 39/49/5
f 79/100/5 47/59/5 39/49/5
f 81/102/5 77/98/5 64/82/5
f 77/98/5 38/47/5 64/82/5
f 80/101/5 82/103/5 55/71/5
f 82/103/5 72/92/5 55/71/5
f 93/116/5 98/121/5 2/3/5
f 98/121/5 27/33/5 2/3/5
f 3/3/1 2/2/1 1/1/1
f 1/1/1 4/4/1 3/3/1
f 5/5/2 7/7/2 6/6/2
f 6/6/2 8/8/2 5/5/2
f 11/11/1 10/10/1 9/9/1
f 9/9/1 12/12/1 11/11/1
f 13/13/2 15/15/2 14/14/2
f 14/14/2 16/16/2 13/13/2
f 13/11/3 16/10/3 17/17/3
f 17/17/3 18/18/3 13/11/3
f 7/13/4 20/20/4 19/19/4
f 19/19/4 6/16/4 7/13/4
f 19/21/5 21/23/5 8/22/5
f 8/22/5 6/24/5 19/21/5
f 22/25/5 17/27/5 16/26/5
f 16/26/5 14/28/5 22/25/5
f 24/30/3 23/29/3 10/1/3
f 10/1/3 11/4/3 24/30/3
f 25/31/4 4/7/4 1/6/4
f 1/6/4 26/32/4 25/31/4
f 1/4/5 2/3/5 27/33/5
f 27/33/5 26/34/5 1/4/5
f 9/12/5 10/11/5 23/35/5
f 23/35/5 28/36/5 9/12/5
f 31/39/1 30/38/1 29/37/1
f 29/37/1 32/40/1 31/39/1
f 33/41/2 35/43/2 34/42/2
f 34/42/2 36/44/2 33/41/2
f 37/45/5 38/47/5 36/46/5
f 36/46/5 34/48/5 37/45/5
f 29/40/5 30/39/5 39/49/5
f 39/49/5 40/50/5 29/40/5
f 42/52/3 41/51/3 23/29/3
f 23/29/3 24/30/3 42/52/3
f 43/53/4 25/31/4 26/32/4
f 26/32/4 44/54/4 43/53/4
f 26/34/5 27/33/5 45/55/5
f 45/55/5 44/56/5 26/34/5
f 28/36/5 23/35/5 41/57/5
f 41/57/5 46/58/5 28/36/5
f 40/50/5 39/49/5 47/59/5
f 47/59/5 48/60/5 40/50/5
f 50/62/3 49/61/3 41/51/3
f 41/51/3 42/52/3 50/62/3
f 51/63/4 43/65/4 44/64/4
f 44/64/4 52/66/4 51/63/4
f 44/56/5 45/55/5 53/67/5
f 53/67/5 52/68/5 44/56/5
f 46/58/5 41/57/5 49/69/5
f 49/69/5 54/70/5 46/58/5
f 48/60/5 47/59/5 55/71/5
f 55/71/5 56/72/5 48/60/5
f 18/18/3 17/17/3 57/73/3
f 57/73/3 58/74/3 18/18/3
f 20/20/4 60/76/4 59/75/4
f 59/75/4 19/19/4 20/20/4
f 59/77/5 61/78/5 21/23/5
f 21/23/5 19/21/5 59/77/5
f 62/79/5 57/80/5 17/27/5
f 17/27/5 22/25/5 62/79/5
f 63/81/5 64/82/5 38/47/5
f 38/47/5 37/45/5 63/81/5
f 66/84/3 65/83/3 49/61/3
f 49/61/3 50/62/3 66/84/3
f 58/74/3 57/73/3 65/83/3
f 65/83/3 66/84/3 58/74/3
f 67/85/4 51/63/4 52/66/4
f 52/66/4 68/86/4 67/85/4
f 60/76/4 67/85/4 68/86/4
f 68/86/4 59/75/4 60/76/4
f 68/87/5 69/88/5 61/78/5
f 61/78/5 59/77/5 68/87/5
f 52/68/5 53/67/5 69/88/5
f 69/88/5 68/87/5 52/68/5
f 70/89/5 65/90/5 57/80/5
f 57/80/5 62/79/5 70/89/5
f 54/70/5 49/69/5 65/90/5
f 65/90/5 70/89/5 54/70/5
f 71/91/5 72/92/5 64/82/5
f 64/82/5 63/81/5 71/91/5
f 56/72/5 55/71/5 72/92/5
f 72/92/5 71/91/5 56/72/5
f 74/94/1 73/93/1 30/38/1
f 30/38/1 31/39/1 74/94/1
f 75/95/2 33/41/2 36/44/2
f 36/44/2 76/96/2 75/95/2
f 38/47/5 77/98/5 76/97/5
f 76/97/5 36/46/5 38/47/5
f 30/39/5 73/94/5 78/99/5
f 78/99/5 39/49/5 30/39/5
f 47/59/5 79/100/5 80/101/5
f 80/101/5 55/71/5 47/59/5
f 72/92/5 82/103/5 81/102/5
f 81/102/5 64/82/5 72/92/5
f 84/105/1 83/104/1 73/93/1
f 73/93/1 74/94/1 84/105/1
f 12/12/1 9/9/1 83/104/1
f 83/104/1 84/105/1 12/12/1
f 85/106/2 75/95/2 76/96/2
f 76/96/2 86/107/2 85/106/2
f 15/15/2 85/106/2 86/107/2
f 86/107/2 14/14/2 15/15/2
f 87/108/5 22/25/5 14/28/5
f 14/28/5 86/109/5 87/108/5
f 77/98/5 87/108/5 86/109/5
f 86/109/5 76/97/5 77/98/5
f 83/105/5 9/12/5 28/36/5
f 28/36/5 88/110/5 83/105/5
f 73/94/5 83/105/5 88/110/5
f 88/110/5 78/99/5 73/94/5
f 88/110/5 28/36/5 46/58/5
f 46/58/5 89/111/5 88/110/5
f 78/99/5 88/110/5 89/111/5
f 89/111/5 79/100/5 78/99/5
f 89/111/5 46/58/5 54/70/5
f 54/70/5 90/112/5 89/111/5
f 79/100/5 89/111/5 90/112/5
f 90/112/5 80/101/5 79/100/5
f 91/113/5 62/79/5 22/25/5
f 22/25/5 87/108/5 91/113/5
f 81/102/5 91/113/5 87/108/5
f 87/108/5 77/98/5 81/102/5
f 92/114/5 70/89/5 62/79/5
f 62/79/5 91/113/5 92/114/5
f 82/103/5 92/114/5 91/113/5
f 91/113/5 81/102/5 82/103/5
f 90/112/5 54/70/5 70/89/5
f 70/89/5 92/114/5 90/112/5
f 80/101/5 90/112/5 92/114/5
f 92/114/5 82/103/5 80/101/5
f 94/116/1 93/115/1 2/2/1
f 2/2/1 3/3/1 94/116/1
f 95/117/2 5/5/2 8/8/2
f 8/8/2 96/118/2 95/117/2
f 21/23/5 97/120/5 96/119/5
f 96/119/5 8/22/5 21/23/5
f 27/33/5 98/121/5 99/122/5
f 99/122/5 45/55/5 27/33/5
f 45/55/5 99/122/5 100/123/5
f 100/123/5 53/67/5 45/55/5
f 61/78/5 101/124/5 97/120/5
f 97/120/5 21/23/5 61/78/5
f 69/88/5 102/125/5 101/124/5
f 101/124/5 61/78/5 69/88/5
f 53/67/5 100/123/5 102/125/5
f 102/125/5 69/88/5 53/67/5
f 104/127/1 103/126/1 93/115/1
f 93/115/1 94/116/1 104/127/1
f 32/40/1 29/37/1 103/126/1
f 103/126/1 104/127/1 32/40/1
f 105/128/2 95/130/2 96/129/2
f 96/129/2 106/131/2 105/128/2
f 35/43/2 105/128/2 106/131/2
f 106/131/2 34/42/2 35/43/2
f 107/132/5 37/45/5 34/48/5
f 34/48/5 106/133/5 107/132/5
f 97/120/5 107/132/5 106/133/5
f 106/133/5 96/119/5 97/120/5
f 103/127/5 29/40/5 40/50/5
f 40/50/5 108/134/5 103/127/5
f 93/116/5 103/127/5 108/134/5
f 108/134/5 98/121/5 93/116/5
f 108/134/5 40/50/5 48/60/5
f 48/60/5 109/135/5 108/134/5
f 98/121/5 108/134/5 109/135/5
f 109/135/5 99/122/5 98/121/5
f 109/135/5 48/60/5 56/72/5
f 56/72/5 110/136/5 109/135/5
f 99/122/5 109/135/5 110/136/5
f 110/136/5 100/123/5 99/122/5
f 111/137/5 63/81/5 37/45/5
f 37/45/5 107/132/5 111/137/5
f 101/124/5 111/137/5 107/132/5
f 107/132/5 97/120/5 101/124/5
f 112/138/5 71/91/5 63/81/5
f 63/81/5 111/137/5 112/138/5
f 102/125/5 112/138/5 111/137/5
f 111/137/5 101/124/5 102/125/5
f 110/136/5 56/72/5 71/91/5
f 71/91/5 112/138/5 110/136/5
f 100/123/5 110/136/5 112/138/5
f 112/138/5 102/125/5 100/123/5
f 20/141/6 7/140/6 5/139/6
f 5/139/6 113/142/6 20/141/6
f 114/145/6 15/144/6 13/143/6
f 13/143/6 18/146/6 114/145/6
f 4/149/6 25/148/6 115/147/6
f 115/147/6 3/150/6 4/149/6
f 12/153/6 116/152/6 24/151/6
f 24/151/6 11/154/6 12/153/6
f 117/157/6 35/156/6 33/155/6
f 33/155/6 118/158/6 117/157/6
f 32/161/6 120/160/6 119/159/6
f 119/159/6 31/162/6 32/161/6
f 25/148/6 43/164/6 121/163/6
f 121/163/6 115/147/6 25/148/6
f 116/152/6 122/166/6 42/165/6
f 42/165/6 24/151/6 116/152/6
f 120/160/6 124/168/6 123/167/6
f 123/167/6 119/159/6 120/160/6
f 43/164/6 51/170/6 125/169/6
f 125/169/6 121/163/6 43/164/6
f 122/166/6 126/172/6 50/171/6
f 50/171/6 42/165/6 122/166/6
f 124/168/6 128/174/6 127/173/6
f 127/173/6 123/167/6 124/168/6
f 60/175/6 20/141/6 113/142/6
f 113/142/6 129/176/6 60/175/6
f 130/177/6 114/145/6 18/146/6
f 18/146/6 58/178/6 130/177/6
f 131/179/6 117/157/6 118/158/6
f 118/158/6 132/180/6 131/179/6
f 67/181/6 60/175/6 129/176/6
f 129/176/6 133/182/6 67/181/6
f 51/170/6 67/181/6 133/182/6
f 133/182/6 125/169/6 51/170/6
f 134/183/6 130/177/6 58/178/6
f 58/178/6 66/184/6 134/183/6
f 126/172/6 134/183/6 66/184/6
f 66/184/6 50/171/6 126/172/6
f 135/185/6 131/179/6 132/180/6
f 132/180/6 136/186/6 135/185/6
f 128/174/6 135/185/6 136/186/6
f 136/186/6 127/173/6 128/174/6
f 118/158/6 33/155/6 75/187/6
f 75/187/6 137/188/6 118/158/6
f 31/162/6 119/159/6 138/189/6
f 138/189/6 74/190/6 31/162/6
f 123/167/6 127/173/6 143/195/6
f 143/195/6 144/196/6 123/167/6
f 136/186/6 132/180/6 149/201/6
f 149/201/6 150/202/6 136/186/6
f 151/204/6 85/203/6 15/144/6
f 15/144/6 114/145/6 151/204/6
f 137/188/6 75/187/6 85/203/6
f 85/203/6 151/204/6 137/188/6
f 84/206/6 152/205/6 116/152/6
f 116/152/6 12/153/6 84/206/6
f 74/190/6 138/189/6 152/205/6
f 152/205/6 84/206/6 74/190/6
f 138/189/6 144/196/6 153/207/6
f 153/207/6 152/205/6 138/189/6
f 153/207/6 154/208/6 126/172/6
f 126/172/6 122/166/6 153/207/6
f 144/196/6 143/195/6 154/208/6
f 154/208/6 153/207/6 144/196/6
f 149/201/6 137/188/6 151/204/6
f 151/204/6 155/209/6 149/201/6
f 156/210/6 155/209/6 130/177/6
f 130/177/6 134/183/6 156/210/6
f 150/202/6 149/201/6 155/209/6
f 155/209/6 156/210/6 150/202/6
f 143/195/6 150/202/6 156/210/6
f 156/210/6 154/208/6 143/195/6
f 113/142/6 5/139/6 95/211/6
f 95/211/6 157/212/6 113/142/6
f 3/150/6 115/147/6 158/213/6
f 158/213/6 94/214/6 3/150/6
f 121/163/6 125/169/6 159/215/6
f 159/215/6 160/216/6 121/163/6
f 133/182/6 129/176/6 161/217/6
f 161/217/6 162/218/6 133/182/6
f 163/220/6 105/219/6 35/156/6
f 35/156/6 117/157/6 163/220/6
f 157/212/6 95/211/6 105/219/6
f 105/219/6 163/220/6 157/212/6
f 104/222/6 164/221/6 120/160/6
f 120/160/6 32/161/6 104/222/6
f 94/214/6 158/213/6 164/221/6
f 164/221/6 104/222/6 94/214/6
f 158/213/6 160/216/6 169/227/6
f 169/227/6 164/221/6 158/213/6
f 169/227/6 170/228/6 128/174/6
f 128/174/6 124/168/6 169/227/6
f 160/216/6 159/215/6 170/228/6
f 170/228/6 169/227/6 160/216/6
f 161/217/6 157/212/6 163/220/6
f 163/220/6 175/233/6 161/217/6
f 176/234/6 175/233/6 131/179/6
f 131/179/6 135/185/6 176/234/6
f 162/218/6 161/217/6 175/233/6
f 175/233/6 176/234/6 162/218/6
f 159/215/6 162/218/6 176/234/6
f 176/234/6 170/228/6 159/215/6
f 172/230/7 163/220/8 117/157/7
f 117/157/7 171/229/9 172/230/7
f 171/229/10 117/157/11 131/179/10
f 131/179/10 174/232/12 171/229/10
f 174/232/13 131/179/14 175/233/13
f 175/233/13 173/231/15 174/232/13
f 173/231/16 175/233/17 163/220/16
f 163/220/16 172/230/18 173/231/16
f 177/235/19 176/234/19 135/185/19
f 135/185/19 178/236/19 177/235/19
f 179/237/20 170/228/20 176/234/20
f 176/234/20 177/235/20 179/237/20
f 180/238/21 128/174/21 170/228/21
f 170/228/21 179/237/21 180/238/21
f 128/174/22 180/238/22 178/236/22
f 178/236/22 135/185/22 128/174/22
f 166/224/23 169/227/24 124/168/23
f 124/168/23 165/223/25 166/224/23
f 167/225/26 164/221/27 169/227/26
f 169/227/26 166/224/28 167/225/26
f 120/160/29 168/226/30 165/223/29
f 165/223/29 124/168/31 120/160/29
f 168/226/32 120/160/33 164/221/32
f 164/221/32 167/225/34 168/226/32
f 123/167/35 140/192/36 141/193/35
f 141/193/35 119/159/37 123/167/35
f 144/196/38 139/191/39 140/192/38
f 140/192/38 123/167/40 144/196/38
f 119/159/41 141/193/42 142/194/41
f 142/194/41 138/189/43 119/159/41
f 139/191/44 144/196/45 138/189/44
f 138/189/44 142/194/46 139/191/44
f 181/239/47 143/195/47 127/173/47
f 127/173/47 182/240/47 181/239/47
f 183/241/48 150/202/48 143/195/48
f 143/195/48 181/239/48 183/241/48
f 182/240/49 127/173/49 136/186/49
f 136/186/49 184/242/49 182/240/49
f 184/242/50 136/186/50 150/202/50
f 150/202/50 183/241/50 184/242/50
f 146/198/51 118/158/52 137/188/51
f 137/188/51 145/197/53 146/198/51
f 147/199/54 132/180/55 118/158/54
f 118/158/54 146/198/56 147/199/54
f 132/180/57 147/199/58 148/200/57
f 148/200/57 149/201/59 132/180/57
f 145/197/60 137/188/61 149/201/60
f 149/201/60 148/200/62 145/197/60

