# ProBuilder 4.0.5
# https://unity3d.com/unity/features/worldbuilding/probuilder
# 9/25/2019 11:50:41 AM

mtllib ./Gen_Wall_snaps002.mtl
o Gen_Wall_snaps002

g Gen_Wall_snaps002
v 0 1 3
v -0.125 1 3
v -0.125 3.5 3
v 0 3.5 3
v -0.125 4 3
v 0 4 3
v -0.125 3.5 0
v -4.768372E-07 1 0
v -4.768372E-07 3.5 0
v -0.125 1 0
v -0.125 4 0
v -4.768372E-07 4 0
v -0.25 3.8125 0
v -0.249959 4 0
v -0.249959 4 3
v -0.25 3.8125 3
v -0.375 3.875 0
v -0.375 4 0
v -0.375 4 3
v -0.375 3.875 3
v 0 0 3
v -0.125 0 3
v -0.125 0.625 3
v 0 0.625 3
v -0.125 0.625 0
v -4.768372E-07 0 0
v -4.768372E-07 0.625 0
v -0.125 0 0
v -0.1875 0.625 0
v -0.1875 0 0
v -0.1875 0.9375 0
v -0.1875 0.625 3
v -0.1875 0.9375 3
v -0.1875 0 3
v -0.375 0 0
v -0.375 0.375 0
v -0.375 0.375 3
v -0.375 0 3
v -4.768372E-07 4 0.125
v -0.125 4 0.125
v -4.768372E-07 0 0.125
v -0.125 0 0.125
v -0.249959 4 0.125
v -0.375 4 0.125
v -0.1875 0 0.125
v -0.375 0 0.125
v 0 4 2.875
v -0.125 4 2.875
v 0 0 2.875
v -0.125 0 2.875
v -0.249959 4 2.875
v -0.375 4 2.875
v -0.1875 0 2.875
v -0.375 0 2.875
v -0.1827426 1.023918 0
v -0.1863723 3.488181 0
v -0.2959929 3.770181 0
v -0.2452426 0.9614177 0
v -0.4375 0 0.125
v -0.4375 0 0
v -0.2467928 0.6447642 0
v -0.4342928 0.3947642 0
v -0.4281654 3.842142 0
v -0.4375 4 0
v -0.4375 4 0.125
v -0.4375 4 3
v -0.4281654 3.842142 3
v -0.4375 4 2.875
v -0.2959929 3.770181 3
v -0.1863723 3.488181 3
v -0.1827426 1.023918 3
v -0.2452426 0.9614177 3
v -0.4375 0 3
v -0.4375 0 2.875
v -0.2467928 0.6447642 3
v -0.4342928 0.3947642 3
v 0.124999 1 0
v 0.124999 3.5 0
v 0.124999 4 0
v 0.125 3.5 3
v 0.125 1 3
v 0.125 4 3
v 0.25 3.8125 3
v 0.249959 4 3
v 0.249958 4 0
v 0.249999 3.8125 0
v 0.375 3.875 3
v 0.375 4 3
v 0.374999 4 0
v 0.374999 3.875 0
v 0.124999 0 0
v 0.124999 0.625 0
v 0.125 0.625 3
v 0.125 0 3
v 0.1875 0.625 3
v 0.1875 0 3
v 0.1875 0.9375 3
v 0.187499 0.625 0
v 0.187499 0.9375 0
v 0.187499 0 0
v 0.375 0 3
v 0.375 0.375 3
v 0.374999 0.375 0
v 0.374999 0 0
v 0.125 4 2.875
v 0.125 0 2.875
v 0.249959 4 2.875
v 0.375 4 2.875
v 0.1875 0 2.875
v 0.375 0 2.875
v 0.124999 4 0.125
v 0.124999 0 0.125
v 0.249958 4 0.125
v 0.374999 4 0.125
v 0.187499 0 0.125
v 0.374999 0 0.125
v 0.1827426 1.023918 3
v 0.1863723 3.488181 3
v 0.2959926 3.770181 3
v 0.2452426 0.9614177 3
v 0.4375 0 2.875
v 0.4375 0 3
v 0.2467928 0.6447642 3
v 0.4342928 0.3947642 3
v 0.4281657 3.842142 3
v 0.4375 4 3
v 0.4375 4 2.875
v 0.437499 4 -2.384186E-07
v 0.4281647 3.842142 -2.384186E-07
v 0.437499 4 0.1249998
v 0.2959917 3.770181 0
v 0.1863713 3.488181 0
v 0.1827416 1.023918 0
v 0.2452416 0.9614177 0
v 0.437499 0 -2.384186E-07
v 0.437499 0 0.1249998
v 0.2467918 0.6447642 0
v 0.4342918 0.3947642 -2.384186E-07
v -0.1827426 1.023918 0.125
v -0.1863723 3.488181 0.125
v -0.4281654 3.842142 0.125
v -0.2959929 3.770181 0.125
v -0.2452426 0.9614177 0.125
v -0.4342928 0.3947642 0.125
v -0.2467928 0.6447642 0.125
v -0.1827426 1.023918 2.875
v -0.1863723 3.488181 2.875
v -0.125 1 2.875
v -0.125 1 0.125
v -0.125 3.5 0.125
v -0.125 3.5 2.875
v -0.4281654 3.842142 2.875
v -0.375 3.875 2.875
v -0.375 3.875 0.125
v -0.2959929 3.770181 2.875
v -0.25 3.8125 2.875
v -0.25 3.8125 0.125
v -0.1875 0.9375 0.125
v -0.1875 0.9375 2.875
v -0.2452426 0.9614177 2.875
v -0.4342928 0.3947642 2.875
v -0.2467928 0.6447642 2.875
v -0.1875 0.625 2.875
v -0.1875 0.625 0.125
v -0.375 0.375 0.125
v -0.375 0.375 2.875
v 0.1827424 1.023918 2.875
v 0.1863723 3.488181 2.875
v 0.4281657 3.842142 2.875
v 0.2959926 3.770181 2.875
v 0.2452424 0.9614177 2.875
v 0.4342928 0.3947642 2.875
v 0.2467928 0.6447642 2.875
v 0.1827416 1.023918 0.125
v 0.1863713 3.488181 0.125
v 0.124999 1 0.125
v 0.125 1 2.875
v 0.125 3.5 2.875
v 0.124999 3.5 0.125
v 0.4281647 3.842142 0.1249998
v 0.374999 3.875 0.125
v 0.375 3.875 2.875
v 0.2959919 3.770181 0.125
v 0.249999 3.8125 0.125
v 0.25 3.8125 2.875
v 0.1875 0.9375 2.875
v 0.187499 0.9375 0.125
v 0.4342918 0.3947642 0.1249998
v 0.2467918 0.6447642 0.125
v 0.2452416 0.9614177 0.125
v 0.187499 0.625 0.125
v 0.1875 0.625 2.875
v 0.375 0.375 2.875
v 0.374999 0.375 0.125

vt -0.962396 -0.8438776
vt -0.9467463 -0.8438776
vt -0.9467464 -0.530885
vt -0.9623959 -0.530885
vt -0.9467465 -0.4682866
vt -0.962396 -0.4682866
vt -0.9780457 -0.530885
vt -0.9780458 -0.8438776
vt -0.9780458 -0.4682866
vt -0.9936953 -0.491761
vt -0.9936903 -0.4682866
vt -0.931102 -0.4682866
vt -0.9310969 -0.491761
vt -1.009345 -0.4839361
vt -1.009345 -0.4682866
vt -0.9154471 -0.4682866
vt -0.9154471 -0.4839361
vt -0.962396 -0.9690748
vt -0.9467464 -0.9690748
vt -0.9467463 -0.890827
vt -0.9623959 -0.890827
vt -0.9780457 -0.890827
vt -0.9780458 -0.9690748
vt -0.9858705 -0.890827
vt -0.9858706 -0.9690748
vt -0.9858705 -0.8517025
vt -0.9389217 -0.890827
vt -0.9389216 -0.8517025
vt -0.9389216 -0.9690748
vt -1.009345 -0.9690748
vt -1.009345 -0.9221261
vt -0.9154471 -0.9221261
vt -0.915447 -0.9690748
vt -0.867862 -0.9678476
vt -0.8522125 -0.9678476
vt -0.8522125 -0.9521978
vt -0.867862 -0.9521978
vt -0.906087 -0.9500304
vt -0.8904374 -0.9656799
vt -0.8904375 -0.9500304
vt -0.9060872 -0.9656799
vt -0.8835065 -0.9678476
vt -0.8835065 -0.9521978
vt -0.8991615 -0.9678476
vt -0.8991614 -0.9521978
vt -0.8826124 -0.9656799
vt -0.8826125 -0.9500304
vt -0.8591381 -0.9656799
vt -0.8591381 -0.9500304
vt -0.8522125 -0.6079057
vt -0.867862 -0.6079057
vt -0.8522125 -0.5922561
vt -0.8678621 -0.5922561
vt -0.9060871 -0.605738
vt -0.8904374 -0.605738
vt -0.9060872 -0.5900884
vt -0.8904374 -0.5900884
vt -0.8835065 -0.6079057
vt -0.8835065 -0.5922561
vt -0.8991614 -0.6079057
vt -0.8991614 -0.5922561
vt -0.8826124 -0.605738
vt -0.8826125 -0.5900884
vt -0.8591381 -0.605738
vt -0.8591381 -0.5900884
vt -0.985275 -0.8408836
vt -0.9857292 -0.5323644
vt -0.9994535 -0.4970592
vt -0.9930997 -0.8487082
vt -0.8513132 -0.9500304
vt -0.8513133 -0.9656799
vt -0.9932938 -0.8883525
vt -1.016768 -0.9196516
vt -1.01717 -0.9690748
vt -1.016001 -0.4880498
vt -1.01717 -0.4682866
vt -0.9069862 -0.9678476
vt -0.9069862 -0.9521978
vt -0.9076222 -0.4682866
vt -0.9087908 -0.4880498
vt -0.9069862 -0.6079057
vt -0.9069862 -0.5922561
vt -0.9253386 -0.4970592
vt -0.9390627 -0.5323644
vt -0.9395173 -0.8408836
vt -0.9316925 -0.8487082
vt -0.8513134 -0.5900884
vt -0.8513133 -0.605738
vt -0.9314983 -0.8883525
vt -0.9080237 -0.9196516
vt -0.9076221 -0.9690748
vt 0.03095475 0.2654848
vt 0.001119818 0.2654424
vt 0.0002824655 0.8536121
vt 0.03011739 0.8536546
vt 0.03206168 0.9623225
vt 0.002278702 0.9605614
vt 5.077409E-05 0.9982389
vt 0.02983374 1
vt 0.03010283 0.8592964
vt 0.0002692634 0.8595876
vt 0.0009740402 0.9317983
vt 0.03080761 0.9315071
vt 0.03080752 0.9421099
vt 0.002244886 0.9790493
vt 0.03206165 0.9780076
vt 0.000990742 0.9431516
vt 0.001134287 0.232971
vt 0.001134287 0.2540676
vt 0.0309693 0.232971
vt 0.0309693 0.2540676
vt 0.02983399 1.138113E-07
vt 0 0.0002423044
vt 0.0007650399 0.09446456
vt 0.03059904 0.09422226
vt 0.03059929 0.1688096
vt 0.0007646842 0.1689556
vt 0.001134656 0.2445344
vt 0.03096926 0.2443884
vt 0.03059928 0.08478752
vt 0.0007642859 0.08478752
vt 0.0007642859 0.159375
vt 0.03059928 0.159375
vt 0.7447519 0.2654424
vt 0.7149169 0.2654848
vt 0.7157542 0.8536546
vt 0.7455891 0.8536121
vt 0.7011204 0.2597762
vt 0.0447512 0.2597762
vt 0.0447512 0.8564755
vt 0.7011204 0.8564755
vt 0.7435929 0.9605614
vt 0.71381 0.9623225
vt 0.7160379 1
vt 0.7458208 0.9982389
vt 0.7011204 0.970165
vt 0.04475123 0.970165
vt 0.04475123 1
vt 0.7011204 1
vt 0.7456023 0.8595876
vt 0.7157688 0.8592964
vt 0.7448976 0.9317983
vt 0.715064 0.9315071
vt 0.7011204 0.9368085
vt 0.04475123 0.9368085
vt 0.7436268 0.9790493
vt 0.7448809 0.9431516
vt 0.715064 0.9421099
vt 0.71381 0.9780077
vt 0.04475122 0.2386798
vt 0.7011204 0.2386797
vt 0.7149025 0.232971
vt 0.7149023 0.2540676
vt 0.7447374 0.2540676
vt 0.7447374 0.2329711
vt 0.7458717 0.0002423044
vt 0.7160377 1.138113E-07
vt 0.7152726 0.09422226
vt 0.7451066 0.09446456
vt 0.7451069 0.1689556
vt 0.7152724 0.1688096
vt 0.7149024 0.2443884
vt 0.744737 0.2445344
vt 0.7011204 0.1640923
vt 0.04475123 0.1640923
vt 0.7451073 0.08478752
vt 0.7152724 0.08478752
vt 0.7451073 0.159375
vt 0.7152724 0.159375
vt 0.04475122 0.08950489
vt 0.04475123 0
vt 0.7011204 0.08950489
vt 0.7011204 0

vn 0 0 1
vn 0 0 -1
vn 0 1 0
vn 0 -1 0
vn -0.9999989 -0.001472927 0
vn -0.9982563 -0.0590295 0
vn -0.9320561 -0.3623141 0
vn -0.478171 -0.8782668 0
vn -0.7071065 0.7071071 0
vn -0.999967 0.008124092 0
vn -0.999988 0.004895506 0
vn -0.8 0.6 0
vn -1 0 0
vn -0.4472136 -0.8944272 0
vn 0.9999989 -0.001472976 -9.536733E-07
vn 0.9982563 -0.059028 0
vn 0.9320563 -0.3623134 0
vn 0.4781697 -0.8782675 0
vn 0.7071065 0.7071071 -1.348699E-06
vn 0.999967 0.008124092 0
vn 0.999988 0.004895883 -9.536629E-07
vn 0.8 0.6 0
vn 1 0 -3.467907E-07
vn 0.4472136 -0.8944272 -1.550895E-07
vn -0.9284767 -0.3713907 0
vn 0.9284767 -0.3713907 -3.21987E-07

g Gen_Wall_snaps002_0
usemtl Gray_snaps002
f 13/10/2 11/9/2 7/7/2
f 13/10/2 14/11/2 11/9/2
f 37/32/1 34/29/1 32/27/1
f 37/32/1 38/33/1 34/29/1
f 83/10/1 82/9/1 80/7/1
f 83/10/1 84/11/1 82/9/1
f 103/32/2 100/29/2 98/27/2
f 103/32/2 104/33/2 100/29/2
f 3/3/1 2/2/1 1/1/1
f 1/1/1 4/4/1 3/3/1
f 5/5/1 3/3/1 4/4/1
f 4/4/1 6/6/1 5/5/1
f 7/7/2 9/4/2 8/1/2
f 8/1/2 10/8/2 7/7/2
f 11/9/2 12/6/2 9/4/2
f 9/4/2 7/7/2 11/9/2
f 16/13/1 3/3/1 5/5/1
f 5/5/1 15/12/1 16/13/1
f 18/15/2 14/11/2 13/10/2
f 13/10/2 17/14/2 18/15/2
f 20/17/1 16/13/1 15/12/1
f 15/12/1 19/16/1 20/17/1
f 23/20/1 22/19/1 21/18/1
f 21/18/1 24/21/1 23/20/1
f 2/2/1 23/20/1 24/21/1
f 24/21/1 1/1/1 2/2/1
f 25/22/2 27/21/2 26/18/2
f 26/18/2 28/23/2 25/22/2
f 10/8/2 8/1/2 27/21/2
f 27/21/2 25/22/2 10/8/2
f 29/24/2 25/22/2 28/23/2
f 28/23/2 30/25/2 29/24/2
f 31/26/2 10/8/2 25/22/2
f 25/22/2 29/24/2 31/26/2
f 33/28/1 32/27/1 23/20/1
f 23/20/1 2/2/1 33/28/1
f 32/27/1 34/29/1 22/19/1
f 22/19/1 23/20/1 32/27/1
f 36/31/2 29/24/2 30/25/2
f 30/25/2 35/30/2 36/31/2
f 39/36/3 12/35/3 11/34/3
f 11/34/3 40/37/3 39/36/3
f 41/38/4 42/40/4 28/39/4
f 28/39/4 26/41/4 41/38/4
f 40/37/3 11/34/3 14/42/3
f 14/42/3 43/43/3 40/37/3
f 43/43/3 14/42/3 18/44/3
f 18/44/3 44/45/3 43/43/3
f 42/40/4 45/47/4 30/46/4
f 30/46/4 28/39/4 42/40/4
f 45/47/4 46/49/4 35/48/4
f 35/48/4 30/46/4 45/47/4
f 47/50/3 39/36/3 40/37/3
f 40/37/3 48/51/3 47/50/3
f 6/52/3 47/50/3 48/51/3
f 48/51/3 5/53/3 6/52/3
f 21/56/4 22/57/4 50/55/4
f 50/55/4 49/54/4 21/56/4
f 48/51/3 40/37/3 43/43/3
f 43/43/3 51/58/3 48/51/3
f 5/53/3 48/51/3 51/58/3
f 51/58/3 15/59/3 5/53/3
f 51/58/3 43/43/3 44/45/3
f 44/45/3 52/60/3 51/58/3
f 15/59/3 51/58/3 52/60/3
f 52/60/3 19/61/3 15/59/3
f 22/57/4 34/63/4 53/62/4
f 53/62/4 50/55/4 22/57/4
f 34/63/4 38/65/4 54/64/4
f 54/64/4 53/62/4 34/63/4
f 56/67/2 7/7/2 10/8/2
f 10/8/2 55/66/2 56/67/2
f 57/68/2 13/10/2 7/7/2
f 7/7/2 56/67/2 57/68/2
f 55/66/2 10/8/2 31/26/2
f 31/26/2 58/69/2 55/66/2
f 60/71/4 35/48/4 46/49/4
f 46/49/4 59/70/4 60/71/4
f 58/69/2 31/26/2 29/24/2
f 29/24/2 61/72/2 58/69/2
f 61/72/2 29/24/2 36/31/2
f 36/31/2 62/73/2 61/72/2
f 62/73/2 36/31/2 35/30/2
f 35/30/2 60/74/2 62/73/2
f 63/75/2 17/14/2 13/10/2
f 13/10/2 57/68/2 63/75/2
f 64/76/2 18/15/2 17/14/2
f 17/14/2 63/75/2 64/76/2
f 65/78/3 44/45/3 18/44/3
f 18/44/3 64/77/3 65/78/3
f 67/80/1 20/17/1 19/16/1
f 19/16/1 66/79/1 67/80/1
f 66/82/3 19/61/3 52/60/3
f 52/60/3 68/81/3 66/82/3
f 69/83/1 16/13/1 20/17/1
f 20/17/1 67/80/1 69/83/1
f 70/84/1 3/3/1 16/13/1
f 16/13/1 69/83/1 70/84/1
f 71/85/1 2/2/1 3/3/1
f 3/3/1 70/84/1 71/85/1
f 72/86/1 33/28/1 2/2/1
f 2/2/1 71/85/1 72/86/1
f 74/88/4 54/64/4 38/65/4
f 38/65/4 73/87/4 74/88/4
f 75/89/1 32/27/1 33/28/1
f 33/28/1 72/86/1 75/89/1
f 76/90/1 37/32/1 32/27/1
f 32/27/1 75/89/1 76/90/1
f 73/91/1 38/33/1 37/32/1
f 37/32/1 76/90/1 73/91/1
f 78/3/2 77/2/2 8/1/2
f 8/1/2 9/4/2 78/3/2
f 79/5/2 78/3/2 9/4/2
f 9/4/2 12/6/2 79/5/2
f 80/7/1 4/4/1 1/1/1
f 1/1/1 81/8/1 80/7/1
f 82/9/1 6/6/1 4/4/1
f 4/4/1 80/7/1 82/9/1
f 86/13/2 78/3/2 79/5/2
f 79/5/2 85/12/2 86/13/2
f 88/15/1 84/11/1 83/10/1
f 83/10/1 87/14/1 88/15/1
f 90/17/2 86/13/2 85/12/2
f 85/12/2 89/16/2 90/17/2
f 92/20/2 91/19/2 26/18/2
f 26/18/2 27/21/2 92/20/2
f 77/2/2 92/20/2 27/21/2
f 27/21/2 8/1/2 77/2/2
f 93/22/1 24/21/1 21/18/1
f 21/18/1 94/23/1 93/22/1
f 81/8/1 1/1/1 24/21/1
f 24/21/1 93/22/1 81/8/1
f 95/24/1 93/22/1 94/23/1
f 94/23/1 96/25/1 95/24/1
f 97/26/1 81/8/1 93/22/1
f 93/22/1 95/24/1 97/26/1
f 99/28/2 98/27/2 92/20/2
f 92/20/2 77/2/2 99/28/2
f 98/27/2 100/29/2 91/19/2
f 91/19/2 92/20/2 98/27/2
f 102/31/1 95/24/1 96/25/1
f 96/25/1 101/30/1 102/31/1
f 47/36/3 6/35/3 82/34/3
f 82/34/3 105/37/3 47/36/3
f 49/38/4 106/40/4 94/39/4
f 94/39/4 21/41/4 49/38/4
f 105/37/3 82/34/3 84/42/3
f 84/42/3 107/43/3 105/37/3
f 107/43/3 84/42/3 88/44/3
f 88/44/3 108/45/3 107/43/3
f 106/40/4 109/47/4 96/46/4
f 96/46/4 94/39/4 106/40/4
f 109/47/4 110/49/4 101/48/4
f 101/48/4 96/46/4 109/47/4
f 39/50/3 47/36/3 105/37/3
f 105/37/3 111/51/3 39/50/3
f 12/52/3 39/50/3 111/51/3
f 111/51/3 79/53/3 12/52/3
f 26/56/4 91/57/4 112/55/4
f 112/55/4 41/54/4 26/56/4
f 111/51/3 105/37/3 107/43/3
f 107/43/3 113/58/3 111/51/3
f 79/53/3 111/51/3 113/58/3
f 113/58/3 85/59/3 79/53/3
f 113/58/3 107/43/3 108/45/3
f 108/45/3 114/60/3 113/58/3
f 85/59/3 113/58/3 114/60/3
f 114/60/3 89/61/3 85/59/3
f 91/57/4 100/63/4 115/62/4
f 115/62/4 112/55/4 91/57/4
f 100/63/4 104/65/4 116/64/4
f 116/64/4 115/62/4 100/63/4
f 118/67/1 80/7/1 81/8/1
f 81/8/1 117/66/1 118/67/1
f 119/68/1 83/10/1 80/7/1
f 80/7/1 118/67/1 119/68/1
f 117/66/1 81/8/1 97/26/1
f 97/26/1 120/69/1 117/66/1
f 122/71/4 101/48/4 110/49/4
f 110/49/4 121/70/4 122/71/4
f 120/69/1 97/26/1 95/24/1
f 95/24/1 123/72/1 120/69/1
f 123/72/1 95/24/1 102/31/1
f 102/31/1 124/73/1 123/72/1
f 124/73/1 102/31/1 101/30/1
f 101/30/1 122/74/1 124/73/1
f 125/75/1 87/14/1 83/10/1
f 83/10/1 119/68/1 125/75/1
f 126/76/1 88/15/1 87/14/1
f 87/14/1 125/75/1 126/76/1
f 127/78/3 108/45/3 88/44/3
f 88/44/3 126/77/3 127/78/3
f 129/80/2 90/17/2 89/16/2
f 89/16/2 128/79/2 129/80/2
f 128/82/3 89/61/3 114/60/3
f 114/60/3 130/81/3 128/82/3
f 131/83/2 86/13/2 90/17/2
f 90/17/2 129/80/2 131/83/2
f 132/84/2 78/3/2 86/13/2
f 86/13/2 131/83/2 132/84/2
f 133/85/2 77/2/2 78/3/2
f 78/3/2 132/84/2 133/85/2
f 134/86/2 99/28/2 77/2/2
f 77/2/2 133/85/2 134/86/2
f 136/88/4 116/64/4 104/65/4
f 104/65/4 135/87/4 136/88/4
f 137/89/2 98/27/2 99/28/2
f 99/28/2 134/86/2 137/89/2
f 138/90/2 103/32/2 98/27/2
f 98/27/2 137/89/2 138/90/2
f 135/91/2 104/33/2 103/32/2
f 103/32/2 138/90/2 135/91/2
f 56/94/5 55/93/5 139/92/5
f 139/92/5 140/95/5 56/94/5
f 64/98/6 63/97/6 141/96/6
f 141/96/6 65/99/6 64/98/6
f 57/102/7 56/101/7 140/100/7
f 140/100/7 142/103/7 57/102/7
f 142/104/8 141/106/8 63/105/8
f 63/105/8 57/107/8 142/104/8
f 139/111/9 55/109/9 58/108/9
f 58/108/9 143/110/9 139/111/9
f 62/114/10 60/113/10 59/112/10
f 59/112/10 144/115/10 62/114/10
f 58/118/11 61/117/11 145/116/11
f 145/116/11 143/119/11 58/118/11
f 61/122/12 62/121/12 144/120/12
f 144/120/12 145/123/12 61/122/12
f 147/126/5 146/125/5 71/124/5
f 71/124/5 70/127/5 147/126/5
f 150/130/13 149/129/13 148/128/13
f 148/128/13 151/131/13 150/130/13
f 68/134/6 152/133/6 67/132/6
f 67/132/6 66/135/6 68/134/6
f 44/138/13 154/137/13 153/136/13
f 153/136/13 52/139/13 44/138/13
f 155/143/7 147/141/7 70/140/7
f 70/140/7 69/142/7 155/143/7
f 157/145/14 156/144/14 153/136/14
f 153/136/14 154/137/14 157/145/14
f 155/148/8 69/147/8 67/146/8
f 67/146/8 152/149/8 155/148/8
f 148/128/9 149/129/9 158/150/9
f 158/150/9 159/151/9 148/128/9
f 71/154/9 146/153/9 160/152/9
f 160/152/9 72/155/9 71/154/9
f 161/158/10 74/157/10 73/156/10
f 73/156/10 76/159/10 161/158/10
f 160/162/11 162/161/11 75/160/11
f 75/160/11 72/163/11 160/162/11
f 158/150/13 164/165/13 163/164/13
f 163/164/13 159/151/13 158/150/13
f 162/169/12 161/167/12 76/166/12
f 76/166/12 75/168/12 162/169/12
f 143/110/1 158/150/1 149/129/1
f 149/129/1 139/111/1 143/110/1
f 139/92/1 149/129/1 150/130/1
f 150/130/1 140/95/1 139/92/1
f 140/100/1 150/130/1 157/145/1
f 157/145/1 142/103/1 140/100/1
f 145/116/1 164/165/1 158/150/1
f 158/150/1 143/119/1 145/116/1
f 144/120/1 165/170/1 164/165/1
f 164/165/1 145/123/1 144/120/1
f 59/112/1 46/171/1 165/170/1
f 165/170/1 144/115/1 59/112/1
f 142/104/1 157/145/1 154/137/1
f 154/137/1 141/106/1 142/104/1
f 141/96/1 154/137/1 44/138/1
f 44/138/1 65/99/1 141/96/1
f 146/153/2 148/128/2 159/151/2
f 159/151/2 160/152/2 146/153/2
f 68/134/2 52/139/2 153/136/2
f 153/136/2 152/133/2 68/134/2
f 152/149/2 153/136/2 156/144/2
f 156/144/2 155/148/2 152/149/2
f 155/143/2 156/144/2 151/131/2
f 151/131/2 147/141/2 155/143/2
f 147/126/2 151/131/2 148/128/2
f 148/128/2 146/125/2 147/126/2
f 160/162/2 159/151/2 163/164/2
f 163/164/2 162/161/2 160/162/2
f 162/169/2 163/164/2 166/172/2
f 166/172/2 161/167/2 162/169/2
f 161/158/2 166/172/2 54/173/2
f 54/173/2 74/157/2 161/158/2
f 118/94/15 117/93/15 167/92/15
f 167/92/15 168/95/15 118/94/15
f 126/98/16 125/97/16 169/96/16
f 169/96/16 127/99/16 126/98/16
f 119/102/17 118/101/17 168/100/17
f 168/100/17 170/103/17 119/102/17
f 170/104/18 169/106/18 125/105/18
f 125/105/18 119/107/18 170/104/18
f 167/111/19 117/109/19 120/108/19
f 120/108/19 171/110/19 167/111/19
f 124/114/20 122/113/20 121/112/20
f 121/112/20 172/115/20 124/114/20
f 120/118/21 123/117/21 173/116/21
f 173/116/21 171/119/21 120/118/21
f 123/122/22 124/121/22 172/120/22
f 172/120/22 173/123/22 123/122/22
f 175/126/15 174/125/15 133/124/15
f 133/124/15 132/127/15 175/126/15
f 178/130/23 177/129/23 176/128/23
f 176/128/23 179/131/23 178/130/23
f 130/134/16 180/133/16 129/132/16
f 129/132/16 128/135/16 130/134/16
f 108/138/23 182/137/23 181/136/23
f 181/136/23 114/139/23 108/138/23
f 183/143/17 175/141/17 132/140/17
f 132/140/17 131/142/17 183/143/17
f 185/145/24 184/144/24 181/136/24
f 181/136/24 182/137/24 185/145/24
f 183/148/18 131/147/18 129/146/18
f 129/146/18 180/149/18 183/148/18
f 176/128/19 177/129/19 186/150/19
f 186/150/19 187/151/19 176/128/19
f 188/158/20 136/157/20 135/156/20
f 135/156/20 138/159/20 188/158/20
f 190/162/21 189/161/21 137/160/21
f 137/160/21 134/163/21 190/162/21
f 186/150/23 192/165/23 191/164/23
f 191/164/23 187/151/23 186/150/23
f 189/169/22 188/167/22 138/166/22
f 138/166/22 137/168/22 189/169/22
f 171/110/2 186/150/2 177/129/2
f 177/129/2 167/111/2 171/110/2
f 167/92/2 177/129/2 178/130/2
f 178/130/2 168/95/2 167/92/2
f 168/100/2 178/130/2 185/145/2
f 185/145/2 170/103/2 168/100/2
f 173/116/2 192/165/2 186/150/2
f 186/150/2 171/119/2 173/116/2
f 172/120/2 193/170/2 192/165/2
f 192/165/2 173/123/2 172/120/2
f 121/112/2 110/171/2 193/170/2
f 193/170/2 172/115/2 121/112/2
f 170/104/2 185/145/2 182/137/2
f 182/137/2 169/106/2 170/104/2
f 169/96/2 182/137/2 108/138/2
f 108/138/2 127/99/2 169/96/2
f 174/153/1 176/128/1 187/151/1
f 187/151/1 190/152/1 174/153/1
f 130/134/1 114/139/1 181/136/1
f 181/136/1 180/133/1 130/134/1
f 180/149/1 181/136/1 184/144/1
f 184/144/1 183/148/1 180/149/1
f 183/143/1 184/144/1 179/131/1
f 179/131/1 175/141/1 183/143/1
f 175/126/1 179/131/1 176/128/1
f 176/128/1 174/125/1 175/126/1
f 190/162/1 187/151/1 191/164/1
f 191/164/1 189/161/1 190/162/1
f 189/169/1 191/164/1 194/172/1
f 194/172/1 188/167/1 189/169/1
f 188/158/1 194/172/1 116/173/1
f 116/173/1 136/157/1 188/158/1
f 157/145/25 150/130/25 151/131/25
f 151/131/25 156/144/25 157/145/25
f 185/145/26 178/130/26 179/131/26
f 179/131/26 184/144/26 185/145/26
f 133/154/19 174/153/19 190/152/19
f 190/152/19 134/155/19 133/154/19

g Gen_Wall_snaps002_1
usemtl DarkGray_snaps002
f 41/38/4 49/54/4 50/55/4 42/40/4
f 42/40/4 50/55/4 53/62/4 45/47/4
f 45/47/4 53/62/4 54/64/4 46/49/4
f 49/38/4 41/54/4 112/55/4 106/40/4
f 106/40/4 112/55/4 115/62/4 109/47/4
f 109/47/4 115/62/4 116/64/4 110/49/4
f 166/172/13 165/170/13 46/171/13 54/173/13
f 163/164/12 164/165/12 165/170/12 166/172/12
f 194/172/23 193/170/23 110/171/23 116/173/23
f 191/164/22 192/165/22 193/170/22 194/172/22

