# ProBuilder 4.0.5
# https://unity3d.com/unity/features/worldbuilding/probuilder
# 10/9/2019 11:14:01 PM

mtllib ./wallPre.mtl
o wallPre

g Hale_Wall_02_snaps002
v 0.5 1.5 3
v 0 0 3
v 0 1.5 3
v 0.5 0 3
v 0 0 0
v 0.5 0 0
v 0.5 1.5 0
v 0 1.5 0
v 0.5 6 3
v 0 5.375 3
v 0 6 3
v 0.5 5.375 3
v 0 5.375 0
v 0.5 5.375 0
v 0.5 6 0
v 0 6 0
v 0.25 4.875 3
v 0 3 3
v 0 4.875 3
v 0.25 3 3
v 0 3 0
v 0.25 3 0
v 0.25 4.875 0
v 0 4.875 0
v 0.25 2 3
v 0 2 3
v 0.25 2 0
v 0 2 0
v 0 6 1.5
v 0.375 6 0.5
v 0.375 6 1.5
v 0 6 0.5
v 0.375 0 0.5
v 0 0 0.5
v 0 0 1.5
v 0.375 0 1.5
v 0 6 2.5
v 0.375 6 2.5
v 0 0 2.5
v 0.375 0 2.5
v 0 6 2.75
v 0.5 6 2.75
v 0.5 0 2.75
v 0 0 2.75
v 0 6 0.25
v 0.5 6 0.25
v 0.5 0 0.25
v 0 0 0.25
v -0.5 0 3
v -0.5 1.5 3
v -0.5 1.5 0
v -0.5 0 0
v -0.5 5.375 3
v -0.5 6 3
v -0.5 6 0
v -0.5 5.375 0
v -0.25 3 3
v -0.25 4.875 3
v -0.25 4.875 0
v -0.25 3 0
v -0.25 2 3
v -0.25 2 0
v -0.375 6 0.5
v -0.375 6 1.5
v -0.375 0 0.5
v -0.375 0 1.5
v -0.375 6 2.5
v -0.375 0 2.5
v -0.5 6 2.75
v -0.5 0 2.75
v -0.5 6 0.25
v -0.5 0 0.25
v 0.375 1.5 0.5
v 0.375 1.5 1.5
v 0.375 5.375 1.5
v 0.375 5.375 0.5
v 0.125 4.875 1.5
v 0.125 4.875 0.5
v 0.125 2 0.5
v 0.125 2 1.5
v 0.375 1.5 2.5
v 0.375 5.375 2.5
v 0.125 4.875 2.5
v 0.125 2 2.5
v 0.5 1.5 2.75
v 0.5 5.375 2.75
v 0.25 4.875 2.75
v 0.25 2 2.75
v 0.5 1.5 0.25
v 0.5 5.375 0.25
v 0.25 4.875 0.25
v 0.25 3 0.25
v 0.125 3 0.5
v 0.25 2 0.25
v -0.375 1.5 0.5
v -0.375 1.5 1.5
v -0.375 5.375 1.5
v -0.375 5.375 0.5
v -0.125 4.875 1.5
v -0.125 4.875 0.5
v -0.125 2 0.5
v -0.125 2 1.5
v -0.375 1.5 2.5
v -0.375 5.375 2.5
v -0.125 4.875 2.5
v -0.125 2 2.5
v -0.5 1.5 2.75
v -0.5 5.375 2.75
v -0.25 4.875 2.75
v -0.25 2 2.75
v -0.5 1.5 0.25
v -0.5 5.375 0.25
v -0.25 4.875 0.25
v -0.25 2 0.25
v 0.125 3 1.5
v 0.125 3 2.5
v 0.25 3 2.75
v -0.125 3 1.5
v -0.125 3 0.5
v -0.125 3 2.5
v -0.25 3 2.75
v -0.25 3 0.25

vt -0.108132 -0.7020532
vt -0.1296164 -0.7665063
vt -0.1296164 -0.7020532
vt -0.108132 -0.7665063
vt -0.1511008 -0.7665063
vt -0.1511008 -0.7020532
vt -0.108132 -0.5086938
vt -0.1296164 -0.5355493
vt -0.1296164 -0.5086938
vt -0.108132 -0.5355493
vt -0.1511008 -0.5355493
vt -0.1511008 -0.5086938
vt -0.1188742 -0.5570337
vt -0.1296164 -0.6376001
vt -0.1296164 -0.5570337
vt -0.1188742 -0.6376001
vt -0.1403586 -0.6376001
vt -0.1403586 -0.5570337
vt -0.1188742 -0.6805688
vt -0.1296164 -0.6805688
vt -0.1403586 -0.6805688
vt 0 -1.5
vt -0.3519287 -0.7025626
vt -0.3903401 -0.7025626
vt -0.3903401 -0.5873283
vt -0.3519287 -0.5873283
vt -0.3135172 -0.5873283
vt -0.3135172 -0.7025626
vt -0.3519287 -0.2896395
vt -0.3903401 -0.2896395
vt -0.3903401 -0.2416251
vt -0.3519287 -0.2416251
vt -0.3135172 -0.2416251
vt -0.3135172 -0.2896395
vt -0.3519287 -0.4720939
vt -0.3711344 -0.4720939
vt -0.3711344 -0.3280509
vt -0.3519287 -0.3280509
vt -0.332723 -0.3280509
vt -0.332723 -0.4720939
vt -0.3711344 -0.5489168
vt -0.3519287 -0.5489168
vt -0.332723 -0.5489168
vt -0.3020834 -0.6132813
vt -0.3372396 -0.6132813
vt -0.3372396 -0.5195313
vt -0.3020834 -0.5195313
vt -0.3723959 -0.6132813
vt -0.3723959 -0.5195313
vt -0.3372396 -0.4257813
vt -0.3020834 -0.4257813
vt -0.3723959 -0.4257813
vt -0.2903646 -0.4023438
vt -0.3372396 -0.4023438
vt -0.2903646 -0.3789063
vt -0.3372396 -0.3789063
vt -0.3841146 -0.4023438
vt -0.3841146 -0.3789063
vt -0.2903646 -0.6601563
vt -0.3372396 -0.6601563
vt -0.2903646 -0.6367188
vt -0.3372396 -0.6367188
vt -0.3841146 -0.6367188
vt -0.3841146 -0.6601563
vt 0.8272607 0.4968285
vt 0.4963565 0.006343099
vt 0.4963565 0.4968285
vt 0.8272607 0.006343099
vt 0.8272609 0.9936569
vt 0.4963565 0.7892881
vt 0.4963565 0.9936569
vt 0.8272607 0.7892881
vt 0.4963565 0.6131067
vt 0.8272607 0.6131067
vt 0.8272607 0.6730098
vt 0.4963565 0.6730098
vt 0.1654522 0.006343099
vt 0.1654522 0.4968285
vt 0.1654522 0.7892881
vt 0.1654522 0.9936569
vt 0.1654522 0.6131067
vt 0.1654522 0.6730098
vt 0 0.4904854
vt 0.08272606 0.4904854
vt 0.08272612 0
vt 5.960464E-08 0
vt -5.960464E-08 1
vt 0.08272606 1
vt 0.08272612 0.7956312
vt -5.960464E-08 0.7956312
vt 0.08272606 0.6194498
vt -5.960464E-08 0.6194498
vt 0.08272612 0.6666667
vt 5.960464E-08 0.6666667
vt 0.9099867 0.4904854
vt 0.9099867 0
vt 0.9927129 0.4904854
vt 0.9927129 0
vt 0.9099867 1
vt 0.9099868 0.7956312
vt 0.992713 1
vt 0.992713 0.7956312
vt 0.9099868 0.6194498
vt 0.9099869 0.006343135
vt 0.8272609 0
vt 0.992713 0.6194498
vt 0.9927129 0.006343135
vt 0.9099868 0.6666667
vt 0.9927129 0.6666667
vt 0.4963565 0
vt 0.8272609 1
vt 0.4963565 1
vt 0.1654521 0
vt 0.1654521 1
vt 0.08272606 0.006343135
vt 0 0.006343135
vt 0.08272606 0.9936569
vt 0 0.9936569
vt 0.9099867 0.9936569
vt 0.9927129 0.9936569

vn 0 0 1
vn 0 0 -1
vn 0 1 0
vn 0 -1 0
vn 1 0 0
vn 0.8944272 -0.4472136 0
vn 0.8944272 0.4472136 0
vn 0.8944272 0 -0.4472136
vn 0.8164966 -0.4082483 -0.4082483
vn 0.8164966 0.4082483 -0.4082483
vn 0.8944272 0 0.4472136
vn 0.8164966 -0.4082483 0.4082483
vn 0.8164966 0.4082483 0.4082483
vn -1 0 0
vn -0.8944272 -0.4472136 0
vn -0.8944272 0.4472136 0
vn -0.8944272 0 -0.4472136
vn -0.8164966 -0.4082483 -0.4082483
vn -0.8164966 0.4082483 -0.4082483
vn -0.8944272 0 0.4472136
vn -0.8164966 -0.4082483 0.4082483
vn -0.8164966 0.4082483 0.4082483

g Hale_Wall_02_snaps002_0
usemtl Gray_snaps002
f 20/16/1 17/13/1 19/15/1 18/14/1
f 24/15/2 23/18/2 22/17/2 21/14/2
f 25/19/1 20/16/1 18/14/1 26/20/1
f 21/14/2 22/17/2 27/21/2 28/20/2
f 19/38/1 58/37/1 57/36/1 18/35/1
f 60/40/2 59/39/2 24/38/2 21/35/2
f 18/35/1 57/36/1 61/41/1 26/42/1
f 62/43/2 60/40/2 21/35/2 28/42/2
f 93/105/11 92/104/11 91/103/11 78/74/11
f 22/107/5 23/106/5 91/103/5 92/104/5
f 93/105/5 78/74/5 77/73/5 115/110/5
f 79/75/5 93/111/5 115/112/5 80/76/5
f 115/110/5 77/73/5 83/81/5 116/113/5
f 80/76/5 115/112/5 116/114/5 84/82/5
f 20/116/5 117/115/5 87/91/5 17/92/5
f 117/115/8 116/113/8 83/81/8 87/91/8
f 88/93/5 117/117/5 20/118/5 25/94/5
f 84/82/8 116/114/8 117/117/8 88/93/8
f 94/108/11 92/119/11 93/111/11 79/75/11
f 27/109/5 22/120/5 92/119/5 94/108/5
f 99/73/14 100/81/14 119/113/14 118/110/14
f 118/112/14 119/114/14 101/82/14 102/76/14
f 105/74/14 99/73/14 118/110/14 120/105/14
f 120/111/14 118/112/14 102/76/14 106/75/14
f 58/106/14 109/103/14 121/104/14 57/107/14
f 109/103/17 105/74/17 120/105/17 121/104/17
f 57/120/14 121/119/14 110/108/14 61/109/14
f 121/119/17 120/111/17 106/75/17 110/108/17
f 100/81/20 113/91/20 122/115/20 119/113/20
f 113/91/14 59/92/14 60/116/14 122/115/14
f 119/114/20 122/117/20 114/93/20 101/82/20
f 122/117/14 60/118/14 62/94/14 114/93/14

g Hale_Wall_02_snaps002_1
usemtl DarkRed
f 4/4/1 1/1/1 3/3/1 2/2/1
f 8/3/2 7/6/2 6/5/2 5/2/2
f 12/10/1 9/7/1 11/9/1 10/8/1
f 16/9/2 15/12/2 14/11/2 13/8/2
f 17/13/1 12/10/1 10/8/1 19/15/1
f 13/8/2 14/11/2 23/18/2 24/15/2
f 1/1/1 25/19/1 26/20/1 3/3/1
f 28/20/2 27/21/2 7/6/2 8/3/2
f 32/22/3 29/22/3 31/22/3 30/22/3
f 36/22/4 35/22/4 34/22/4 33/22/4
f 29/22/3 37/22/3 38/22/3 31/22/3
f 40/22/4 39/22/4 35/22/4 36/22/4
f 42/22/3 38/22/3 37/22/3 41/22/3
f 9/22/3 42/22/3 41/22/3 11/22/3
f 44/22/4 39/22/4 40/22/4 43/22/4
f 2/22/4 44/22/4 43/22/4 4/22/4
f 46/22/3 15/22/3 16/22/3 45/22/3
f 30/22/3 46/22/3 45/22/3 32/22/3
f 47/22/4 48/22/4 5/22/4 6/22/4
f 33/22/4 34/22/4 48/22/4 47/22/4
f 3/26/1 50/25/1 49/24/1 2/23/1
f 52/28/2 51/27/2 8/26/2 5/23/2
f 11/32/1 54/31/1 53/30/1 10/29/1
f 56/34/2 55/33/2 16/32/2 13/29/2
f 10/29/1 53/30/1 58/37/1 19/38/1
f 59/39/2 56/34/2 13/29/2 24/38/2
f 26/42/1 61/41/1 50/25/1 3/26/1
f 51/27/2 62/43/2 28/42/2 8/26/2
f 64/47/3 29/46/3 32/45/3 63/44/3
f 34/45/4 35/46/4 66/49/4 65/48/4
f 67/51/3 37/50/3 29/46/3 64/47/3
f 35/46/4 39/50/4 68/52/4 66/49/4
f 41/54/3 37/50/3 67/51/3 69/53/3
f 11/56/3 41/54/3 69/53/3 54/55/3
f 70/57/4 68/52/4 39/50/4 44/54/4
f 49/58/4 70/57/4 44/54/4 2/56/4
f 71/61/3 45/62/3 16/60/3 55/59/3
f 63/44/3 32/45/3 45/62/3 71/61/3
f 72/63/4 52/64/4 5/60/4 48/62/4
f 65/48/4 72/63/4 48/62/4 34/45/4
f 33/68/5 73/65/5 74/67/5 36/66/5
f 76/72/5 30/69/5 31/71/5 75/70/5
f 78/74/6 76/72/6 75/70/6 77/73/6
f 73/65/7 79/75/7 80/76/7 74/67/7
f 36/66/5 74/67/5 81/78/5 40/77/5
f 75/70/5 31/71/5 38/80/5 82/79/5
f 77/73/6 75/70/6 82/79/6 83/81/6
f 74/67/7 80/76/7 84/82/7 81/78/7
f 4/86/5 43/85/5 85/84/5 1/83/5
f 40/77/8 81/78/8 85/84/8 43/85/8
f 12/90/5 86/89/5 42/88/5 9/87/5
f 82/79/8 38/80/8 42/88/8 86/89/8
f 12/90/6 17/92/6 87/91/6 86/89/6
f 86/89/9 87/91/9 83/81/9 82/79/9
f 25/94/7 1/83/7 85/84/7 88/93/7
f 88/93/10 85/84/10 81/78/10 84/82/10
f 47/96/11 89/95/11 73/65/11 33/68/11
f 47/96/5 6/98/5 7/97/5 89/95/5
f 76/72/11 90/100/11 46/99/11 30/69/11
f 90/100/5 14/102/5 15/101/5 46/99/5
f 76/72/12 78/74/12 91/103/12 90/100/12
f 90/100/6 91/103/6 23/106/6 14/102/6
f 79/75/13 73/65/13 89/95/13 94/108/13
f 94/108/7 89/95/7 7/97/7 27/109/7
f 96/67/14 95/78/14 65/77/14 66/66/14
f 64/71/14 63/80/14 98/79/14 97/70/14
f 97/70/15 98/79/15 100/81/15 99/73/15
f 102/76/16 101/82/16 95/78/16 96/67/16
f 103/65/14 96/67/14 66/66/14 68/68/14
f 67/69/14 64/71/14 97/70/14 104/72/14
f 104/72/15 97/70/15 99/73/15 105/74/15
f 106/75/16 102/76/16 96/67/16 103/65/16
f 50/97/14 107/95/14 70/96/14 49/98/14
f 107/95/17 103/65/17 68/68/17 70/96/17
f 54/101/14 69/99/14 108/100/14 53/102/14
f 69/99/17 67/69/17 104/72/17 108/100/17
f 108/100/15 109/103/15 58/106/15 53/102/15
f 104/72/18 105/74/18 109/103/18 108/100/18
f 61/109/16 110/108/16 107/95/16 50/97/16
f 110/108/19 106/75/19 103/65/19 107/95/19
f 95/78/20 111/84/20 72/85/20 65/77/20
f 111/84/14 51/83/14 52/86/14 72/85/14
f 63/80/20 71/88/20 112/89/20 98/79/20
f 71/88/14 55/87/14 56/90/14 112/89/14
f 98/79/21 112/89/21 113/91/21 100/81/21
f 112/89/15 56/90/15 59/92/15 113/91/15
f 114/93/22 111/84/22 95/78/22 101/82/22
f 62/94/16 51/83/16 111/84/16 114/93/16

