# ProBuilder 4.0.5
# https://unity3d.com/unity/features/worldbuilding/probuilder
# 9/30/2019 10:17:36 AM

mtllib ./ceiling.mtl
o ceiling

g Deck_Ceiling_01_snaps002
v 10.17065 12.125 21.10453
v 10.07962 12.125 21.03813
v 10.02114 12.125 20.94182
v 12.10642 12.125 21.18634
v 10.10295 12.125 19.00605
v 12.26913 12.125 21.03683
v 12.20273 12.125 21.12786
v 12.35226 12.125 19.06984
v 12.26256 12.125 18.97221
v 10.16935 12.125 18.91502
v 10.26566 12.125 18.85654
v 12.13899 12.125 18.93571
v 10.09237 12 21.47657
v 9.624037 12 21.45676
v 9.624037 12.125 21.45676
v 10.09237 12.125 21.47657
v 9.64383 12 20.98843
v 9.64383 12.125 20.98843
v 12.15303 12 21.56366
v 12.15303 12.125 21.56366
v 9.730924 12 18.92777
v 9.730924 12.125 18.92777
v 12.64116 12 21.11511
v 12.62136 12 21.58344
v 12.62136 12.125 21.58344
v 12.64116 12.125 21.11511
v 12.73089 12 18.99201
v 12.73089 12.125 18.99201
v 12.74799 12 18.58732
v 12.74799 12.125 18.58732
v 9.750717 12 18.45944
v 9.750717 12.125 18.45944
v 10.21905 12 18.47922
v 10.21905 12.125 18.47922
v 12.18604 12 18.56236
v 12.18604 12.125 18.56236
v 10.17824 12.125 19.07674
v 12.18667 12.125 19.04527
v 12.07175 12.125 19.01133
v 10.32955 12.125 18.93769
v 10.23999 12.125 18.99208
v 12.04146 12.125 21.10441
v 12.2701 12.125 19.13606
v 12.19278 12.125 20.96537
v 12.13103 12.125 21.05002
v 10.10215 12.125 20.87701
v 10.24119 12.125 21.02833
v 10.15654 12.125 20.96657
v 12.10642 12 21.18634
v 10.17065 12 21.10453
v 10.07962 12 21.03813
v 10.02113 12 20.94182
v 10.10295 12 19.00605
v 10.16935 12 18.91502
v 10.26566 12 18.85654
v 12.13899 12 18.93571
v 12.26256 12 18.97221
v 12.35226 12 19.06984
v 12.26913 12 21.03683
v 12.20273 12 21.12786

vt -0.9225703 -0.8013785
vt -0.9069453 -0.8117952
vt -0.8965287 -0.8274202
vt -1.245487 -0.8013786
vt -0.8965288 -1.150337
vt -1.271529 -0.8274202
vt -1.261112 -0.8117952
vt -1.271529 -1.155545
vt -1.255904 -1.17117
vt -0.9069455 -1.165962
vt -0.9225705 -1.176378
vt -1.23507 -1.176378
vt -1.755904 -1.238878
vt -1.834029 -1.238878
vt -1.834029 -1.218045
vt -1.755904 -1.218045
vt -0.834029 -1.238878
vt -0.912154 -1.238878
vt -0.912154 -1.218045
vt -0.834029 -1.218045
vt -1.412154 -1.238878
vt -1.412154 -1.218045
vt -1.255904 -1.238878
vt -1.255904 -1.218045
vt -1.334029 -1.238878
vt -1.334029 -1.218045
vt -1.401737 -1.238878
vt -1.401737 -1.218045
vt -1.240279 -1.238878
vt -1.240279 -1.218045
vt -0.9121536 -0.7388764
vt -0.8340287 -0.7388785
vt -0.8340288 -0.8170035
vt -0.8340288 -1.160753
vt -1.334029 -1.17117
vt -1.334029 -0.8170035
vt -1.334029 -0.7388785
vt -1.255904 -0.7388767
vt 0.1517383 0.2002161
vt 0.8200141 0.1613266
vt 0.7812735 0.1516494
vt 0.200164 0.1517768
vt 0.1711086 0.1711546
vt 0.8006437 0.8490186
vt 0.8490696 0.1903774
vt 0.8490696 0.8005792
vt 0.8296992 0.8296407
vt 0.1517379 0.8007323
vt 0.2001638 0.8491503
vt 0.1711083 0.8297852
vt 0.1562121 0.99997
vt 0.8435458 0.9998187
vt 0.8227178 0.8748422
vt 0.1770404 0.8749838
vt 0 1
vt 0.1457979 0.8541611
vt 0 0.8437783
vt 0.1249696 0.8229213
vt 1.589302E-07 0.1564029
vt 0.12497 0.1772051
vt 1.589302E-07 0.0001812692
vt 0.1457982 0.1459562
vt 0.1562124 0.0001430476
vt 0.1770407 0.1251198
vt 0.8123037 0
vt 0.8018896 0.1249828
vt 0.9997584 0.0003621534
vt 0.8435462 0.1353884
vt 0.9997584 0.1353541
vt 0.8747886 0.1666258
vt 0.9997584 0.843559
vt 0.8747886 0.8227568
vt 0.9997584 0.9997808
vt 0.8539603 0.8540056

vn 0 1 0
vn -0.04223972 0 0.9991075
vn -0.9991081 1.907349E-06 -0.04222717
vn 0.9991081 0 0.04222666
vn 0.04220125 -1.192092E-07 -0.9991091
vn 0.04330181 -1.192085E-07 -0.9990621
vn 0.04437571 -1.192081E-07 -0.9990149
vn 0 -1 0
vn 0.2526512 -0.603593 -0.756203
vn 0.5637482 -0.6433835 -0.5179244
vn 0.7767967 -0.6009921 -0.1881365
vn -0.1874579 -0.6047524 -0.7740376
vn 0.7586481 -0.6002101 0.2533788
vn -0.7550705 -0.6052684 -0.2520292
vn -0.5163929 -0.6461455 -0.5619915
vn -0.7410796 -0.6215979 0.2538052
vn -0.4050711 -0.6320373 0.6606408
vn 0.5190456 -0.6415259 0.5648329
vn 0.1884228 -0.6007324 0.7769282
vn -0.13292 -0.5643523 0.8147629

g Deck_Ceiling_01_snaps002_0
usemtl Gray_snaps002
f 3/3/1 2/2/1 1/1/1
f 1/1/1 4/4/1 3/3/1
f 7/7/1 6/6/1 4/4/1
f 4/4/1 6/6/1 8/8/1
f 4/4/1 8/8/1 9/9/1
f 11/11/1 10/10/1 5/5/1
f 9/9/1 5/5/1 3/3/1
f 3/3/1 4/4/1 9/9/1
f 9/9/1 12/12/1 11/11/1
f 11/11/1 5/5/1 9/9/1
f 15/15/2 14/14/2 13/13/2
f 13/13/2 16/16/2 15/15/2
f 18/19/3 17/18/3 14/17/3
f 14/17/3 15/20/3 18/19/3
f 16/16/2 13/13/2 19/21/2
f 19/21/2 20/22/2 16/16/2
f 22/24/3 21/23/3 17/18/3
f 17/18/3 18/19/3 22/24/3
f 25/15/4 24/14/4 23/13/4
f 23/13/4 26/16/4 25/15/4
f 20/22/2 19/21/2 24/25/2
f 24/25/2 25/26/2 20/22/2
f 26/16/4 23/13/4 27/27/4
f 27/27/4 28/28/4 26/16/4
f 28/28/4 27/27/4 29/25/4
f 29/25/4 30/26/4 28/28/4
f 32/26/3 31/25/3 21/23/3
f 21/23/3 22/24/3 32/26/3
f 34/19/5 33/18/5 31/17/5
f 31/17/5 32/20/5 34/19/5
f 36/30/6 35/29/6 33/18/5
f 33/18/5 34/19/5 36/30/6
f 30/26/7 29/25/7 35/29/6
f 35/29/6 36/30/6 30/26/7
f 2/2/1 15/32/1 16/31/1
f 16/31/1 1/1/1 2/2/1
f 3/3/1 18/33/1 15/32/1
f 15/32/1 2/2/1 3/3/1
f 5/5/1 22/34/1 18/33/1
f 18/33/1 3/3/1 5/5/1
f 10/10/1 32/17/1 22/34/1
f 22/34/1 5/5/1 10/10/1
f 11/11/1 34/18/1 32/17/1
f 32/17/1 10/10/1 11/11/1
f 12/12/1 36/29/1 34/18/1
f 34/18/1 11/11/1 12/12/1
f 9/9/1 30/25/1 36/29/1
f 36/29/1 12/12/1 9/9/1
f 8/8/1 28/35/1 30/25/1
f 30/25/1 9/9/1 8/8/1
f 6/6/1 26/36/1 28/35/1
f 28/35/1 8/8/1 6/6/1
f 7/7/1 25/37/1 26/36/1
f 26/36/1 6/6/1 7/7/1
f 4/4/1 20/38/1 25/37/1
f 25/37/1 7/7/1 4/4/1
f 1/1/1 16/31/1 20/38/1
f 20/38/1 4/4/1 1/1/1
f 49/53/8 19/52/8 13/51/8
f 13/51/8 50/54/8 49/53/8
f 50/54/8 13/51/8 14/55/8
f 14/55/8 51/56/8 50/54/8
f 51/56/8 14/55/8 17/57/8
f 17/57/8 52/58/8 51/56/8
f 52/58/8 17/57/8 21/59/8
f 21/59/8 53/60/8 52/58/8
f 53/60/8 21/59/8 31/61/8
f 31/61/8 54/62/8 53/60/8
f 54/62/8 31/61/8 33/63/8
f 33/63/8 55/64/8 54/62/8
f 55/64/8 33/63/8 35/65/8
f 35/65/8 56/66/8 55/64/8
f 56/66/8 35/65/8 29/67/8
f 29/67/8 57/68/8 56/66/8
f 57/68/8 29/67/8 27/69/8
f 27/69/8 58/70/8 57/68/8
f 58/70/8 27/69/8 23/71/8
f 23/71/8 59/72/8 58/70/8
f 59/72/8 23/71/8 24/73/8
f 24/73/8 60/74/8 59/72/8
f 60/74/8 24/73/8 19/52/8
f 19/52/8 49/53/8 60/74/8

g Deck_Ceiling_01_snaps002_1
usemtl DarkGray_snaps002
f 50/54/9 51/56/10 48/50/10 47/49/9
f 51/56/10 52/58/11 46/48/11 48/50/10
f 49/53/12 50/54/9 47/49/9 42/44/12
f 52/58/11 53/60/13 37/39/13 46/48/11
f 59/72/14 60/74/15 45/47/15 44/46/14
f 60/74/15 49/53/12 42/44/12 45/47/15
f 58/70/16 59/72/14 44/46/14 43/45/16
f 57/68/17 58/70/16 43/45/16 38/40/17
f 53/60/13 54/62/18 41/43/18 37/39/13
f 54/62/18 55/64/19 40/42/19 41/43/18
f 55/64/19 56/66/20 39/41/20 40/42/19
f 56/66/20 57/68/17 38/40/17 39/41/20

g Deck_Ceiling_01_snaps002_2
usemtl LightGray_snaps002
f 37/39/8 41/43/8 40/42/8
f 38/40/8 43/45/8 42/44/8
f 39/41/8 38/40/8 37/39/8
f 37/39/8 40/42/8 39/41/8
f 37/39/8 38/40/8 42/44/8
f 42/44/8 46/48/8 37/39/8
f 42/44/8 43/45/8 44/46/8
f 44/46/8 45/47/8 42/44/8
f 46/48/8 42/44/8 47/49/8
f 47/49/8 48/50/8 46/48/8

