# ProBuilder 4.0.5
# https://unity3d.com/unity/features/worldbuilding/probuilder
# 9/25/2019 5:39:29 PM

mtllib ./pipeSkinnyStraight.mtl
o pipeSkinnyStraight

g Pipe_S_snaps002
v 3.125232 -0.3139961 -6.249754
v 3.125232 -0.159668 -6.404082
v 3.187732 -0.3139977 -6.249754
v 3.187732 -0.159668 -6.404083
v 3.125232 -0.5053378 -6.249754
v 3.187732 -0.5053394 -6.249754
v 3.125232 -0.659668 -6.404083
v 3.187732 -0.659668 -6.404083
v 3.187732 -0.659668 -6.595425
v 3.125232 -0.659668 -6.595426
v 3.187732 -0.5053391 -6.749754
v 3.125232 -0.5053395 -6.749754
v 3.187732 -0.3139975 -6.749754
v 3.125232 -0.313996 -6.749754
v 3.187732 -0.159668 -6.595425
v 3.125232 -0.159668 -6.595424
v 1.187732 -0.3139972 -6.249754
v 1.187732 -0.159668 -6.404083
v 1.250232 -0.313992 -6.249754
v 1.250232 -0.159668 -6.404081
v 1.187732 -0.5053389 -6.249754
v 1.250232 -0.5053338 -6.249754
v 1.187732 -0.659668 -6.404083
v 1.250232 -0.659668 -6.404083
v 1.250232 -0.659668 -6.595427
v 1.187732 -0.659668 -6.595425
v 1.250232 -0.5053394 -6.749754
v 1.187732 -0.5053388 -6.749754
v 1.250232 -0.3139919 -6.749754
v 1.187732 -0.313997 -6.749754
v 1.250232 -0.159668 -6.595423
v 1.187732 -0.159668 -6.595425
v 3.187732 -0.4096684 -6.499754
v 1.187732 -0.409668 -6.499754
v 1.250232 -0.3331261 -6.314976
v 1.250232 -0.2248869 -6.423215
v 3.125232 -0.3331302 -6.314977
v 3.125232 -0.4862039 -6.314978
v 3.125232 -0.2248909 -6.57629
v 3.125232 -0.2248911 -6.423216
v 1.250232 -0.2248869 -6.576288
v 3.125232 -0.3331302 -6.684529
v 1.250232 -0.3331262 -6.684528
v 1.250232 -0.486206 -6.68453
v 1.250232 -0.5944496 -6.576293
v 3.125232 -0.4862061 -6.684529
v 3.125232 -0.5944449 -6.423218
v 3.125232 -0.5944462 -6.576291
v 1.250232 -0.5944448 -6.423218
v 1.250232 -0.4861999 -6.314976

vt 0.5030976 0.002427236
vt 0.3904489 0.002425084
vt 0.5030976 0.03468587
vt 0.3904481 0.03468372
vt 0.6018559 0.002427174
vt 0.6018567 0.0346858
vt 0.1896832 0.04104396
vt 0.07703336 0.04104383
vt 0.1896832 0.07330234
vt 0.07703397 0.07330246
vt 0.2884419 0.07330234
vt 0.2884421 0.04104396
vt 0.4010912 0.07330278
vt 0.4010912 0.04104439
vt 0.08028109 0.03468445
vt 0.1790398 0.03468445
vt 0.1790406 0.00242582
vt 0.08028091 0.002426069
vt 0.2916897 0.03468372
vt 0.2916897 0.002425084
vt 0.8570251 0.04385225
vt 0.7443756 0.04384561
vt 0.8570213 0.07611088
vt 0.7443746 0.07610424
vt 0.9557832 0.04385225
vt 0.9557806 0.07611088
vt 0.7443743 0
vt 0.6317249 4.304524E-07
vt 0.7443746 0.03225863
vt 0.6317232 0.03225906
vt 0.8431342 0.03225863
vt 0.8431331 0
vt 0.9557822 0.03225949
vt 0.9557827 8.609048E-07
vt 0.4342071 0.07610694
vt 0.5329689 0.07610694
vt 0.5329663 0.04384831
vt 0.4342075 0.04384831
vt 0.6456172 0.07610424
vt 0.6456156 0.04384561
vt 0.9565766 0.2725077
vt 0.827542 0.2231282
vt 0.8769214 0.352163
vt 0.9565766 0.173749
vt 0.8769215 0.09409398
vt 0.7781627 0.09409398
vt 0.6985076 0.1737488
vt 0.6985076 0.2725075
vt 0.7781625 0.352163
vt 0.4056774 0.2725109
vt 0.4853314 0.3521634
vt 0.4393409 0.262635
vt 0.4952073 0.3185014
vt 0.3805064 0.272511
vt 0.3805064 0.1737523
vt 0.3468422 0.2626352
vt 0.3468421 0.183628
vt 0.2020929 0.3521657
vt 0.3008517 0.3521657
vt 0.2119688 0.3185016
vt 0.2909759 0.3185015
vt 0.5840903 0.3521634
vt 0.5742143 0.3185014
vt 0.1224374 0.2725111
vt 0.1561024 0.2626352
vt 0.6637465 0.2725109
vt 0.6300808 0.262635
vt 0.6637465 0.1737491
vt 0.6300818 0.1836247
vt 0.5840925 0.09409435
vt 0.5742164 0.1277561
vt 0.1224374 0.1737514
vt 0.1561022 0.1836269
vt 0.3008513 0.09409657
vt 0.2020922 0.09409657
vt 0.2909751 0.1277608
vt 0.2119683 0.1277601
vt 0.4853328 0.09409435
vt 0.4952088 0.1277585
vt 0.4056774 0.1737521
vt 0.4393411 0.1836279
vt 0.9677591 0.8419818
vt 0.967759 0.7629748
vt 3.076423E-07 0.8419849
vt 1.845854E-07 0.7629779
vt 0.9677591 0.9209894
vt 3.076423E-07 0.9209916
vt 0.9677593 0.999999
vt 1.230569E-07 1
vt 2.461138E-07 0.4469451
vt 0.9677591 0.4469459
vt 0 0.3679383
vt 0.9677591 0.3679383
vt 0 0.5259529
vt 0.9677591 0.5259531
vt 2.461138E-07 0.6049613
vt 0.9677591 0.6049632
vt 1.845854E-07 0.6839678
vt 0.967759 0.6839708

vn 1.021875E-05 0.3826836 0.9238794
vn 6.934161E-06 0.9238793 0.3826841
vn -5.109386E-06 -0.3826831 0.9238797
vn -7.29919E-07 -0.923879 0.3826849
vn 2.919665E-06 -0.9238797 -0.3826831
vn 2.189752E-06 -0.382684 -0.9238793
vn 2.919672E-06 0.3826847 -0.923879
vn -3.649557E-06 0.9238794 -0.3826838
vn 1 0 0
vn -1 0 0

g Pipe_S_snaps002
usemtl DarkGray_snaps002
f 15/43/9 33/42/9 13/41/9
f 9/45/9 33/42/9 8/46/9
f 4/4/2 2/2/2 1/1/1
f 1/1/1 3/3/1 4/4/2
f 3/3/1 1/1/1 5/5/3
f 5/5/3 6/6/3 3/3/1
f 6/10/3 5/8/3 7/7/4
f 7/7/4 8/9/4 6/10/3
f 10/12/5 9/11/5 8/9/4
f 8/9/4 7/7/4 10/12/5
f 12/14/6 11/13/6 9/11/5
f 9/11/5 10/12/5 12/14/6
f 14/17/7 13/16/7 11/15/6
f 11/15/6 12/18/6 14/17/7
f 16/20/8 15/19/8 13/16/7
f 13/16/7 14/17/7 16/20/8
f 15/19/8 16/20/8 2/2/2
f 2/2/2 4/4/2 15/19/8
f 20/24/2 18/22/2 17/21/1
f 17/21/1 19/23/1 20/24/2
f 19/23/1 17/21/1 21/25/3
f 21/25/3 22/26/3 19/23/1
f 22/30/3 21/28/3 23/27/4
f 23/27/4 24/29/4 22/30/3
f 26/32/5 25/31/5 24/29/4
f 24/29/4 23/27/4 26/32/5
f 26/32/5 28/34/6 27/33/6
f 27/33/6 25/31/5 26/32/5
f 30/37/7 29/36/7 27/35/6
f 27/35/6 28/38/6 30/37/7
f 32/40/8 31/39/8 29/36/7
f 29/36/7 30/37/7 32/40/8
f 32/40/8 18/22/2 20/24/2
f 20/24/2 31/39/8 32/40/8
f 11/44/9 13/41/9 33/42/9
f 33/42/9 9/45/9 11/44/9
f 6/47/9 8/46/9 33/42/9
f 33/42/9 3/48/9 6/47/9
f 4/49/9 3/48/9 33/42/9
f 33/42/9 15/43/9 4/49/9
f 18/43/10 32/49/10 34/42/10
f 34/42/10 17/41/10 18/43/10
f 21/44/10 17/41/10 34/42/10
f 34/42/10 23/45/10 21/44/10
f 26/46/10 23/45/10 34/42/10
f 34/42/10 28/47/10 26/46/10
f 30/48/10 28/47/10 34/42/10
f 34/42/10 32/49/10 30/48/10
f 36/53/9 20/51/9 19/50/9
f 19/50/9 35/52/9 36/53/9
f 38/57/10 5/55/10 1/54/10
f 1/54/10 37/56/10 38/57/10
f 40/61/10 2/59/10 16/58/10
f 16/58/10 39/60/10 40/61/10
f 37/56/10 1/54/10 2/59/10
f 2/59/10 40/61/10 37/56/10
f 41/63/9 31/62/9 20/51/9
f 20/51/9 36/53/9 41/63/9
f 39/60/10 16/58/10 14/64/10
f 14/64/10 42/65/10 39/60/10
f 43/67/9 29/66/9 31/62/9
f 31/62/9 41/63/9 43/67/9
f 44/69/9 27/68/9 29/66/9
f 29/66/9 43/67/9 44/69/9
f 45/71/9 25/70/9 27/68/9
f 27/68/9 44/69/9 45/71/9
f 42/65/10 14/64/10 12/72/10
f 12/72/10 46/73/10 42/65/10
f 48/77/10 10/75/10 7/74/10
f 7/74/10 47/76/10 48/77/10
f 46/73/10 12/72/10 10/75/10
f 10/75/10 48/77/10 46/73/10
f 49/79/9 24/78/9 25/70/9
f 25/70/9 45/71/9 49/79/9
f 47/76/10 7/74/10 5/55/10
f 5/55/10 38/57/10 47/76/10
f 50/81/9 22/80/9 24/78/9
f 24/78/9 49/79/9 50/81/9
f 35/52/9 19/50/9 22/80/9
f 22/80/9 50/81/9 35/52/9
f 40/85/2 36/83/2 35/82/1
f 35/82/1 37/84/1 40/85/2
f 37/84/1 35/82/1 50/86/3
f 50/86/3 38/87/3 37/84/1
f 38/87/3 50/86/3 49/88/4
f 49/88/4 47/89/4 38/87/3
f 49/93/4 45/91/5 48/90/5
f 48/90/5 47/92/4 49/93/4
f 45/91/5 44/95/6 46/94/6
f 46/94/6 48/90/5 45/91/5
f 42/96/7 46/94/6 44/95/6
f 44/95/6 43/97/7 42/96/7
f 43/97/7 41/99/8 39/98/8
f 39/98/8 42/96/7 43/97/7
f 41/99/8 36/83/2 40/85/2
f 40/85/2 39/98/8 41/99/8

