# ProBuilder 4.0.5
# https://unity3d.com/unity/features/worldbuilding/probuilder
# 9/25/2019 5:38:01 PM

mtllib ./pipeCorner.mtl
o pipeCorner

g Pipe_M_Corner_01_snaps002
v 2.384186E-07 -0.3535534 0.3535533
v 0 -0.5 0
v -0.1250001 -0.5 2.235176E-08
v -0.1249999 -0.3535534 0.3535534
v -0.1249999 0 0.5000001
v 1.192093E-07 0 0.5000001
v -0.1249999 0.3535534 0.3535534
v 1.192093E-07 0.3535534 0.3535533
v -0.1250001 0.4999999 2.235176E-08
v -1.192093E-07 0.4999999 2.131628E-14
v -0.1250004 0.3535534 -0.3535533
v -3.576279E-07 0.3535534 -0.3535533
v -0.1250004 0 -0.5
v -3.576279E-07 0 -0.5000001
v -0.1250001 -0.3535533 -0.3535533
v -1.192093E-07 -0.3535533 -0.3535536
v -0.1250001 0.3086521 -0.3086519
v -0.1250004 0 -0.4365001
v -0.1250001 0.4365 2.235176E-08
v -0.1249999 0.3086521 0.3086522
v -0.1249999 0 0.4365002
v -0.1250001 -0.308652 -0.3086522
v -0.1250001 -0.4365 2.235176E-08
v -0.1249999 -0.3086522 0.3086522
v 0 0 1.065814E-14
v -0.3749996 -0.3086531 0.3086525
v -0.3749999 -0.4365011 2.980233E-07
v -0.3749996 1.013279E-06 0.4365004
v -0.3749996 0.3086531 0.3086525
v -0.3749999 0.436501 2.980233E-07
v -0.3749999 0.3086531 -0.3086517
v -0.3749999 1.013279E-06 -0.4364996
v -0.3749999 -0.308653 -0.3086519
v -0.5781249 -0.4365506 0.03125012
v -0.4999996 -0.3086883 0.3125001
v -0.6093746 -0.3087242 0.3437501
v -0.7656249 -0.4366006 0.1093751
v -0.4687496 7.748604E-07 0.4375001
v -0.5312499 -7.748604E-07 0.4687501
v -0.4999996 0.3086874 0.3125001
v -0.6093746 0.308722 0.3437501
v -0.5781249 0.4365508 0.03125012
v -0.7656249 0.4366006 0.1093751
v -0.6562499 0.3086884 -0.2499999
v -0.9218749 0.3087257 -0.1249998
v -0.6874999 1.490116E-06 -0.3749999
v -0.9999999 2.861023E-06 -0.2343748
v -0.6562499 -0.3086873 -0.2499999
v -0.9218749 -0.3087236 -0.1249998
v -0.6464468 -0.3535534 0.8749999
v -1 -0.5 0.8749998
v -0.6464468 -0.3535534 0.9999999
v -1 -0.5 0.9999998
v -0.5000001 0 0.8749998
v -0.5000001 0 0.9999998
v -0.6464468 0.3535534 0.8749998
v -0.6464468 0.3535534 0.9999998
v -1 0.4999999 0.9999996
v -1 0.4999999 0.8749996
v -1.353553 0.3535534 0.9999995
v -1.353553 0.3535534 0.8749995
v -1.5 0 0.9999995
v -1.5 0 0.8749995
v -1.353554 -0.3535533 0.9999996
v -1.353553 -0.3535533 0.8749996
v -1.308652 0.3086521 0.8749996
v -1.4365 0 0.8749996
v -1 0.4365 0.8749997
v -0.691348 0.3086521 0.8749998
v -0.5635 0 0.8749998
v -1.308652 -0.308652 0.8749996
v -1 -0.4365 0.8749998
v -0.691348 -0.3086522 0.8749998
v -1 0 0.9999997
v -0.6913477 -0.3086531 0.625
v -0.9999999 -0.4365011 0.625
v -0.5634998 1.013279E-06 0.625
v -0.6913477 0.3086531 0.625
v -0.9999999 0.436501 0.625
v -1.308652 0.3086531 0.625
v -1.4365 1.013279E-06 0.625
v -1.308652 -0.308653 0.625
v -0.9687501 -0.4365506 0.421875
v -0.6875001 -0.3086883 0.5
v -0.6562501 -0.3087242 0.390625
v -0.8906251 -0.4366006 0.234375
v -0.5625001 7.748604E-07 0.53125
v -0.6875001 0.3086874 0.5
v -0.6562501 0.308722 0.390625
v -0.9687501 0.4365508 0.421875
v -0.8906251 0.4366006 0.234375
v -1.25 0.3086884 0.34375
v -1.125 0.3087257 0.078125
v -1.375 1.490116E-06 0.3125
v -1.234375 2.861023E-06 2.131628E-14
v -1.25 -0.3086873 0.34375
v -1.125 -0.3087236 0.078125

vt 0.5686778 0.7010832
vt 0.4550745 0.7010834
vt 0.4550745 0.7412483
vt 0.5686778 0.7412483
vt 0.6916412 0.7412481
vt 0.6916412 0.7010832
vt 0.2158249 0.6299666
vt 0.3387883 0.6701313
vt 0.3387883 0.6299666
vt 0.2158249 0.6701313
vt 0.4523916 0.6701314
vt 0.4523916 0.6299666
vt 0.5659949 0.6701314
vt 0.5659949 0.6299667
vt 0.6889582 0.6701314
vt 0.6889582 0.6299666
vt 0.2185079 0.7412483
vt 0.3414711 0.7412483
vt 0.3414711 0.7010834
vt 0.2185079 0.7010834
vt 0.5738029 0.6889821
vt 0.6811501 0.6889821
vt 0.4596053 0.687547
vt 0.5587809 0.6875471
vt 0.346002 0.687547
vt 0.4451777 0.687547
vt 0.223633 0.6889818
vt 0.33098 0.6889818
vt 0.348685 0.7586638
vt 0.4478607 0.758664
vt 0.5764861 0.7600986
vt 0.6838331 0.7600986
vt 0.4622883 0.758664
vt 0.5614641 0.7586638
vt 0.226316 0.7600988
vt 0.333663 0.7600988
vt 0.05278662 0.9458482
vt 0.1310808 0.8675539
vt 0.1310808 0.9782786
vt 0.02035606 0.8675539
vt 0.05278656 0.7892599
vt 0.1310808 0.7568293
vt 0.2093749 0.7892599
vt 0.2418055 0.8675539
vt 0.2093749 0.9458482
vt 0.5002604 0.2153306
vt 0.419931 0.3145063
vt 0.5002606 0.3145062
vt 0.4199307 0.2153306
vt 0.9444737 0.5167236
vt 0.9138678 0.6472593
vt 0.9874718 0.615083
vt 0.8708696 0.5488995
vt 0.2672126 0.9103321
vt 0.3179058 0.7859723
vt 0.2400538 0.8062958
vt 0.3450646 0.8900084
vt 0.5901487 0.3126028
vt 0.5901488 0.2134271
vt 0.509819 0.3126028
vt 0.5098193 0.213427
vt 0.5909142 0.1142515
vt 0.5098191 0.1142514
vt 0.5956481 0.01130146
vt 0.5098191 0.006904215
vt 0.4144143 0.01319814
vt 0.4199309 0.1161551
vt 0.5002606 0.1161547
vt 0.5002605 0.008807689
vt 0.359526 0.2238958
vt 0.382862 0.3155577
vt 0.3501987 0.3241036
vt 0.3032202 0.2452636
vt 0.8863144 0.6594386
vt 0.8342441 0.5654154
vt 0.8676502 0.6719187
vt 0.8029633 0.5832627
vt 0.3742917 0.882506
vt 0.3569581 0.776257
vt 0.3967121 0.8807527
vt 0.3926316 0.7709026
vt 0.6505511 0.2219811
vt 0.6272771 0.3136548
vt 0.6599302 0.3221862
vt 0.7085414 0.2451036
vt 0.6739054 0.1303129
vt 0.7572011 0.1680707
vt 0.7000309 0.03470039
vt 0.815748 0.08294109
vt 0.3100195 0.03666142
vt 0.3361744 0.1322448
vt 0.2028363 0.08239618
vt 0.2560716 0.166515
vt 0.5638872 0.51013
vt 0.4502839 0.51013
vt 0.5638872 0.5502948
vt 0.4502839 0.5502948
vt 0.6868505 0.5101299
vt 0.6868505 0.5502948
vt 0.3366806 0.5759368
vt 0.2137172 0.575937
vt 0.2137173 0.6161019
vt 0.3366806 0.6161017
vt 0.4502839 0.6161017
vt 0.4502839 0.5759368
vt 0.5638871 0.6161017
vt 0.5638871 0.5759368
vt 0.6868505 0.6161017
vt 0.6868505 0.5759368
vt 0.3366804 0.5502948
vt 0.2137172 0.5101299
vt 0.2137172 0.5502948
vt 0.3366806 0.5101299
vt 0.5716953 0.5570862
vt 0.6790423 0.5570863
vt 0.4574977 0.5585212
vt 0.5566731 0.5585212
vt 0.3438943 0.5585212
vt 0.44307 0.5585211
vt 0.2215253 0.5570865
vt 0.3288724 0.5570862
vt 0.3438945 0.4927143
vt 0.4430701 0.4927142
vt 0.5716953 0.4912793
vt 0.6790423 0.4912792
vt 0.4574977 0.4927143
vt 0.5566735 0.4927143
vt 0.2215254 0.4912793
vt 0.3288724 0.4912793
vt 0.3163671 0.4047567
vt 0.2182934 0.3913682
vt 0.2081164 0.4646463
vt 0.3062378 0.4781826
vt 0.838281 0.7147646
vt 0.7453495 0.6615172
vt 0.7055038 0.7310593
vt 0.798435 0.7843062
vt 0.4864742 0.7967414
vt 0.4463816 0.8962481
vt 0.5208439 0.9262503
vt 0.5609366 0.8267437
vt 0.6845882 0.4873126
vt 0.783764 0.4873124
vt 0.783764 0.4069829
vt 0.6845882 0.406983
vt 0.8829397 0.4873125
vt 0.8829395 0.4069829
vt 0.9902868 0.487313
vt 0.9858958 0.4014667
vt 0.1101758 0.4517588
vt 0.02291286 0.359573
vt 0.01193988 0.4384905
vt 0.1201049 0.3782473
vt 0.2084115 0.4650273
vt 0.234898 0.3327366
vt 0.3224757 0.3681673
vt 0.3353732 0.3370258
vt 0.2636803 0.279786
vt 0.7656811 0.6269611
vt 0.8533303 0.6887517
vt 0.7870793 0.5974028
vt 0.4490543 0.7821632
vt 0.4184142 0.8851153
vt 0.4138942 0.772178
vt 0.7751901 0.3465878
vt 0.6835365 0.3699126
vt 0.674992 0.3372479
vt 0.7520533 0.2886455
vt 0.8668501 0.3232284
vt 0.8290978 0.2399801
vt 0.9624292 0.2970663
vt 0.9141881 0.1814383
vt 0.1472199 0.2974332
vt 0.05601501 0.2587532
vt 0.1918797 0.2226223
vt 0.1156417 0.1586284

vn 1.932763E-07 -0.7071068 0.7071067
vn 1.153629E-14 -1 4.83867E-08
vn 8.429363E-08 -3.225781E-08 1
vn 3.967795E-07 0.7071069 0.7071066
vn 1.192093E-07 1 3.22578E-08
vn -2.28192E-07 0.7071069 -0.7071066
vn -9.187587E-07 6.45156E-08 -1
vn -1.685874E-06 -0.7071068 -0.7071068
vn -1 -2.073E-06 1.716262E-06
vn 1 6.983116E-08 -4.07006E-07
vn 0.01491509 -0.7037768 0.7102646
vn -0.003062333 -0.9999928 -0.002223644
vn 0.005332558 9.112918E-07 0.9999858
vn 0.01491385 0.7037773 0.7102641
vn -0.00306138 0.9999928 -0.002223425
vn -0.0713259 0.7071965 -0.70341
vn -0.09713823 1.189461E-06 -0.9952709
vn -0.0713274 -0.7071955 -0.703411
vn -0.01208584 -0.9999223 0.003066442
vn 0.1311053 -0.7049567 0.6970276
vn 0.3583474 -0.7193887 0.5950352
vn -0.00127892 -0.9999935 0.0033708
vn 0.2399963 1.691673E-06 0.9707738
vn 0.7071045 9.299507E-07 0.7071091
vn 0.1310975 0.7049557 0.6970301
vn 0.3583457 0.7193874 0.5950379
vn -0.01208683 0.9999223 0.003069799
vn -0.001275739 0.9999935 0.003375705
vn -0.2214311 0.7012728 -0.6776317
vn -0.4079838 0.7015899 -0.5842266
vn -0.310291 1.445588E-06 -0.9506417
vn -0.5679737 2.142367E-06 -0.8230467
vn -0.2214335 -0.7012709 -0.6776328
vn -0.4079869 -0.7015865 -0.5842286
vn 0.7071067 -0.7071068 1.685874E-07
vn 0.7071066 0.7071069 2.877967E-07
vn -0.7071067 0.7071069 0
vn -0.7071068 -0.7071067 -7.586434E-07
vn 0.7102646 -0.7037768 0.01491498
vn -0.00222366 -0.9999928 -0.003062339
vn 0.9999858 9.274208E-07 0.005332355
vn 0.7102642 0.7037773 0.01491374
vn -0.002223441 0.9999928 -0.003061375
vn -0.7034101 0.7071965 -0.07132579
vn -0.9952709 1.189461E-06 -0.09713808
vn -0.703411 -0.7071954 -0.07132729
vn 0.003066442 -0.9999223 -0.01208586
vn 0.6970274 -0.7049567 0.1311058
vn 0.5950326 -0.7193893 0.3583507
vn 0.003370669 -0.9999935 -0.001278625
vn 0.9707731 1.699926E-06 0.2399991
vn 0.6970298 0.7049559 0.131098
vn 0.5950353 0.7193879 0.3583489
vn 0.003069807 0.9999223 -0.01208684
vn 0.003375574 0.9999935 -0.001275427
vn -0.6776318 0.7012727 -0.2214309
vn -0.5842263 0.70159 -0.4079843
vn -0.9506418 1.429345E-06 -0.3102907
vn -0.8230463 2.142367E-06 -0.5679743
vn -0.6776329 -0.7012709 -0.2214334
vn -0.5842282 -0.7015865 -0.4079874

g Pipe_M_Corner_01_snaps002
usemtl Gray_snaps002
f 12/41/10 25/38/10 14/42/10
f 2/44/10 25/38/10 1/45/10
f 52/45/3 74/38/3 53/44/3
f 58/40/3 74/38/3 57/37/3
f 36/77/21 39/76/24 85/161/49
f 39/80/24 41/81/26 89/164/53
f 3/3/2 2/2/2 1/1/1
f 1/1/1 4/4/1 3/3/2
f 1/1/1 6/6/3 5/5/3
f 5/5/3 4/4/1 1/1/1
f 6/7/3 8/9/4 7/8/4
f 7/8/4 5/10/3 6/7/3
f 10/12/5 9/11/5 7/8/4
f 7/8/4 8/9/4 10/12/5
f 12/14/6 11/13/6 9/11/5
f 9/11/5 10/12/5 12/14/6
f 14/16/7 13/15/7 11/13/6
f 11/13/6 12/14/6 14/16/7
f 16/19/8 15/18/8 13/17/7
f 13/17/7 14/20/7 16/19/8
f 16/19/8 2/2/2 3/3/2
f 3/3/2 15/18/8 16/19/8
f 13/15/9 18/22/9 17/21/9
f 17/21/9 11/13/9 13/15/9
f 11/13/9 17/24/9 19/23/9
f 19/23/9 9/11/9 11/13/9
f 9/11/9 19/26/9 20/25/9
f 20/25/9 7/8/9 9/11/9
f 7/8/9 20/28/9 21/27/9
f 21/27/9 5/10/9 7/8/9
f 3/3/9 23/30/9 22/29/9
f 22/29/9 15/18/9 3/3/9
f 5/5/9 21/32/9 24/31/9
f 24/31/9 4/4/9 5/5/9
f 4/4/9 24/34/9 23/33/9
f 23/33/9 3/3/9 4/4/9
f 15/18/9 22/36/9 18/35/9
f 18/35/9 13/17/9 15/18/9
f 1/45/10 25/38/10 8/37/10
f 8/37/10 6/39/10 1/45/10
f 10/40/10 8/37/10 25/38/10
f 25/38/10 12/41/10 10/40/10
f 16/43/10 14/42/10 25/38/10
f 25/38/10 2/44/10 16/43/10
f 23/46/2 24/48/1 26/47/11
f 26/47/11 27/49/12 23/46/2
f 24/50/1 21/52/3 28/51/13
f 28/51/13 26/53/11 24/50/1
f 21/54/3 20/56/4 29/55/14
f 29/55/14 28/57/13 21/54/3
f 19/61/5 30/59/15 29/58/14
f 29/58/14 20/60/4 19/61/5
f 17/63/6 31/62/16 30/59/15
f 30/59/15 19/61/5 17/63/6
f 18/65/7 32/64/17 31/62/16
f 31/62/16 17/63/6 18/65/7
f 22/68/8 33/67/18 32/66/17
f 32/66/17 18/69/7 22/68/8
f 33/67/18 22/68/8 23/46/2
f 23/46/2 27/49/12 33/67/18
f 34/70/19 27/49/12 26/47/11
f 26/47/11 35/71/20 34/70/19
f 37/73/22 34/70/19 35/71/20
f 35/71/20 36/72/21 37/73/22
f 35/75/20 26/53/11 28/51/13
f 28/51/13 38/74/23 35/75/20
f 36/77/21 35/75/20 38/74/23
f 38/74/23 39/76/24 36/77/21
f 38/78/23 28/57/13 29/55/14
f 29/55/14 40/79/25 38/78/23
f 41/81/26 39/80/24 38/78/23
f 38/78/23 40/79/25 41/81/26
f 42/82/27 40/83/25 29/58/14
f 29/58/14 30/59/15 42/82/27
f 42/82/27 43/85/28 41/84/26
f 41/84/26 40/83/25 42/82/27
f 31/62/16 44/86/29 42/82/27
f 42/82/27 30/59/15 31/62/16
f 44/86/29 45/87/30 43/85/28
f 43/85/28 42/82/27 44/86/29
f 46/88/31 44/86/29 31/62/16
f 31/62/16 32/64/17 46/88/31
f 46/88/31 47/89/32 45/87/30
f 45/87/30 44/86/29 46/88/31
f 46/90/31 32/66/17 33/67/18
f 33/67/18 48/91/33 46/90/31
f 49/93/34 47/92/32 46/90/31
f 46/90/31 48/91/33 49/93/34
f 34/70/19 48/91/33 33/67/18
f 33/67/18 27/49/12 34/70/19
f 49/93/34 48/91/33 34/70/19
f 34/70/19 37/73/22 49/93/34
f 53/97/2 51/95/2 50/94/35
f 50/94/35 52/96/35 53/97/2
f 52/96/35 50/94/35 54/98/10
f 54/98/10 55/99/10 52/96/35
f 55/102/10 54/101/10 56/100/36
f 56/100/36 57/103/36 55/102/10
f 59/105/5 58/104/5 57/103/36
f 57/103/36 56/100/36 59/105/5
f 60/106/37 58/104/5 59/105/5
f 59/105/5 61/107/37 60/106/37
f 62/108/9 60/106/37 61/107/37
f 61/107/37 63/109/9 62/108/9
f 64/110/38 62/112/9 63/111/9
f 63/111/9 65/113/38 64/110/38
f 64/110/38 65/113/38 51/95/2
f 51/95/2 53/97/2 64/110/38
f 67/115/7 63/109/7 61/107/7
f 61/107/7 66/114/7 67/115/7
f 66/117/7 61/107/7 59/105/7
f 59/105/7 68/116/7 66/117/7
f 68/119/7 59/105/7 56/100/7
f 56/100/7 69/118/7 68/119/7
f 69/121/7 56/100/7 54/101/7
f 54/101/7 70/120/7 69/121/7
f 72/123/7 51/95/7 65/113/7
f 65/113/7 71/122/7 72/123/7
f 70/125/7 54/98/7 50/94/7
f 50/94/7 73/124/7 70/125/7
f 73/127/7 50/94/7 51/95/7
f 51/95/7 72/126/7 73/127/7
f 71/129/7 65/113/7 63/111/7
f 63/111/7 67/128/7 71/129/7
f 57/37/3 74/38/3 52/45/3
f 52/45/3 55/39/3 57/37/3
f 64/43/3 53/44/3 74/38/3
f 74/38/3 62/42/3 64/43/3
f 60/41/3 62/42/3 74/38/3
f 74/38/3 58/40/3 60/41/3
f 72/132/2 76/131/40 75/130/39
f 75/130/39 73/133/35 72/132/2
f 73/136/35 75/135/39 77/134/41
f 77/134/41 70/137/10 73/136/35
f 70/140/10 77/139/41 78/138/42
f 78/138/42 69/141/36 70/140/10
f 79/144/43 68/143/5 69/142/36
f 69/142/36 78/145/42 79/144/43
f 80/147/44 66/146/37 68/143/5
f 68/143/5 79/144/43 80/147/44
f 81/149/45 67/148/9 66/146/37
f 66/146/37 80/147/44 81/149/45
f 71/150/38 67/152/9 81/151/45
f 81/151/45 82/153/46 71/150/38
f 71/150/38 82/153/46 76/131/40
f 76/131/40 72/154/2 71/150/38
f 83/155/47 84/156/48 75/130/39
f 75/130/39 76/131/40 83/155/47
f 83/155/47 86/158/50 85/157/49
f 85/157/49 84/156/48 83/155/47
f 77/134/41 75/135/39 84/159/48
f 84/159/48 87/160/51 77/134/41
f 84/159/48 85/161/49 39/76/24
f 39/76/24 87/160/51 84/159/48
f 77/139/41 87/163/51 88/162/52
f 88/162/52 78/138/42 77/139/41
f 39/80/24 89/164/53 88/162/52
f 88/162/52 87/163/51 39/80/24
f 90/165/54 79/144/43 78/145/42
f 78/145/42 88/166/52 90/165/54
f 91/168/55 90/165/54 88/166/52
f 88/166/52 89/167/53 91/168/55
f 90/165/54 92/169/56 80/147/44
f 80/147/44 79/144/43 90/165/54
f 93/170/57 92/169/56 90/165/54
f 90/165/54 91/168/55 93/170/57
f 94/171/58 81/149/45 80/147/44
f 80/147/44 92/169/56 94/171/58
f 95/172/59 94/171/58 92/169/56
f 92/169/56 93/170/57 95/172/59
f 94/174/58 96/173/60 82/153/46
f 82/153/46 81/151/45 94/174/58
f 95/176/59 97/175/61 96/173/60
f 96/173/60 94/174/58 95/176/59
f 82/153/46 96/173/60 83/155/47
f 83/155/47 76/131/40 82/153/46
f 96/173/60 97/175/61 86/158/50
f 86/158/50 83/155/47 96/173/60
f 43/85/28 91/168/55 89/167/53
f 89/167/53 41/84/26 43/85/28
f 47/89/32 95/172/59 93/170/57
f 93/170/57 45/87/30 47/89/32
f 37/73/22 86/158/50 97/175/61
f 97/175/61 49/93/34 37/73/22
f 86/158/50 37/73/22 36/72/21
f 36/72/21 85/157/49 86/158/50
f 45/87/30 93/170/57 91/168/55
f 91/168/55 43/85/28 45/87/30
f 49/93/34 97/175/61 95/176/59
f 95/176/59 47/92/32 49/93/34

