# ProBuilder 4.0.5
# https://unity3d.com/unity/features/worldbuilding/probuilder
# 9/25/2019 9:35:54 PM

mtllib ./railU.mtl
o railU

g GuardRail_01_snaps002
v -10.5364 0 31.6729
v -10.5838 0 31.5908
v -10.5838 0.0625 31.5908
v -10.5364 0.0625 31.6729
v -10.52075 0.75 31.64579
v -10.52075 0.0625 31.64579
v -10.5525 0.0625 31.5908
v -10.5525 0.75 31.5908
v -10.4416 0 31.6729
v -10.4416 0.0625 31.6729
v -10.45725 0.75 31.64579
v -10.45725 0.0625 31.64579
v -10.3942 0.0625 31.5908
v -10.3942 0 31.5908
v -10.4255 0.75 31.5908
v -10.4255 0.0625 31.5908
v -10.4416 0.0625 31.5087
v -10.4416 0 31.5087
v -10.45725 0.75 31.5358
v -10.45725 0.0625 31.5358
v -10.5364 0.0625 31.5087
v -10.5364 0 31.5087
v -10.52075 0.75 31.5358
v -10.52075 0.0625 31.5358
v -11.7067 0.0625 31.5908
v -11.7541 0 31.6729
v -11.7541 0.0625 31.6729
v -11.7067 0 31.5908
v -11.7375 0.75 31.5908
v -11.738 0.0625 31.5908
v -11.76925 0.75 31.64579
v -11.76975 0.0625 31.64579
v -11.8489 0 31.6729
v -11.8489 0.0625 31.6729
v -11.83275 0.75 31.64579
v -11.83325 0.0625 31.64579
v -11.8963 0 31.5908
v -11.8963 0.0625 31.5908
v -11.865 0.0625 31.5908
v -11.8645 0.75 31.5908
v -11.8489 0 31.5087
v -11.8489 0.0625 31.5087
v -11.83325 0.0625 31.5358
v -11.83275 0.75 31.5358
v -11.7541 0 31.5087
v -11.7541 0.0625 31.5087
v -11.76975 0.0625 31.5358
v -11.76925 0.75 31.5358
v -10.52075 0.84375 31.64579
v -10.5525 0.84375 31.5908
v -10.45725 0.84375 31.64579
v -10.4255 0.84375 31.5908
v -10.45725 0.84375 31.5358
v -10.52075 0.84375 31.5358
v -10.6765 0.9062502 31.64579
v -10.58275 0.9067501 31.64579
v -10.58275 0.875 31.5908
v -10.6765 0.8744999 31.5908
v -10.6765 0.9697502 31.64579
v -10.58275 0.97025 31.64579
v -10.6765 1.0015 31.5908
v -10.58275 1.002 31.5908
v -10.6765 0.9697502 31.5358
v -10.58275 0.97025 31.5358
v -10.6765 0.9062502 31.5358
v -10.58275 0.9067501 31.5358
v -10.53392 0.9609375 31.5358
v -10.55739 0.9042969 31.5358
v -10.53587 0.890625 31.5358
v -10.489 0.9375 31.5358
v -10.571 0.8730469 31.5908
v -10.55931 0.8671875 31.5908
v -10.53587 0.890625 31.64579
v -10.55739 0.9042969 31.64579
v -10.489 0.9375 31.64579
v -10.53392 0.9609375 31.64579
v -10.52025 0.9921875 31.5908
v -10.46556 0.9609375 31.5908
v -10.46165 0.8886719 31.5358
v -10.52415 0.8671875 31.5358
v -10.55345 0.8554688 31.5908
v -10.52415 0.8671875 31.64579
v -10.46165 0.8886719 31.64579
v -10.43431 0.8984478 31.5908
v -11.6135 0.9697503 31.64579
v -11.6135 1.0015 31.5908
v -11.6135 0.9062504 31.64579
v -11.6135 0.8744998 31.5908
v -11.6135 0.9062504 31.5358
v -11.6135 0.9697503 31.5358
v -11.76875 0.84375 31.5358
v -11.737 0.84375 31.5908
v -11.83225 0.84375 31.5358
v -11.864 0.84375 31.5908
v -11.83225 0.84375 31.64579
v -11.76875 0.84375 31.64579
v -11.70675 0.9067501 31.5358
v -11.70675 0.875 31.5908
v -11.70675 0.97025 31.5358
v -11.70675 1.002 31.5908
v -11.70675 0.97025 31.64579
v -11.70675 0.9067501 31.64579
v -11.75558 0.9609375 31.64579
v -11.7321 0.9042969 31.64579
v -11.75362 0.890625 31.64579
v -11.8005 0.9375 31.64579
v -11.71849 0.8730469 31.5908
v -11.73018 0.8671875 31.5908
v -11.75362 0.890625 31.5358
v -11.7321 0.9042969 31.5358
v -11.8005 0.9375 31.5358
v -11.75558 0.9609375 31.5358
v -11.76925 0.9921875 31.5908
v -11.82393 0.9609375 31.5908
v -11.82784 0.8886719 31.64579
v -11.76534 0.8671875 31.64579
v -11.73604 0.8554688 31.5908
v -11.76534 0.8671875 31.5358
v -11.82784 0.8886719 31.5358
v -11.85518 0.8984478 31.5908

vt 0.325461 0.05401921
vt 0.2605623 0.01654986
vt 0.2358594 0.05933638
vt 0.3007582 0.09680572
vt 0.402781 0.5434648
vt 0.402781 3.649748E-06
vt 0.3777093 0.0001082609
vt 0.3777093 0.5435693
vt 0.3501638 0.1717442
vt 0.3007582 0.1717442
vt 0.3501638 0.09680572
vt 0.4529772 0.5434647
vt 0.4529772 3.560184E-06
vt 0.2358594 0.2092135
vt 0.325461 0.2145307
vt 0.2605623 0.252
vt 0.4781017 0.5435692
vt 0.4781017 0.000108149
vt 0.1709606 0.1717442
vt 0.2111565 0.252
vt 0.1462579 0.2145307
vt 0.5043323 0.5435672
vt 0.5294042 0.5434625
vt 0.5043323 0.0001060442
vt 0.5294042 1.522594E-06
vt 0.1709607 0.09680572
vt 0.121555 0.09680572
vt 0.121555 0.1717442
vt 0.5796003 0.5434625
vt 0.5796003 1.43303E-06
vt 0.2111566 0.01654986
vt 0.1462579 0.05401921
vt 0.6047248 0.0001059546
vt 0.6047248 0.5435671
vt 0.1923882 0.1593731
vt 0.1923882 0.1091769
vt 0.2358594 0.0840788
vt 0.2793307 0.1091769
vt 0.2358594 0.1844712
vt 0.2793307 0.1593731
vt 0.7839123 0.04638849
vt 0.7190135 0.008919232
vt 0.6541148 0.04638849
vt 0.6541148 0.1213272
vt 0.7190135 0.1587964
vt 0.7839123 0.1213272
vt 0.2379792 0.4581449
vt 0.3275807 0.4634621
vt 0.3028779 0.4206755
vt 0.262682 0.5009314
vt 0.1007875 0.5435706
vt 0.1003923 0.0001095733
vt 0.07566307 0.543466
vt 0.07526786 4.973692E-06
vt 0.3522836 0.4206755
vt 0.3522836 0.3457369
vt 0.3028779 0.3457369
vt 0.02546694 0.5434662
vt 0.02507173 5.067926E-06
vt 0.3275807 0.3029504
vt 0.262682 0.2654811
vt 0.2379792 0.3082677
vt 0 0.0001096675
vt 0.0003952168 0.5435708
vt 0.2132763 0.2654811
vt 0.1483776 0.3029504
vt 0.1730804 0.3457369
vt 0.9337013 0.0001045216
vt 0.9085769 0
vt 0.9081817 0.5434611
vt 0.9333062 0.5435656
vt 0.1236748 0.4206755
vt 0.1236748 0.3457369
vt 0.1730804 0.4206755
vt 0.8583809 8.956437E-08
vt 0.8579856 0.5434611
vt 0.2132763 0.5009314
vt 0.1483776 0.4634621
vt 0.8329138 0.5435658
vt 0.8333092 0.0001046112
vt 0.1945079 0.4083043
vt 0.1945079 0.3581081
vt 0.2814504 0.4083043
vt 0.2379792 0.4334024
vt 0.2379792 0.33301
vt 0.2814504 0.3581081
vt 0.402781 0.6175731
vt 0.3777093 0.6176776
vt 0.4529772 0.617573
vt 0.4781017 0.6176776
vt 0.5043323 0.6176755
vt 0.5294042 0.6175709
vt 0.5796003 0.6175709
vt 0.6047248 0.6176753
vt 0.2796621 0.6669791
vt 0.3537706 0.6673741
vt 0.3537969 0.6423805
vt 0.2796884 0.6419852
vt 0.2796622 0.7171751
vt 0.3537706 0.7175701
vt 0.2796885 0.7423777
vt 0.3537969 0.7427728
vt 0.7027455 0.7423751
vt 0.7027192 0.7171724
vt 0.6286371 0.7427703
vt 0.6286108 0.7175675
vt 0.7027193 0.6669764
vt 0.6286108 0.6673716
vt 0.6286371 0.6423782
vt 0.7027456 0.6419827
vt 0.5900126 0.7102062
vt 0.6085702 0.6654325
vt 0.5915565 0.654625
vt 0.5545022 0.6916792
vt 0.619354 0.6408342
vt 0.61011 0.6362024
vt 0.3908248 0.6546273
vt 0.372324 0.6362047
vt 0.3738111 0.6654348
vt 0.3630801 0.6408365
vt 0.4278792 0.6916814
vt 0.3923688 0.7102085
vt 0.4032025 0.7350157
vt 0.4464325 0.710313
vt 0.5792314 0.7350137
vt 0.5360014 0.7103109
vt 0.5328872 0.6530812
vt 0.5822929 0.6360979
vt 0.6054782 0.6269389
vt 0.4000884 0.6361001
vt 0.3769558 0.6269412
vt 0.4494941 0.6530833
vt 0.4711354 0.6609155
vt 0.5112986 0.6609134
vt 0.7558211 0.8391494
vt 0.01513088 0.8391506
vt 0.01515726 0.8643533
vt 0.7558475 0.864352
vt 0.7558209 0.7889534
vt 0.01513088 0.7889546
vt 0.7558473 0.7639595
vt 0.01515726 0.7639606
vt 0.008912655 0.8996077
vt 0.008886367 0.9246013
vt 0.7496028 0.8996064
vt 0.7495764 0.9246004
vt 0.008886188 0.9747973
vt 0.7495764 0.9747962
vt 0.7496028 0.9999989
vt 0.008912564 1
vt 0.8575904 0.6175694
vt 0.8325186 0.6176741
vt 0.9077864 0.6175694
vt 0.932911 0.6176739
vt 0.0007904336 0.617679
vt 0.02586216 0.6175746
vt 0.07605829 0.6175744
vt 0.1011827 0.6176789
vt 0.7348666 0.6669756
vt 0.8085799 0.6673704
vt 0.8086062 0.6423769
vt 0.7348928 0.6419817
vt 0.7348666 0.7171715
vt 0.8085799 0.7175664
vt 0.7348928 0.7423742
vt 0.8086062 0.7427691
vt 0.1988084 0.7423788
vt 0.1987821 0.717176
vt 0.1250951 0.7427739
vt 0.1250688 0.7175713
vt 0.1987821 0.6669801
vt 0.1250688 0.6673752
vt 0.1250951 0.6423817
vt 0.1988084 0.6419862
vt 0.08647056 0.7102098
vt 0.1050282 0.665436
vt 0.08801449 0.6546286
vt 0.05096022 0.6916828
vt 0.1158119 0.6408377
vt 0.1065679 0.636206
vt 0.8456343 0.6546237
vt 0.8271334 0.6362013
vt 0.8286204 0.6654311
vt 0.8178894 0.640833
vt 0.8826883 0.6916779
vt 0.8471782 0.710205
vt 0.8580119 0.7350122
vt 0.901242 0.7103094
vt 0.07568941 0.7350172
vt 0.03245943 0.7103145
vt 0.02934523 0.6530848
vt 0.07875093 0.6361015
vt 0.1019362 0.6269425
vt 0.8548977 0.6360967
vt 0.8317652 0.6269376
vt 0.9043034 0.6530797
vt 0.9259449 0.660912
vt 0.00775658 0.6609171

vn -0.5000001 0 0.8660254
vn -1 0 0
vn -0.4999995 0 0.8660257
vn 0.5000001 -1.204446E-07 0.8660254
vn 0.5 -2.064765E-07 0.8660254
vn 1 -1.720637E-08 -1.720638E-08
vn 0.5 1.720638E-08 -0.8660254
vn 0.4999995 0 -0.8660257
vn -0.5000001 0 -0.8660254
vn -0.4999995 0 -0.8660257
vn 0 1 0
vn 0 -1 0
vn 0.9999954 -0.003030052 -7.742875E-08
vn 0.9999997 -0.0007272214 -3.441274E-08
vn 0.4999984 -0.001515006 0.866025
vn -0.4999982 0.001514962 0.866025
vn -0.9999997 0.0007272182 1.720637E-08
vn -0.9999954 0.003030059 9.463514E-08
vn -0.4999984 0.001515073 -0.866025
vn 0.4999982 -0.001515047 -0.8660251
vn -0.4986936 -0.03609639 0.8660264
vn -0.9984049 -0.05645895 0
vn 0.5040447 0.03264141 0.8630605
vn 0.9968019 0.07991207 0
vn 0.5040447 0.03264141 -0.8630605
vn -0.4986936 -0.03609639 -0.8660264
vn 0.001333176 -0.4999967 0.8660263
vn -0.02278808 -0.4994314 0.8660536
vn -0.06233595 -0.9980552 0
vn 0.002667117 -0.9999964 4.129549E-07
vn -0.001332904 0.4999972 0.866026
vn 0.04124897 0.4951437 0.8678313
vn -0.002665341 0.9999964 -2.064772E-07
vn 0.07525016 0.9971647 -2.068353E-07
vn -0.001332718 0.4999974 -0.8660259
vn 0.04124881 0.4951439 -0.8678312
vn 0.001333235 -0.4999963 -0.8660265
vn -0.02278808 -0.4994314 -0.8660536
vn 0.1590791 0.458127 -0.8745362
vn -0.1541666 -0.4617269 -0.8735222
vn -0.3605784 -0.3248191 -0.874343
vn 0.346495 0.339716 -0.8743765
vn -0.3089169 -0.9510891 1.765287E-08
vn -0.7268075 -0.6868412 0
vn -0.3605784 -0.3248191 0.874343
vn -0.1541666 -0.4617268 0.8735222
vn 0.346495 0.339716 0.8743765
vn 0.1590791 0.458127 0.8745362
vn 0.3293461 0.9442093 1.756998E-08
vn 0.7268668 0.6867784 0
vn 0.4885988 0.1531613 -0.8589603
vn -0.4774037 -0.1412708 -0.8672533
vn -0.963389 -0.2681073 8.69811E-09
vn -0.4774037 -0.1412708 0.8672533
vn 0.4885988 0.1531613 0.8589603
vn 0.953035 0.3028602 0
vn 0.00133975 0.4999977 0.8660257
vn 0.0026795 0.9999964 0
vn -0.001340381 -0.499996 0.8660267
vn -0.002681992 -0.9999964 3.957491E-07
vn -0.001340385 -0.4999956 -0.8660269
vn 0.001339778 0.4999977 -0.8660257
vn 0.4986682 -0.03742969 -0.8659844
vn 0.9982512 -0.05911402 -8.585296E-08
vn -0.5040216 0.03397932 -0.8630223
vn -0.9965858 0.08256426 1.119974E-07
vn -0.5040212 0.03397931 0.8630226
vn 0.4986687 -0.03742962 0.8659841
vn 0.0227812 -0.4994314 -0.8660538
vn 0.06232128 -0.9980562 0
vn -0.04124213 0.495144 -0.8678315
vn -0.07523607 0.9971657 0
vn -0.04124188 0.495144 0.8678315
vn 0.0227813 -0.4994315 0.8660538
vn -0.1590788 0.458127 0.8745362
vn 0.1541672 -0.4617268 0.8735221
vn 0.3605787 -0.3248191 0.8743429
vn -0.3464947 0.3397161 0.8743765
vn 0.308918 -0.9510887 1.765287E-08
vn 0.7268081 -0.6868406 -4.52018E-08
vn 0.3605781 -0.3248192 -0.8743432
vn 0.1541666 -0.4617268 -0.8735222
vn -0.3464953 0.339716 -0.8743764
vn -0.1590793 0.458127 -0.8745362
vn -0.3293461 0.9442093 5.270994E-08
vn -0.7268668 0.6867784 9.884702E-08
vn -0.4885986 0.1531613 0.8589604
vn 0.4774038 -0.1412721 0.867253
vn 0.9633877 -0.2681123 -8.698105E-08
vn 0.4774033 -0.141272 -0.8672533
vn -0.488599 0.1531613 -0.8589602
vn -0.9530351 0.3028596 5.173815E-08

g GuardRail_01_snaps002
usemtl Machine_Blue_snaps002
f 18/43/12 14/42/12 9/41/12
f 2/45/12 9/41/12 1/46/12
f 26/46/12 33/41/12 28/45/12
f 33/41/12 37/42/12 41/43/12
f 3/3/2 2/2/2 1/1/1
f 1/1/1 4/4/1 3/3/2
f 7/7/2 6/6/3 5/5/3
f 5/5/3 8/8/2 7/7/2
f 9/9/4 10/10/5 4/4/1
f 4/4/1 1/11/1 9/9/4
f 6/6/3 12/13/5 11/12/5
f 11/12/5 5/5/3 6/6/3
f 13/14/6 10/10/5 9/15/4
f 9/15/4 14/16/6 13/14/6
f 16/18/6 15/17/6 11/12/5
f 11/12/5 12/13/5 16/18/6
f 18/21/7 17/19/7 13/14/6
f 13/14/6 14/20/6 18/21/7
f 20/25/8 19/23/8 15/22/6
f 15/22/6 16/24/6 20/25/8
f 22/27/9 21/26/9 17/19/7
f 17/19/7 18/28/7 22/27/9
f 24/30/10 23/29/10 19/23/8
f 19/23/8 20/25/8 24/30/10
f 21/26/9 22/32/9 2/31/2
f 2/31/2 3/3/2 21/26/9
f 23/29/10 24/30/10 7/33/2
f 7/33/2 8/34/2 23/29/10
f 21/26/11 24/36/11 20/35/11
f 20/35/11 17/19/11 21/26/11
f 4/4/11 6/38/11 7/37/11
f 7/37/11 3/3/11 4/4/11
f 3/3/11 7/37/11 24/36/11
f 24/36/11 21/26/11 3/3/11
f 17/19/11 20/35/11 16/39/11
f 16/39/11 13/14/11 17/19/11
f 13/14/11 16/39/11 12/40/11
f 12/40/11 10/10/11 13/14/11
f 10/10/11 12/40/11 6/38/11
f 6/38/11 4/4/11 10/10/11
f 22/44/12 18/43/12 9/41/12
f 9/41/12 2/45/12 22/44/12
f 25/47/6 27/49/4 26/48/4
f 26/48/4 28/50/6 25/47/6
f 32/54/4 30/52/14 29/51/13
f 29/51/13 31/53/15 32/54/4
f 33/56/1 26/55/4 27/49/4
f 27/49/4 34/57/3 33/56/1
f 32/54/4 31/53/15 35/58/16
f 35/58/16 36/59/1 32/54/4
f 38/62/2 37/61/2 33/60/1
f 33/60/1 34/57/3 38/62/2
f 40/64/18 39/63/17 36/59/1
f 36/59/1 35/58/16 40/64/18
f 42/67/9 41/66/9 37/65/2
f 37/65/2 38/62/2 42/67/9
f 44/70/19 43/69/9 39/68/17
f 39/68/17 40/71/18 44/70/19
f 45/72/7 41/73/9 42/67/9
f 42/67/9 46/74/7 45/72/7
f 47/75/7 43/69/9 44/70/19
f 44/70/19 48/76/20 47/75/7
f 45/78/7 46/74/7 25/47/6
f 25/47/6 28/77/6 45/78/7
f 47/75/7 48/76/20 29/79/13
f 29/79/13 30/80/14 47/75/7
f 47/81/11 46/74/11 42/67/11
f 42/67/11 43/82/11 47/81/11
f 32/83/11 27/49/11 25/47/11
f 25/47/11 30/84/11 32/83/11
f 30/84/11 25/47/11 46/74/11
f 46/74/11 47/81/11 30/84/11
f 43/82/11 42/67/11 38/62/11
f 38/62/11 39/85/11 43/82/11
f 39/85/11 38/62/11 34/57/11
f 34/57/11 36/86/11 39/85/11
f 36/86/11 34/57/11 27/49/11
f 27/49/11 32/83/11 36/86/11
f 41/43/12 45/44/12 28/45/12
f 28/45/12 33/41/12 41/43/12
f 8/8/2 5/5/3 49/87/21
f 49/87/21 50/88/22 8/8/2
f 5/5/3 11/12/5 51/89/23
f 51/89/23 49/87/21 5/5/3
f 15/17/6 52/90/24 51/89/23
f 51/89/23 11/12/5 15/17/6
f 19/23/8 53/92/25 52/91/24
f 52/91/24 15/22/6 19/23/8
f 23/29/10 54/93/26 53/92/25
f 53/92/25 19/23/8 23/29/10
f 54/93/26 23/29/10 8/34/2
f 8/34/2 50/94/22 54/93/26
f 57/97/29 56/96/28 55/95/27
f 55/95/27 58/98/30 57/97/29
f 56/96/28 60/100/32 59/99/31
f 59/99/31 55/95/27 56/96/28
f 62/102/34 61/101/33 59/99/31
f 59/99/31 60/100/32 62/102/34
f 64/106/36 63/104/35 61/103/33
f 61/103/33 62/105/34 64/106/36
f 66/108/38 65/107/37 63/104/35
f 63/104/35 64/106/36 66/108/38
f 65/107/37 66/108/38 57/109/29
f 57/109/29 58/110/30 65/107/37
f 66/108/38 64/106/36 67/111/39
f 67/111/39 68/112/40 66/108/38
f 70/114/42 69/113/41 68/112/40
f 68/112/40 67/111/39 70/114/42
f 68/112/40 71/115/43 57/109/29
f 57/109/29 66/108/38 68/112/40
f 68/112/40 69/113/41 72/116/44
f 72/116/44 71/115/43 68/112/40
f 71/120/43 72/118/44 73/117/45
f 73/117/45 74/119/46 71/120/43
f 71/120/43 74/119/46 56/96/28
f 56/96/28 57/97/29 71/120/43
f 74/119/46 73/117/45 75/121/47
f 75/121/47 76/122/48 74/119/46
f 60/100/32 56/96/28 74/119/46
f 74/119/46 76/122/48 60/100/32
f 77/123/49 62/102/34 60/100/32
f 60/100/32 76/122/48 77/123/49
f 78/124/50 77/123/49 76/122/48
f 76/122/48 75/121/47 78/124/50
f 77/125/49 67/111/39 64/106/36
f 64/106/36 62/105/34 77/125/49
f 78/126/50 70/114/42 67/111/39
f 67/111/39 77/125/49 78/126/50
f 80/128/52 69/113/41 70/114/42
f 70/114/42 79/127/51 80/128/52
f 53/92/25 54/93/26 80/128/52
f 80/128/52 79/127/51 53/92/25
f 80/128/52 81/129/53 72/116/44
f 72/116/44 69/113/41 80/128/52
f 54/93/26 50/94/22 81/129/53
f 81/129/53 80/128/52 54/93/26
f 81/131/53 50/88/22 49/87/21
f 49/87/21 82/130/54 81/131/53
f 72/118/44 81/131/53 82/130/54
f 82/130/54 73/117/45 72/118/44
f 82/130/54 49/87/21 51/89/23
f 51/89/23 83/132/55 82/130/54
f 73/117/45 82/130/54 83/132/55
f 83/132/55 75/121/47 73/117/45
f 83/132/55 84/133/56 78/124/50
f 78/124/50 75/121/47 83/132/55
f 51/89/23 52/90/24 84/133/56
f 84/133/56 83/132/55 51/89/23
f 79/127/51 70/114/42 78/126/50
f 78/126/50 84/134/56 79/127/51
f 52/91/24 53/92/25 79/127/51
f 79/127/51 84/134/56 52/91/24
f 86/137/58 85/136/57 59/135/31
f 59/135/31 61/138/33 86/137/58
f 85/136/57 87/140/59 55/139/27
f 55/139/27 59/135/31 85/136/57
f 88/142/60 58/141/30 55/139/27
f 55/139/27 87/140/59 88/142/60
f 89/146/61 65/144/37 58/143/30
f 58/143/30 88/145/60 89/146/61
f 90/148/62 63/147/35 65/144/37
f 65/144/37 89/146/61 90/148/62
f 63/147/35 90/148/62 86/149/58
f 86/149/58 61/150/33 63/147/35
f 29/79/13 48/76/20 91/151/63
f 91/151/63 92/152/64 29/79/13
f 48/76/20 44/70/19 93/153/65
f 93/153/65 91/151/63 48/76/20
f 40/71/18 94/154/66 93/153/65
f 93/153/65 44/70/19 40/71/18
f 35/58/16 95/156/67 94/155/66
f 94/155/66 40/64/18 35/58/16
f 31/53/15 96/157/68 95/156/67
f 95/156/67 35/58/16 31/53/15
f 96/157/68 31/53/15 29/51/13
f 29/51/13 92/158/64 96/157/68
f 98/161/70 97/160/69 89/159/61
f 89/159/61 88/162/60 98/161/70
f 97/160/69 99/164/71 90/163/62
f 90/163/62 89/159/61 97/160/69
f 100/166/72 86/165/58 90/163/62
f 90/163/62 99/164/71 100/166/72
f 101/170/73 85/168/57 86/167/58
f 86/167/58 100/169/72 101/170/73
f 102/172/74 87/171/59 85/168/57
f 85/168/57 101/170/73 102/172/74
f 87/171/59 102/172/74 98/173/70
f 98/173/70 88/174/60 87/171/59
f 102/172/74 101/170/73 103/175/75
f 103/175/75 104/176/76 102/172/74
f 106/178/78 105/177/77 104/176/76
f 104/176/76 103/175/75 106/178/78
f 104/176/76 107/179/79 98/173/70
f 98/173/70 102/172/74 104/176/76
f 104/176/76 105/177/77 108/180/80
f 108/180/80 107/179/79 104/176/76
f 107/184/79 108/182/80 109/181/81
f 109/181/81 110/183/82 107/184/79
f 107/184/79 110/183/82 97/160/69
f 97/160/69 98/161/70 107/184/79
f 110/183/82 109/181/81 111/185/83
f 111/185/83 112/186/84 110/183/82
f 99/164/71 97/160/69 110/183/82
f 110/183/82 112/186/84 99/164/71
f 113/187/85 100/166/72 99/164/71
f 99/164/71 112/186/84 113/187/85
f 114/188/86 113/187/85 112/186/84
f 112/186/84 111/185/83 114/188/86
f 113/189/85 103/175/75 101/170/73
f 101/170/73 100/169/72 113/189/85
f 114/190/86 106/178/78 103/175/75
f 103/175/75 113/189/85 114/190/86
f 116/192/88 105/177/77 106/178/78
f 106/178/78 115/191/87 116/192/88
f 95/156/67 96/157/68 116/192/88
f 116/192/88 115/191/87 95/156/67
f 116/192/88 117/193/89 108/180/80
f 108/180/80 105/177/77 116/192/88
f 96/157/68 92/158/64 117/193/89
f 117/193/89 116/192/88 96/157/68
f 117/195/89 92/152/64 91/151/63
f 91/151/63 118/194/90 117/195/89
f 108/182/80 117/195/89 118/194/90
f 118/194/90 109/181/81 108/182/80
f 118/194/90 91/151/63 93/153/65
f 93/153/65 119/196/91 118/194/90
f 109/181/81 118/194/90 119/196/91
f 119/196/91 111/185/83 109/181/81
f 119/196/91 120/197/92 114/188/86
f 114/188/86 111/185/83 119/196/91
f 93/153/65 94/154/66 120/197/92
f 120/197/92 119/196/91 93/153/65
f 115/191/87 106/178/78 114/190/86
f 114/190/86 120/198/92 115/191/87
f 94/155/66 95/156/67 115/191/87
f 115/191/87 120/198/92 94/155/66

