# ProBuilder 4.0.5
# https://unity3d.com/unity/features/worldbuilding/probuilder
# 9/25/2019 9:32:22 PM

mtllib ./railRoundRight.mtl
o railRoundRight

g GuardRail_01_End_snaps002 (2)
v 4.654999 3.25 32.23587
v 4.607599 3.25 32.15377
v 4.607599 3.3125 32.15377
v 4.654999 3.3125 32.23587
v 4.670649 4 32.20876
v 4.670649 3.3125 32.20876
v 4.638899 3.3125 32.15377
v 4.638899 4 32.15377
v 4.749799 3.25 32.23587
v 4.749799 3.3125 32.23587
v 4.734149 4 32.20876
v 4.734149 3.3125 32.20876
v 4.797199 3.3125 32.15377
v 4.797199 3.25 32.15377
v 4.765899 4 32.15377
v 4.765899 3.3125 32.15377
v 4.749799 3.3125 32.07167
v 4.749799 3.25 32.07167
v 4.734149 4 32.09878
v 4.734149 3.3125 32.09878
v 4.654999 3.3125 32.07167
v 4.654999 3.25 32.07167
v 4.670649 4 32.09878
v 4.670649 3.3125 32.09878
v 4.670649 4.09375 32.20876
v 4.638899 4.09375 32.15377
v 4.734149 4.09375 32.20876
v 4.765899 4.09375 32.15377
v 4.734149 4.09375 32.09878
v 4.670649 4.09375 32.09878
v 4.514899 4.15625 32.20876
v 4.608649 4.15675 32.20876
v 4.608649 4.125 32.15377
v 4.514899 4.1245 32.15377
v 4.514899 4.21975 32.20876
v 4.608649 4.22025 32.20876
v 4.514899 4.2515 32.15377
v 4.608649 4.252 32.15377
v 4.514899 4.21975 32.09878
v 4.608649 4.22025 32.09878
v 4.514899 4.15625 32.09878
v 4.608649 4.15675 32.09878
v 4.657477 4.210938 32.09878
v 4.634001 4.154297 32.09878
v 4.655524 4.140625 32.09878
v 4.702399 4.1875 32.09878
v 4.620392 4.123047 32.15377
v 4.632086 4.117188 32.15377
v 4.655524 4.140625 32.20876
v 4.634001 4.154297 32.20876
v 4.702399 4.1875 32.20876
v 4.657477 4.210938 32.20876
v 4.671149 4.242188 32.15377
v 4.725836 4.210938 32.15377
v 4.729743 4.138672 32.09878
v 4.667243 4.117188 32.09878
v 4.637946 4.105469 32.15377
v 4.667243 4.117188 32.20876
v 4.729743 4.138672 32.20876
v 4.757086 4.148448 32.15377
v 4.046399 4.2515 32.15377
v 4.046399 4.21975 32.20876
v 4.046399 4.15625 32.20876
v 4.046399 4.1245 32.15377
v 4.046399 4.15625 32.09878
v 4.046399 4.21975 32.09878

vt 0.3382306 0.05401929
vt 0.2733319 0.01654995
vt 0.248629 0.05933647
vt 0.3135278 0.09680581
vt 0.402781 0.5434648
vt 0.402781 3.649748E-06
vt 0.3777093 0.0001082609
vt 0.3777093 0.5435693
vt 0.3629335 0.1717443
vt 0.3135278 0.1717443
vt 0.3629335 0.09680581
vt 0.4529772 0.5434647
vt 0.4529772 3.560184E-06
vt 0.2486291 0.2092136
vt 0.3382306 0.2145308
vt 0.2733319 0.2520001
vt 0.4781017 0.5435692
vt 0.4781017 0.000108149
vt 0.1837302 0.1717443
vt 0.2239261 0.2520001
vt 0.1590275 0.2145308
vt 0.5043323 0.5435672
vt 0.5294042 0.5434625
vt 0.5043323 0.0001060442
vt 0.5294042 1.522594E-06
vt 0.1837303 0.09680581
vt 0.1343246 0.09680581
vt 0.1343246 0.1717443
vt 0.5796003 0.5434625
vt 0.5796003 1.43303E-06
vt 0.2239262 0.01654995
vt 0.1590275 0.05401929
vt 0.6047248 0.0001059546
vt 0.6047248 0.5435671
vt 0.2051578 0.1593731
vt 0.2051578 0.109177
vt 0.248629 0.08407889
vt 0.2921003 0.109177
vt 0.2486291 0.1844713
vt 0.2921003 0.1593731
vt 0.1451567 0.6937696
vt 0.08025789 0.6563004
vt 0.01535922 0.6937696
vt 0.01535922 0.7687083
vt 0.08025795 0.8061776
vt 0.1451567 0.7687083
vt 0.402781 0.6175731
vt 0.3777093 0.6176776
vt 0.4529772 0.617573
vt 0.4781017 0.6176776
vt 0.5043323 0.6176755
vt 0.5294042 0.6175709
vt 0.5796003 0.6175709
vt 0.6047248 0.6176753
vt 0.2796621 0.6669791
vt 0.3537706 0.6673741
vt 0.3537969 0.6423805
vt 0.2796884 0.6419852
vt 0.2796622 0.7171751
vt 0.3537706 0.7175701
vt 0.2796885 0.7423777
vt 0.3537969 0.7427728
vt 0.7027455 0.7423751
vt 0.7027192 0.7171724
vt 0.6286371 0.7427703
vt 0.6286108 0.7175675
vt 0.7027193 0.6669764
vt 0.6286108 0.6673716
vt 0.6286371 0.6423782
vt 0.7027456 0.6419827
vt 0.5900126 0.7102062
vt 0.6085702 0.6654325
vt 0.5915565 0.654625
vt 0.5545022 0.6916792
vt 0.619354 0.6408342
vt 0.61011 0.6362024
vt 0.3908248 0.6546273
vt 0.372324 0.6362047
vt 0.3738111 0.6654348
vt 0.3630801 0.6408365
vt 0.4278792 0.6916814
vt 0.3923688 0.7102085
vt 0.4032025 0.7350157
vt 0.4464325 0.710313
vt 0.5792314 0.7350137
vt 0.5360014 0.7103109
vt 0.5328872 0.6530812
vt 0.5822929 0.6360979
vt 0.6054782 0.6269389
vt 0.4000884 0.6361001
vt 0.3769558 0.6269412
vt 0.4494941 0.6530833
vt 0.4711354 0.6609155
vt 0.5112986 0.6609134
vt 0.2456453 0.6464365
vt 0.2456446 0.2760914
vt 0.2204425 0.6464629
vt 0.2204419 0.2761178
vt 0.1702459 0.276118
vt 0.1702466 0.646463
vt 0.1452521 0.2760915
vt 0.1452526 0.6464366
vt 0.02103788 0.2777342
vt 0.02103848 0.6480792
vt 0.04603214 0.6481055
vt 0.04603166 0.2777605
vt 0.09622759 0.2777606
vt 0.09622813 0.6481057
vt 0.1214308 0.6480793
vt 0.1214303 0.2777342
vt 0.0648411 0.008660913
vt 0.009848483 0.04041135
vt 0.1198337 0.04041135
vt 0.009848483 0.1039113
vt 0.1198337 0.1039113
vt 0.0648411 0.1356614

vn -0.5000001 0 0.8660254
vn -1 0 0
vn -0.4999995 0 0.8660257
vn 0.5000001 -1.204446E-07 0.8660254
vn 0.5 -2.064765E-07 0.8660254
vn 1 -1.720637E-08 -1.720638E-08
vn 0.5 1.720638E-08 -0.8660254
vn 0.4999995 0 -0.8660257
vn -0.5000001 0 -0.8660254
vn -0.4999995 0 -0.8660257
vn 0 1 0
vn 0 -1 0
vn -0.4986936 -0.03609639 0.8660264
vn -0.9984049 -0.05645895 0
vn 0.5040447 0.03264141 0.8630605
vn 0.9968019 0.07991207 0
vn 0.5040447 0.03264141 -0.8630605
vn -0.4986936 -0.03609639 -0.8660264
vn 0.001333176 -0.4999967 0.8660263
vn -0.02278808 -0.4994314 0.8660536
vn -0.06233595 -0.9980552 0
vn 0.002667117 -0.9999964 2.064775E-07
vn -0.001332888 0.499997 0.8660261
vn 0.04124897 0.4951437 0.8678313
vn -0.002665309 0.9999964 -2.064772E-07
vn 0.07525016 0.9971647 -2.068353E-07
vn -0.001332702 0.4999972 -0.866026
vn 0.04124881 0.4951439 -0.8678312
vn 0.001333235 -0.4999965 -0.8660263
vn -0.02278808 -0.4994314 -0.8660536
vn 0.1590791 0.458127 -0.8745362
vn -0.1541666 -0.4617269 -0.8735222
vn -0.3605784 -0.3248191 -0.874343
vn 0.346495 0.339716 -0.8743765
vn -0.3089169 -0.9510891 1.765287E-08
vn -0.7268075 -0.6868412 0
vn -0.3605784 -0.3248191 0.874343
vn -0.1541666 -0.4617268 0.8735222
vn 0.346495 0.339716 0.8743765
vn 0.1590791 0.458127 0.8745362
vn 0.3293461 0.9442093 1.756998E-08
vn 0.7268668 0.6867784 0
vn 0.4885988 0.1531613 -0.8589603
vn -0.4774037 -0.1412708 -0.8672533
vn -0.963389 -0.2681073 8.69811E-09
vn -0.4774037 -0.1412708 0.8672533
vn 0.4885988 0.1531613 0.8589603
vn 0.953035 0.3028602 0
vn 4.261119E-09 0.499999 0.866026
vn -2.754497E-08 -0.4999978 0.8660267
vn -3.606693E-08 -0.4999974 -0.8660269
vn 5.935094E-08 0.499999 -0.866026

g GuardRail_01_End_snaps002 (2)
usemtl Machine_Blue_snaps002
f 18/43/12 14/42/12 9/41/12
f 2/45/12 9/41/12 1/46/12
f 63/113/2 65/112/2 64/111/2
f 61/116/2 66/114/2 62/115/2
f 3/3/2 2/2/2 1/1/1
f 1/1/1 4/4/1 3/3/2
f 7/7/2 6/6/3 5/5/3
f 5/5/3 8/8/2 7/7/2
f 9/9/4 10/10/5 4/4/1
f 4/4/1 1/11/1 9/9/4
f 6/6/3 12/13/5 11/12/5
f 11/12/5 5/5/3 6/6/3
f 13/14/6 10/10/5 9/15/4
f 9/15/4 14/16/6 13/14/6
f 16/18/6 15/17/6 11/12/5
f 11/12/5 12/13/5 16/18/6
f 18/21/7 17/19/7 13/14/6
f 13/14/6 14/20/6 18/21/7
f 20/25/8 19/23/8 15/22/6
f 15/22/6 16/24/6 20/25/8
f 22/27/9 21/26/9 17/19/7
f 17/19/7 18/28/7 22/27/9
f 24/30/10 23/29/10 19/23/8
f 19/23/8 20/25/8 24/30/10
f 21/26/9 22/32/9 2/31/2
f 2/31/2 3/3/2 21/26/9
f 23/29/10 24/30/10 7/33/2
f 7/33/2 8/34/2 23/29/10
f 21/26/11 24/36/11 20/35/11
f 20/35/11 17/19/11 21/26/11
f 4/4/11 6/38/11 7/37/11
f 7/37/11 3/3/11 4/4/11
f 3/3/11 7/37/11 24/36/11
f 24/36/11 21/26/11 3/3/11
f 17/19/11 20/35/11 16/39/11
f 16/39/11 13/14/11 17/19/11
f 13/14/11 16/39/11 12/40/11
f 12/40/11 10/10/11 13/14/11
f 10/10/11 12/40/11 6/38/11
f 6/38/11 4/4/11 10/10/11
f 22/44/12 18/43/12 9/41/12
f 9/41/12 2/45/12 22/44/12
f 8/8/2 5/5/3 25/47/13
f 25/47/13 26/48/14 8/8/2
f 5/5/3 11/12/5 27/49/15
f 27/49/15 25/47/13 5/5/3
f 15/17/6 28/50/16 27/49/15
f 27/49/15 11/12/5 15/17/6
f 19/23/8 29/52/17 28/51/16
f 28/51/16 15/22/6 19/23/8
f 23/29/10 30/53/18 29/52/17
f 29/52/17 19/23/8 23/29/10
f 30/53/18 23/29/10 8/34/2
f 8/34/2 26/54/14 30/53/18
f 33/57/21 32/56/20 31/55/19
f 31/55/19 34/58/22 33/57/21
f 32/56/20 36/60/24 35/59/23
f 35/59/23 31/55/19 32/56/20
f 38/62/26 37/61/25 35/59/23
f 35/59/23 36/60/24 38/62/26
f 40/66/28 39/64/27 37/63/25
f 37/63/25 38/65/26 40/66/28
f 42/68/30 41/67/29 39/64/27
f 39/64/27 40/66/28 42/68/30
f 41/67/29 42/68/30 33/69/21
f 33/69/21 34/70/22 41/67/29
f 42/68/30 40/66/28 43/71/31
f 43/71/31 44/72/32 42/68/30
f 46/74/34 45/73/33 44/72/32
f 44/72/32 43/71/31 46/74/34
f 44/72/32 47/75/35 33/69/21
f 33/69/21 42/68/30 44/72/32
f 44/72/32 45/73/33 48/76/36
f 48/76/36 47/75/35 44/72/32
f 47/80/35 48/78/36 49/77/37
f 49/77/37 50/79/38 47/80/35
f 47/80/35 50/79/38 32/56/20
f 32/56/20 33/57/21 47/80/35
f 50/79/38 49/77/37 51/81/39
f 51/81/39 52/82/40 50/79/38
f 36/60/24 32/56/20 50/79/38
f 50/79/38 52/82/40 36/60/24
f 53/83/41 38/62/26 36/60/24
f 36/60/24 52/82/40 53/83/41
f 54/84/42 53/83/41 52/82/40
f 52/82/40 51/81/39 54/84/42
f 53/85/41 43/71/31 40/66/28
f 40/66/28 38/65/26 53/85/41
f 54/86/42 46/74/34 43/71/31
f 43/71/31 53/85/41 54/86/42
f 56/88/44 45/73/33 46/74/34
f 46/74/34 55/87/43 56/88/44
f 29/52/17 30/53/18 56/88/44
f 56/88/44 55/87/43 29/52/17
f 56/88/44 57/89/45 48/76/36
f 48/76/36 45/73/33 56/88/44
f 30/53/18 26/54/14 57/89/45
f 57/89/45 56/88/44 30/53/18
f 57/91/45 26/48/14 25/47/13
f 25/47/13 58/90/46 57/91/45
f 48/78/36 57/91/45 58/90/46
f 58/90/46 49/77/37 48/78/36
f 58/90/46 25/47/13 27/49/15
f 27/49/15 59/92/47 58/90/46
f 49/77/37 58/90/46 59/92/47
f 59/92/47 51/81/39 49/77/37
f 59/92/47 60/93/48 54/84/42
f 54/84/42 51/81/39 59/92/47
f 27/49/15 28/50/16 60/93/48
f 60/93/48 59/92/47 27/49/15
f 55/87/43 46/74/34 54/86/42
f 54/86/42 60/94/48 55/87/43
f 28/51/16 29/52/17 55/87/43
f 55/87/43 60/94/48 28/51/16
f 35/98/23 37/96/25 61/95/11
f 61/95/11 62/97/49 35/98/23
f 63/100/50 31/99/19 35/98/23
f 35/98/23 62/97/49 63/100/50
f 34/101/22 31/99/19 63/100/50
f 63/100/50 64/102/12 34/101/22
f 41/105/29 34/104/22 64/103/12
f 64/103/12 65/106/51 41/105/29
f 41/105/29 65/106/51 66/107/52
f 66/107/52 39/108/27 41/105/29
f 37/109/25 39/108/27 66/107/52
f 66/107/52 61/110/11 37/109/25
f 62/115/2 66/114/2 65/112/2
f 65/112/2 63/113/2 62/115/2

