# ProBuilder 4.0.5
# https://unity3d.com/unity/features/worldbuilding/probuilder
# 9/25/2019 8:52:10 PM

mtllib ./stairs2.mtl
o stairs2

g Quart_Stairs_01_snaps002
v 7.562501 1.3125 40
v 7.562501 1.3125 42
v 7.562501 1.4375 40
v 7.562501 1.4375 42
v 7.1875 1.3125 42
v 7.1875 1.4375 42
v 7.187501 1.3125 40
v 7.187501 1.4375 40
v 7.937501 1.8125 40
v 7.937501 1.8125 42
v 7.937501 1.9375 40
v 7.937501 1.9375 42
v 7.562501 1.8125 42
v 7.562501 1.9375 42
v 7.562501 1.8125 40
v 7.562501 1.9375 40
v 9.000002 3.125 40
v 9.000002 3.125 42
v 9.000002 3.25 40
v 9.000002 3.25 42
v 8.625001 3.125 42
v 8.625001 3.25 42
v 8.625002 3.125 40
v 8.625002 3.25 40
v 7.187501 0.890625 40
v 7.1875 0.890625 42
v 7.187501 1.015625 40
v 7.1875 1.015625 42
v 6.8125 0.890625 42
v 6.8125 1.015625 42
v 6.8125 0.890625 40
v 6.8125 1.015625 40
v 8.281252 2.25 40
v 8.281251 2.25 42
v 8.281252 2.375 40
v 8.281251 2.375 42
v 7.906251 2.25 42
v 7.906251 2.375 42
v 7.906251 2.25 40
v 7.906251 2.375 40
v 6.375 -0.125 40
v 6.375 -0.125 42
v 6.375 0 40
v 6.375 0 42
v 6 -0.125 42
v 6 0 42
v 6 -0.125 40
v 6 0 40
v 8.656252 2.6875 40
v 8.656251 2.6875 42
v 8.656252 2.8125 40
v 8.656251 2.8125 42
v 8.281251 2.6875 42
v 8.281251 2.8125 42
v 8.281252 2.6875 40
v 8.281252 2.8125 40
v 6.78125 0.375 40
v 6.78125 0.375 42
v 6.78125 0.5 40
v 6.78125 0.5 42
v 6.40625 0.375 42
v 6.40625 0.5 42
v 6.40625 0.375 40
v 6.40625 0.5 40
v 6.171875 0.953125 41.96875
v 6.1875 0.953125 41.99219
v 6.1875 -0.015625 41.99219
v 6.171875 -0.015625 41.96875
v 6.21875 -0.015625 41.99219
v 6.21875 0.984375 41.99219
v 6.234375 -0.015625 41.96875
v 6.234375 0.984375 41.96875
v 6.21875 -0.015625 41.94531
v 6.21875 0.984375 41.94531
v 6.1875 0.953125 41.94531
v 6.1875 -0.015625 41.94531
v 6.5 1.34375 42
v 6 0.734375 42
v 6.5 1.375 41.98438
v 6 0.765625 41.98438
v 6.5 1.375 41.95313
v 6 0.765625 41.95313
v 6.5 1.34375 41.9375
v 6 0.734375 41.9375
v 6.5 1.296875 41.95313
v 6 0.6875 41.95313
v 6.5 1.296875 41.98438
v 6 0.6875 41.98438
v 6 0.734375 41.96875
v 8.453126 3.71875 41.96875
v 8.468751 3.734375 41.99219
v 8.468751 2.796875 41.99219
v 8.453126 2.796875 41.96875
v 8.500001 2.796875 41.99219
v 8.500001 3.765625 41.99219
v 8.515626 2.796875 41.96875
v 8.515626 3.78125 41.96875
v 8.500001 2.796875 41.94531
v 8.500001 3.765625 41.94531
v 8.468751 3.734375 41.94531
v 8.468751 2.796875 41.94531
v 8.500001 3.78125 42
v 8.000001 3.171875 42
v 8.500001 3.8125 41.98438
v 8.000001 3.203125 41.98438
v 8.500001 3.8125 41.95313
v 8.000001 3.203125 41.95313
v 8.500001 3.78125 41.9375
v 8.000001 3.171875 41.9375
v 8.500001 3.734375 41.95313
v 8.000001 3.125 41.95313
v 8.500001 3.734375 41.98438
v 8.000001 3.125 41.98438
v 6.984375 1.921875 41.96875
v 7 1.9375 41.99219
v 7 0.984375 41.99219
v 6.984375 0.984375 41.96875
v 7.03125 0.984375 41.99219
v 7.03125 1.953125 41.99219
v 7.046875 0.984375 41.96875
v 7.046875 1.984375 41.96875
v 7.03125 0.984375 41.94531
v 7.03125 1.96875 41.94531
v 7 1.953125 41.94531
v 7 0.984375 41.94531
v 7 1.953125 42
v 7 1.984375 41.98438
v 7 1.984375 41.95313
v 7 1.953125 41.9375
v 7 1.90625 41.95313
v 7 1.90625 41.98438
v 8.890627 4.25 41.96875
v 8.906252 4.25 41.99219
v 8.906252 3.234375 41.99219
v 8.890627 3.234375 41.96875
v 8.937502 3.234375 41.99219
v 8.937502 4.296875 41.99219
v 8.953127 3.234375 41.96875
v 8.953127 4.3125 41.96875
v 8.937502 3.234375 41.94531
v 8.937502 4.296875 41.94531
v 8.906252 4.25 41.94531
v 8.906252 3.234375 41.94531
v 9.000002 4.390625 42
v 9.000002 4.421875 41.98438
v 9.000002 4.421875 41.95313
v 9.000002 4.390625 41.9375
v 9.000002 4.34375 41.95313
v 9.000002 4.34375 41.98438
v 9.000002 4.390625 41.96875
v 7.718751 2.84375 41.96875
v 7.734376 2.84375 41.99219
v 7.734376 1.921875 41.99219
v 7.718751 1.921875 41.96875
v 7.765626 1.921875 41.99219
v 7.765626 2.875 41.99219
v 7.781251 1.921875 41.96875
v 7.781251 2.875 41.96875
v 7.765626 1.921875 41.94531
v 7.765626 2.875 41.94531
v 7.734376 2.84375 41.94531
v 7.734376 1.921875 41.94531
v 7.5 2.5625 42
v 7.500001 2.59375 41.98438
v 7.500001 2.59375 41.95313
v 7.500001 2.5625 41.9375
v 7.500001 2.515625 41.95313
v 7.500001 2.515625 41.98438
v 6.171875 0.953125 40.03125
v 6.1875 0.953125 40.05469
v 6.1875 -0.015625 40.05469
v 6.171875 -0.015625 40.03125
v 6.21875 -0.015625 40.05469
v 6.21875 0.984375 40.05469
v 6.234375 -0.015625 40.03125
v 6.234375 0.984375 40.03125
v 6.21875 -0.015625 40.00781
v 6.21875 0.984375 40.00781
v 6.1875 0.953125 40.00781
v 6.1875 -0.015625 40.00781
v 6.5 1.34375 40.0625
v 6 0.734375 40.0625
v 6.5 1.375 40.04688
v 6 0.765625 40.04688
v 6.5 1.375 40.01563
v 6 0.765625 40.01563
v 6.5 1.34375 40
v 6 0.734375 40
v 6.5 1.296875 40.01563
v 6 0.6875 40.01563
v 6.5 1.296875 40.04688
v 6 0.6875 40.04688
v 6 0.734375 40.03125
v 8.453127 3.71875 40.03125
v 8.468752 3.734375 40.05469
v 8.468752 2.796875 40.05469
v 8.453127 2.796875 40.03125
v 8.500002 2.796875 40.05469
v 8.500002 3.765625 40.05469
v 8.515627 2.796875 40.03125
v 8.515627 3.78125 40.03125
v 8.500002 2.796875 40.00781
v 8.500002 3.765625 40.00781
v 8.468752 3.734375 40.00781
v 8.468752 2.796875 40.00781
v 8.500002 3.78125 40.0625
v 8.000001 3.171875 40.0625
v 8.500002 3.8125 40.04688
v 8.000001 3.203125 40.04688
v 8.500002 3.8125 40.01563
v 8.000001 3.203125 40.01563
v 8.500002 3.78125 40
v 8.000001 3.171875 40
v 8.500002 3.734375 40.01563
v 8.000001 3.125 40.01563
v 8.500002 3.734375 40.04688
v 8.000001 3.125 40.04688
v 6.984376 1.921875 40.03125
v 7.000001 1.9375 40.05469
v 7.000001 0.984375 40.05469
v 6.984376 0.984375 40.03125
v 7.031251 0.984375 40.05469
v 7.031251 1.953125 40.05469
v 7.046876 0.984375 40.03125
v 7.046876 1.984375 40.03125
v 7.031251 0.984375 40.00781
v 7.031251 1.96875 40.00781
v 7.000001 1.953125 40.00781
v 7.000001 0.984375 40.00781
v 7.000001 1.953125 40.0625
v 7.000001 1.984375 40.04688
v 7.000001 1.984375 40.01563
v 7.000001 1.953125 40
v 7.000001 1.90625 40.01563
v 7.000001 1.90625 40.04688
v 8.890627 4.25 40.03125
v 8.906252 4.25 40.05469
v 8.906252 3.234375 40.05469
v 8.890627 3.234375 40.03125
v 8.937502 3.234375 40.05469
v 8.937502 4.296875 40.05469
v 8.953127 3.234375 40.03125
v 8.953127 4.3125 40.03125
v 8.937502 3.234375 40.00781
v 8.937502 4.296875 40.00781
v 8.906252 4.25 40.00781
v 8.906252 3.234375 40.00781
v 9.000002 4.390625 40.0625
v 9.000002 4.421875 40.04688
v 9.000002 4.421875 40.01563
v 9.000002 4.390625 40
v 9.000002 4.34375 40.01563
v 9.000002 4.34375 40.04688
v 9.000002 4.390625 40.03125
v 7.718751 2.84375 40.03125
v 7.734376 2.84375 40.05469
v 7.734376 1.921875 40.05469
v 7.718751 1.921875 40.03125
v 7.765626 1.921875 40.05469
v 7.765626 2.875 40.05469
v 7.781251 1.921875 40.03125
v 7.781251 2.875 40.03125
v 7.765626 1.921875 40.00781
v 7.765626 2.875 40.00781
v 7.734376 2.84375 40.00781
v 7.734376 1.921875 40.00781
v 7.500001 2.5625 40.0625
v 7.500001 2.59375 40.04688
v 7.500001 2.59375 40.01563
v 7.500001 2.5625 40
v 7.500001 2.515625 40.01563
v 7.500001 2.515625 40.04688
v 6.375 0 40.75
v 6.375 0 41.25
v 6.375 -0.125 40.75
v 6.375 -0.125 41.25
v 9.000002 3.125 41.25
v 9.000002 3.125 40.75
v 9.000002 3 41.25
v 9.000002 3 40.75
v 7.687501 1.4375 41.25
v 7.687501 1.4375 40.75
v 7.687501 1.5625 41.25
v 7.687501 1.5625 40.75

vt 0.0555555 0.5297695
vt 0.9444444 0.5297694
vt 0.0555555 0.4742139
vt 0.9444444 0.4742138
vt 1 0.4742138
vt 1 0.3075472
vt 0.9444444 0.3075472
vt 0.9444444 0.2519916
vt 0.05555553 0.2519916
vt 0.05555553 0.3075472
vt 0 0.3075472
vt 0 0.4742138
vt 0.0555555 0.08532497
vt 0.9444444 0.08532492
vt 0.1041665 0.04056088
vt 0.1041665 0.05097755
vt 0.5347221 0.05097755
vt 0.5347221 0.04056088
vt 0.5347221 0.06486649
vt 0.09027762 0.06486649
vt 0.5347221 0.07738575
vt 0.09027762 0.07738575
vt 0.5347221 0.01625533
vt 0.5347221 0.003736072
vt 0.09027762 0.003736072
vt 0.09027762 0.01625533
vt 0.1041665 0.03014421
vt 0.5347221 0.03014421
vt 0.5892602 0.05125342
vt 0.9395934 0.05125337
vt 0.5785231 0.04003556
vt 0.9288563 0.04003546
vt 0.5785231 0.02614662
vt 0.9288563 0.02614662
vt 0.5892602 0.01492876
vt 0.9395934 0.01492882
vt 0.6053659 3.178914E-07
vt 0.9556993 3.178914E-07
vt 0.6053659 0.08007076
vt 0.9556993 0.08007076
vt 0.6053659 0.06618187
vt 0.9556993 0.06618187
vt 0.9427452 0.04697996
vt 0.9427452 0.03309107
vt 0.9635785 0.04003551
vt 0.9635785 0.02614662
vt 0.9427452 0.01920218
vt 0.1249999 0.04056093
vt 0.1249999 0.0509776
vt 0.111111 0.06486644
vt 0.111111 0.07738575
vt 0.111111 0.003736072
vt 0.111111 0.01625538
vt 0.1249999 0.03014427
vt 0.08333317 0.04056093
vt 0.08333317 0.0509776
vt 0.06249984 0.06486649
vt 0.0555554 0.07738575
vt 0.0555554 0.003736072
vt 0.06249984 0.01625538
vt 0.08333317 0.03014427
vt 0.5646341 0.01920197
vt 0.5646341 0.03309086
vt 0.5438007 0.02614641
vt 0.5438007 0.0400353
vt 0.5646341 0.04697974
vt 0.1180554 0.05097755
vt 0.1041666 0.06486644
vt 0.09722217 0.07738575
vt 0.09722217 0.003736072
vt 0.1041666 0.01625533
vt 0.1180555 0.03014421
vt 0.1180554 0.0400353
vt 0.111111 0.05045197
vt 0.5347221 0.05045197
vt 0.5347221 0.0400353
vt 0.5347221 0.06434086
vt 0.1041665 0.06434086
vt 0.5347221 0.07686011
vt 0.09027762 0.07686011
vt 0.5347221 0.01572975
vt 0.5347221 0.003210439
vt 0.09027762 0.003210439
vt 0.09722206 0.01572975
vt 0.1041665 0.02961863
vt 0.5347221 0.02961863
vt 0.07587913 0.7938596
vt 0.07587913 0.5882201
vt 0.02446926 0.7938596
vt 0.02446926 0.5882201
vt 0.9665469 0.7938592
vt 0.9665469 0.5882196
vt 0.9151369 0.7938592
vt 0.9151369 0.5882196
vt 0.03651425 0.5551532
vt 0.8757721 0.5551535
vt 0.8757721 0.8269261
vt 0.03651419 0.8269261

vn 1.000001 0 1.78814E-07
vn -1.78814E-07 0 1.000001
vn -1.000001 0 -1.78814E-07
vn 1.78814E-07 0 -1.000001
vn 0 1 0
vn 0 -1 0
vn -0.4718584 0 0.881675
vn 0.4718581 0 0.8816752
vn 0.4718584 0 -0.881675
vn -0.4718581 0 -0.8816752
vn -0.07090577 0.05817891 0.9957855
vn -0.6955629 0.5707179 0.4364334
vn -0.6955628 0.5707179 -0.4364336
vn -0.07090542 0.05817891 -0.9957855
vn 0.6616855 -0.5429211 -0.5171168
vn 0.6616853 -0.5429211 0.517117
vn 0.7657053 -0.6431921 1.369188E-07
vn -0.7657053 0.6431921 -1.369188E-07

g Quart_Stairs_01_snaps002_0
usemtl Gray_snaps002
f 3/3/1 4/4/1 2/2/1 1/1/1
f 4/4/2 6/7/2 5/6/2 2/5/2
f 6/7/3 8/10/3 7/9/3 5/8/3
f 8/10/4 3/3/4 1/12/4 7/11/4
f 8/10/5 6/7/5 4/4/5 3/3/5
f 1/13/6 2/14/6 5/8/6 7/9/6
f 11/3/1 12/4/1 10/2/1 9/1/1
f 12/4/2 14/7/2 13/6/2 10/5/2
f 14/7/3 16/10/3 15/9/3 13/8/3
f 16/10/4 11/3/4 9/12/4 15/11/4
f 16/10/5 14/7/5 12/4/5 11/3/5
f 9/13/6 10/14/6 13/8/6 15/9/6
f 19/3/1 20/4/1 18/2/1 17/1/1
f 20/4/2 22/7/2 21/6/2 18/5/2
f 22/7/3 24/10/3 23/9/3 21/8/3
f 24/10/4 19/3/4 17/12/4 23/11/4
f 24/10/5 22/7/5 20/4/5 19/3/5
f 17/13/6 18/14/6 21/8/6 23/9/6
f 27/3/1 28/4/1 26/2/1 25/1/1
f 28/4/2 30/7/2 29/6/2 26/5/2
f 30/7/3 32/10/3 31/9/3 29/8/3
f 32/10/4 27/3/4 25/12/4 31/11/4
f 32/10/5 30/7/5 28/4/5 27/3/5
f 25/13/6 26/14/6 29/8/6 31/9/6
f 35/3/1 36/4/1 34/2/1 33/1/1
f 36/4/2 38/7/2 37/6/2 34/5/2
f 38/7/3 40/10/3 39/9/3 37/8/3
f 40/10/4 35/3/4 33/12/4 39/11/4
f 40/10/5 38/7/5 36/4/5 35/3/5
f 33/13/6 34/14/6 37/8/6 39/9/6
f 43/3/1 44/4/1 42/2/1 41/1/1
f 44/4/2 46/7/2 45/6/2 42/5/2
f 46/7/3 48/10/3 47/9/3 45/8/3
f 48/10/4 43/3/4 41/12/4 47/11/4
f 48/10/5 46/7/5 44/4/5 43/3/5
f 41/13/6 42/14/6 45/8/6 47/9/6
f 51/3/1 52/4/1 50/2/1 49/1/1
f 52/4/2 54/7/2 53/6/2 50/5/2
f 54/7/3 56/10/3 55/9/3 53/8/3
f 56/10/4 51/3/4 49/12/4 55/11/4
f 56/10/5 54/7/5 52/4/5 51/3/5
f 49/13/6 50/14/6 53/8/6 55/9/6
f 59/3/1 60/4/1 58/2/1 57/1/1
f 60/4/2 62/7/2 61/6/2 58/5/2
f 62/7/3 64/10/3 63/9/3 61/8/3
f 64/10/4 59/3/4 57/12/4 63/11/4
f 64/10/5 62/7/5 60/4/5 59/3/5
f 57/13/6 58/14/6 61/8/6 63/9/6
f 68/18/3 67/17/7 66/16/7 65/15/3
f 70/20/8 66/16/7 67/17/7 69/19/8
f 72/22/1 70/20/8 69/19/8 71/21/1
f 74/26/9 72/25/1 71/24/1 73/23/9
f 76/28/10 75/27/10 74/26/9 73/23/9
f 76/28/10 68/18/3 65/15/3 75/27/10
f 93/18/3 92/17/7 91/49/7 90/48/3
f 95/50/8 91/49/7 92/17/7 94/19/8
f 97/51/1 95/50/8 94/19/8 96/21/1
f 99/53/9 97/52/1 96/24/1 98/23/9
f 101/28/10 100/54/10 99/53/9 98/23/9
f 101/28/10 93/18/3 90/48/3 100/54/10
f 117/18/3 116/17/7 115/16/7 114/15/3
f 119/20/8 115/16/7 116/17/7 118/19/8
f 121/22/1 119/20/8 118/19/8 120/21/1
f 123/26/9 121/25/1 120/24/1 122/23/9
f 125/28/10 124/27/10 123/26/9 122/23/9
f 125/28/10 117/18/3 114/15/3 124/27/10
f 135/18/3 134/17/7 133/56/7 132/55/3
f 137/57/8 133/56/7 134/17/7 136/19/8
f 139/58/1 137/57/8 136/19/8 138/21/1
f 141/60/9 139/59/1 138/24/1 140/23/9
f 143/28/10 142/61/10 141/60/9 140/23/9
f 143/28/10 135/18/3 132/55/3 142/61/10
f 154/18/3 153/17/7 152/49/7 151/48/3
f 156/50/8 152/49/7 153/17/7 155/19/8
f 158/51/1 156/50/8 155/19/8 157/21/1
f 160/53/9 158/52/1 157/24/1 159/23/9
f 162/28/10 161/54/10 160/53/9 159/23/9
f 162/28/10 154/18/3 151/48/3 161/54/10
f 172/18/3 171/17/7 170/16/7 169/15/3
f 174/20/8 170/16/7 171/17/7 173/19/8
f 176/22/1 174/20/8 173/19/8 175/21/1
f 178/26/9 176/25/1 175/24/1 177/23/9
f 180/28/10 179/27/10 178/26/9 177/23/9
f 180/28/10 172/18/3 169/15/3 179/27/10
f 197/18/3 196/17/7 195/67/7 194/48/3
f 199/68/8 195/67/7 196/17/7 198/19/8
f 201/69/1 199/68/8 198/19/8 200/21/1
f 203/71/9 201/70/1 200/24/1 202/23/9
f 205/28/10 204/72/10 203/71/9 202/23/9
f 205/28/10 197/18/3 194/48/3 204/72/10
f 221/76/3 220/75/7 219/74/7 218/73/3
f 223/78/8 219/74/7 220/75/7 222/77/8
f 225/80/1 223/78/8 222/77/8 224/79/1
f 227/84/9 225/83/1 224/82/1 226/81/9
f 229/86/10 228/85/10 227/84/9 226/81/9
f 229/86/10 221/76/3 218/73/3 228/85/10
f 239/18/3 238/17/7 237/56/7 236/55/3
f 241/57/8 237/56/7 238/17/7 240/19/8
f 243/58/1 241/57/8 240/19/8 242/21/1
f 245/60/9 243/59/1 242/24/1 244/23/9
f 247/28/10 246/61/10 245/60/9 244/23/9
f 247/28/10 239/18/3 236/55/3 246/61/10
f 258/18/3 257/17/7 256/49/7 255/48/3
f 260/50/8 256/49/7 257/17/7 259/19/8
f 262/51/1 260/50/8 259/19/8 261/21/1
f 264/53/9 262/52/1 261/24/1 263/23/9
f 266/28/10 265/54/10 264/53/9 263/23/9
f 266/28/10 258/18/3 255/48/3 265/54/10

g Quart_Stairs_01_snaps002_1
usemtl DarkGray_snaps002
f 275/89/3 276/90/3 274/88/3 273/87/3
f 279/93/1 280/94/1 278/92/1 277/91/1
f 282/94/17 281/93/17 276/87/17 275/88/17
f 280/94/17 279/93/17 281/87/17 282/88/17
f 281/96/2 283/94/2 274/88/2 276/95/2
f 279/96/2 277/94/2 283/88/2 281/95/2
f 282/98/4 284/87/4 278/93/4 280/97/4
f 275/98/4 273/87/4 284/93/4 282/97/4
f 283/88/18 277/94/18 278/93/18 284/87/18
f 274/88/18 283/94/18 284/93/18 273/87/18

g Quart_Stairs_01_snaps002_2
usemtl LightGray_snaps002
f 86/46/3 89/44/3 84/47/3
f 84/47/3 89/44/3 82/34/3
f 149/65/1 150/63/1 144/66/1
f 144/66/1 150/63/1 145/31/1
f 190/46/3 193/44/3 188/47/3
f 188/47/3 193/44/3 186/34/3
f 253/65/1 254/63/1 248/66/1
f 248/66/1 254/63/1 249/31/1
f 80/32/12 78/30/11 77/29/11
f 77/29/11 79/31/12 80/32/12
f 82/34/13 80/32/12 79/31/12
f 79/31/12 81/33/13 82/34/13
f 84/36/14 82/34/13 81/33/13
f 81/33/13 83/35/14 84/36/14
f 86/38/15 84/36/14 83/35/14
f 83/35/14 85/37/15 86/38/15
f 88/42/16 86/40/15 85/39/15
f 85/39/15 87/41/16 88/42/16
f 78/30/11 88/42/16 87/41/16
f 87/41/16 77/29/11 78/30/11
f 82/34/3 89/44/3 78/43/3
f 78/43/3 80/32/3 82/34/3
f 88/45/3 78/43/3 89/44/3
f 89/44/3 86/46/3 88/45/3
f 105/32/12 103/30/11 102/29/11
f 102/29/11 104/31/12 105/32/12
f 107/34/13 105/32/12 104/31/12
f 104/31/12 106/33/13 107/34/13
f 109/36/14 107/34/13 106/33/13
f 106/33/13 108/35/14 109/36/14
f 111/38/15 109/36/14 108/35/14
f 108/35/14 110/37/15 111/38/15
f 113/42/16 111/40/15 110/39/15
f 110/39/15 112/41/16 113/42/16
f 103/30/11 113/42/16 112/41/16
f 112/41/16 102/29/11 103/30/11
f 79/32/12 77/30/11 126/29/11
f 126/29/11 127/31/12 79/32/12
f 81/34/13 79/32/12 127/31/12
f 127/31/12 128/33/13 81/34/13
f 83/36/14 81/34/13 128/33/13
f 128/33/13 129/35/14 83/36/14
f 85/38/15 83/36/14 129/35/14
f 129/35/14 130/37/15 85/38/15
f 87/42/16 85/40/15 130/39/15
f 130/39/15 131/41/16 87/42/16
f 77/30/11 87/42/16 131/41/16
f 131/41/16 126/29/11 77/30/11
f 104/32/12 102/30/11 144/29/11
f 144/29/11 145/31/12 104/32/12
f 106/34/13 104/32/12 145/31/12
f 145/31/12 146/33/13 106/34/13
f 108/36/14 106/34/13 146/33/13
f 146/33/13 147/35/14 108/36/14
f 110/38/15 108/36/14 147/35/14
f 147/35/14 148/37/15 110/38/15
f 112/42/16 110/40/15 148/39/15
f 148/39/15 149/41/16 112/42/16
f 102/30/11 112/42/16 149/41/16
f 149/41/16 144/29/11 102/30/11
f 145/31/1 150/63/1 147/62/1
f 147/62/1 146/33/1 145/31/1
f 148/64/1 147/62/1 150/63/1
f 150/63/1 149/65/1 148/64/1
f 164/32/12 163/30/11 103/29/11
f 103/29/11 105/31/12 164/32/12
f 165/34/13 164/32/12 105/31/12
f 105/31/12 107/33/13 165/34/13
f 166/36/14 165/34/13 107/33/13
f 107/33/13 109/35/14 166/36/14
f 167/38/15 166/36/14 109/35/14
f 109/35/14 111/37/15 167/38/15
f 168/42/16 167/40/15 111/39/15
f 111/39/15 113/41/16 168/42/16
f 163/30/11 168/42/16 113/41/16
f 113/41/16 103/29/11 163/30/11
f 127/32/12 126/30/11 163/29/11
f 163/29/11 164/31/12 127/32/12
f 128/34/13 127/32/12 164/31/12
f 164/31/12 165/33/13 128/34/13
f 129/36/14 128/34/13 165/33/13
f 165/33/13 166/35/14 129/36/14
f 130/38/15 129/36/14 166/35/14
f 166/35/14 167/37/15 130/38/15
f 131/42/16 130/40/15 167/39/15
f 167/39/15 168/41/16 131/42/16
f 126/30/11 131/42/16 168/41/16
f 168/41/16 163/29/11 126/30/11
f 184/32/12 182/30/11 181/29/11
f 181/29/11 183/31/12 184/32/12
f 186/34/13 184/32/12 183/31/12
f 183/31/12 185/33/13 186/34/13
f 188/36/14 186/34/13 185/33/13
f 185/33/13 187/35/14 188/36/14
f 190/38/15 188/36/14 187/35/14
f 187/35/14 189/37/15 190/38/15
f 192/42/16 190/40/15 189/39/15
f 189/39/15 191/41/16 192/42/16
f 182/30/11 192/42/16 191/41/16
f 191/41/16 181/29/11 182/30/11
f 186/34/3 193/44/3 182/43/3
f 182/43/3 184/32/3 186/34/3
f 192/45/3 182/43/3 193/44/3
f 193/44/3 190/46/3 192/45/3
f 209/32/12 207/30/11 206/29/11
f 206/29/11 208/31/12 209/32/12
f 211/34/13 209/32/12 208/31/12
f 208/31/12 210/33/13 211/34/13
f 213/36/14 211/34/13 210/33/13
f 210/33/13 212/35/14 213/36/14
f 215/38/15 213/36/14 212/35/14
f 212/35/14 214/37/15 215/38/15
f 217/42/16 215/40/15 214/39/15
f 214/39/15 216/41/16 217/42/16
f 207/30/11 217/42/16 216/41/16
f 216/41/16 206/29/11 207/30/11
f 183/32/12 181/30/11 230/29/11
f 230/29/11 231/31/12 183/32/12
f 185/34/13 183/32/12 231/31/12
f 231/31/12 232/33/13 185/34/13
f 187/36/14 185/34/13 232/33/13
f 232/33/13 233/35/14 187/36/14
f 189/38/15 187/36/14 233/35/14
f 233/35/14 234/37/15 189/38/15
f 191/42/16 189/40/15 234/39/15
f 234/39/15 235/41/16 191/42/16
f 181/30/11 191/42/16 235/41/16
f 235/41/16 230/29/11 181/30/11
f 208/32/12 206/30/11 248/29/11
f 248/29/11 249/31/12 208/32/12
f 210/34/13 208/32/12 249/31/12
f 249/31/12 250/33/13 210/34/13
f 212/36/14 210/34/13 250/33/13
f 250/33/13 251/35/14 212/36/14
f 214/38/15 212/36/14 251/35/14
f 251/35/14 252/37/15 214/38/15
f 216/42/16 214/40/15 252/39/15
f 252/39/15 253/41/16 216/42/16
f 206/30/11 216/42/16 253/41/16
f 253/41/16 248/29/11 206/30/11
f 249/31/1 254/63/1 251/62/1
f 251/62/1 250/33/1 249/31/1
f 252/64/1 251/62/1 254/63/1
f 254/63/1 253/65/1 252/64/1
f 268/32/12 267/30/11 207/29/11
f 207/29/11 209/31/12 268/32/12
f 269/34/13 268/32/12 209/31/12
f 209/31/12 211/33/13 269/34/13
f 270/36/14 269/34/13 211/33/13
f 211/33/13 213/35/14 270/36/14
f 271/38/15 270/36/14 213/35/14
f 213/35/14 215/37/15 271/38/15
f 272/42/16 271/40/15 215/39/15
f 215/39/15 217/41/16 272/42/16
f 267/30/11 272/42/16 217/41/16
f 217/41/16 207/29/11 267/30/11
f 231/32/12 230/30/11 267/29/11
f 267/29/11 268/31/12 231/32/12
f 232/34/13 231/32/12 268/31/12
f 268/31/12 269/33/13 232/34/13
f 233/36/14 232/34/13 269/33/13
f 269/33/13 270/35/14 233/36/14
f 234/38/15 233/36/14 270/35/14
f 270/35/14 271/37/15 234/38/15
f 235/42/16 234/40/15 271/39/15
f 271/39/15 272/41/16 235/42/16
f 230/30/11 235/42/16 272/41/16
f 272/41/16 267/29/11 230/30/11

